<svg xmlns="http://www.w3.org/2000/svg" xmlns:xlink="http://www.w3.org/1999/xlink" width="1030" height="417" viewBox="0 0 1030 417">
  <defs>
    <filter id="_07" x="68" y="29" width="894" height="365" filterUnits="userSpaceOnUse">
      <feOffset dy="3" input="SourceAlpha"/>
      <feGaussianBlur stdDeviation="5" result="blur"/>
      <feFlood flood-opacity="0.161"/>
      <feComposite operator="in" in2="blur"/>
      <feComposite in="SourceGraphic"/>
    </filter>
    <filter id="Trazado_632791" x="857.36" y="87.176" width="70.098" height="97.423" filterUnits="userSpaceOnUse">
      <feOffset dy="3" input="SourceAlpha"/>
      <feGaussianBlur stdDeviation="3" result="blur-2"/>
      <feFlood flood-opacity="0.161"/>
      <feComposite operator="in" in2="blur-2"/>
      <feComposite in="SourceGraphic"/>
    </filter>
    <radialGradient id="radial-gradient" cx="0.5" cy="0.5" r="0.5" gradientUnits="objectBoundingBox">
      <stop offset="0" stop-color="#3c0061"/>
      <stop offset="1" stop-color="#28023f"/>
    </radialGradient>
  </defs>
  <g id="Grupo_924965" data-name="Grupo 924965" transform="translate(-285 -6900)">
    <rect id="Rectángulo_335083" data-name="Rectángulo 335083" width="1030" height="417" rx="28" transform="translate(285 6900)" fill="#e3e3e3" opacity="0.97"/>
    <g id="Grupo_904544" data-name="Grupo 904544" transform="translate(0 13)">
      <g transform="matrix(1, 0, 0, 1, 285, 6887)" filter="url(#_07)">
        <rect id="_07-2" data-name="07" width="864" height="335" rx="14" transform="translate(83 41)" fill="#f6f6f6"/>
      </g>
      <path id="Trazado_632789" data-name="Trazado 632789" d="M-8446.427-4611.491h31.757l11.3,112.763-32.294,3.229Z" transform="translate(8950 11710)" fill="#a2a2a2"/>
      <g id="Sustracción_1" data-name="Sustracción 1" transform="translate(-8016 -4683)" fill="#fff">
        <path d="M9100,11779H8965a15,15,0,0,1-15-15v-64h1v64a14.016,14.016,0,0,0,14,14h135a14.016,14.016,0,0,0,14-14v-64h1v64a15,15,0,0,1-15,15Z" stroke="none"/>
        <path d="M 9099.9990234375 11779.0009765625 L 8965.0009765625 11779.0009765625 C 8960.9931640625 11779.0009765625 8957.2265625 11777.4404296875 8954.392578125 11774.607421875 C 8951.5595703125 11771.7734375 8949.9990234375 11768.0068359375 8949.9990234375 11763.9990234375 L 8949.9990234375 11699.9990234375 L 8951 11699.998046875 L 8951.0009765625 11763.9990234375 C 8951.0009765625 11771.71875 8957.28125 11777.9990234375 8965.0009765625 11777.9990234375 L 9099.9990234375 11777.9990234375 C 9107.71875 11777.9990234375 9113.9990234375 11771.71875 9113.9990234375 11763.9990234375 L 9113.9990234375 11699.9990234375 L 9114.9990234375 11699.9990234375 L 9114.9990234375 11763.9990234375 C 9114.9990234375 11768.0068359375 9113.4384765625 11771.7744140625 9110.6064453125 11774.607421875 C 9107.7734375 11777.4404296875 9104.0068359375 11779.0009765625 9099.9990234375 11779.0009765625 Z" stroke="none" fill="#3c0061"/>
      </g>
      <g id="Grupo_904542" data-name="Grupo 904542" transform="translate(0 10)">
        <path id="Trazado_632790" data-name="Trazado 632790" d="M-8016-4657.511s12.066-.392,13.988-13.291,7.129-36.314,19.78-37.906,23.946,9.648,46.005,7.061,19.361-16.976,33.934-16.976,17.9,4.911,24.357,16.976,4.061,22.4,9.784,30.846c7.146,10.538,17.152,9.876,17.152,9.876v34.784h-165Z" transform="translate(8950 11700)" fill="#290240"/>
      </g>
      <g transform="matrix(1, 0, 0, 1, 285, 6887)" filter="url(#Trazado_632791)">
        <path id="Trazado_632791-2" data-name="Trazado 632791" d="M-7798.64-4727.276l44.908-2.547,7.19,76.193-45.482,3.23Z" transform="translate(8665 4823)" fill="#a2a2a2"/>
      </g>
      <path id="Trazado_632792" data-name="Trazado 632792" d="M-8559.616-4653.5l805.9-77.665" transform="translate(8950 11710)" fill="none" stroke="#707070" stroke-width="2" stroke-dasharray="6"/>
      <path id="Trazado_632793" data-name="Trazado 632793" d="M-8559.616-4653.5l805.9-77.665" transform="translate(8949 11704)" fill="none" stroke="#707070" stroke-width="2" stroke-dasharray="6"/>
      <path id="Trazado_632794" data-name="Trazado 632794" d="M-8312.3-4670.392l.734,8.819,106.449-11.27-1.347-8.7Z" transform="matrix(0.999, 0.035, -0.035, 0.999, 8781.934, 11995.379)" fill="#3c0061"/>
      <path id="Trazado_632795" data-name="Trazado 632795" d="M-8312.3-4670.392l.734,8.819,106.449-11.27-1.347-8.7Z" transform="matrix(0.999, 0.035, -0.035, 0.999, 8904.978, 11984.531)" fill="#3c0061"/>
      <g id="Grupo_904525" data-name="Grupo 904525" transform="translate(210.258 1918)">
        <g id="Grupo_904505" data-name="Grupo 904505" transform="translate(572.148 5120.28) rotate(120)">
          <rect id="Rectángulo_6953" data-name="Rectángulo 6953" width="41.562" height="3" transform="translate(7.5 4)" fill="#00cca7"/>
          <path id="Polígono_1" data-name="Polígono 1" d="M5.5,0,11,12H0Z" transform="translate(0 11) rotate(-90)" fill="#00cca7"/>
        </g>
        <g id="Grupo_904526" data-name="Grupo 904526" transform="translate(504.631 5122.083) rotate(47)">
          <rect id="Rectángulo_6953-2" data-name="Rectángulo 6953" width="41.562" height="3" transform="translate(7.5 4.001)" fill="#00cca7"/>
          <path id="Polígono_1-2" data-name="Polígono 1" d="M5.5,0,11,12H0Z" transform="translate(0 11) rotate(-90)" fill="#00cca7"/>
        </g>
      </g>
      <g id="Grupo_904526-2" data-name="Grupo 904526" transform="translate(0 10)">
        <path id="Rectángulo_337891" data-name="Rectángulo 337891" d="M4,0H38a4,4,0,0,1,4,4v7a0,0,0,0,1,0,0H0a0,0,0,0,1,0,0V4A4,4,0,0,1,4,0Z" transform="matrix(0.996, -0.087, 0.087, 0.996, 406.601, 7024.851)" fill="#3c0061"/>
        <path id="Rectángulo_337894" data-name="Rectángulo 337894" d="M4,0H38a4,4,0,0,1,4,4v.328a0,0,0,0,1,0,0H0a0,0,0,0,1,0,0V4A4,4,0,0,1,4,0Z" transform="matrix(0.996, -0.087, 0.087, 0.996, 406.601, 7024.129)" fill="#280140"/>
      </g>
      <g id="Grupo_904527" data-name="Grupo 904527" transform="translate(106 0.269)">
        <path id="Trazado_632797" data-name="Trazado 632797" d="M3.517-.042,33.409-.4a3.678,3.678,0,0,1,3.474,3.954l-.074,6.994L-.116,10.99-.042,4A3.884,3.884,0,0,1,3.517-.042Z" transform="matrix(0.996, -0.087, 0.087, 0.996, 406.601, 7024.851)" fill="#3c0061"/>
        <path id="Trazado_632798" data-name="Trazado 632798" d="M3.51-.043,33.346-.407a3.674,3.674,0,0,1,3.467,3.953l0,.328-36.856.45,0-.328A3.883,3.883,0,0,1,3.51-.043Z" transform="matrix(0.996, -0.087, 0.087, 0.996, 406.601, 7024.129)" fill="#280140"/>
      </g>
      <g id="Grupo_904528" data-name="Grupo 904528" transform="translate(206.005 -8.579)">
        <path id="Trazado_632797-2" data-name="Trazado 632797" d="M3.517-.042,33.409-.4a3.678,3.678,0,0,1,3.474,3.954l-.074,6.994L-.116,10.99-.042,4A3.884,3.884,0,0,1,3.517-.042Z" transform="matrix(0.996, -0.087, 0.087, 0.996, 406.601, 7024.851)" fill="#3c0061"/>
        <path id="Trazado_632798-2" data-name="Trazado 632798" d="M3.51-.043,33.346-.407a3.674,3.674,0,0,1,3.467,3.953l0,.328-36.856.45,0-.328A3.883,3.883,0,0,1,3.51-.043Z" transform="matrix(0.996, -0.087, 0.087, 0.996, 406.601, 7024.129)" fill="#280140"/>
      </g>
      <g id="Grupo_904529" data-name="Grupo 904529" transform="translate(309.716 -20.061)">
        <path id="Trazado_632797-3" data-name="Trazado 632797" d="M3.517-.042,33.409-.4a3.678,3.678,0,0,1,3.474,3.954l-.074,6.994L-.116,10.99-.042,4A3.884,3.884,0,0,1,3.517-.042Z" transform="matrix(0.996, -0.087, 0.087, 0.996, 406.601, 7024.851)" fill="#3c0061"/>
        <path id="Trazado_632798-3" data-name="Trazado 632798" d="M3.51-.043,33.346-.407a3.674,3.674,0,0,1,3.467,3.953l0,.328-36.856.45,0-.328A3.883,3.883,0,0,1,3.51-.043Z" transform="matrix(0.996, -0.087, 0.087, 0.996, 406.601, 7024.129)" fill="#280140"/>
      </g>
      <g id="Grupo_904530" data-name="Grupo 904530" transform="translate(406.716 -27.707)">
        <path id="Trazado_632797-4" data-name="Trazado 632797" d="M3.517-.042,33.409-.4a3.678,3.678,0,0,1,3.474,3.954l-.074,6.994L-.116,10.99-.042,4A3.884,3.884,0,0,1,3.517-.042Z" transform="matrix(0.996, -0.087, 0.087, 0.996, 406.601, 7024.851)" fill="#3c0061"/>
        <path id="Trazado_632798-4" data-name="Trazado 632798" d="M3.51-.043,33.346-.407a3.674,3.674,0,0,1,3.467,3.953l0,.328-36.856.45,0-.328A3.883,3.883,0,0,1,3.51-.043Z" transform="matrix(0.996, -0.087, 0.087, 0.996, 406.601, 7024.129)" fill="#280140"/>
      </g>
      <g id="Grupo_904531" data-name="Grupo 904531" transform="translate(513.716 -38.879)">
        <path id="Trazado_632797-5" data-name="Trazado 632797" d="M3.517-.042,33.409-.4a3.678,3.678,0,0,1,3.474,3.954l-.074,6.994L-.116,10.99-.042,4A3.884,3.884,0,0,1,3.517-.042Z" transform="matrix(0.996, -0.087, 0.087, 0.996, 406.601, 7024.851)" fill="#3c0061"/>
        <path id="Trazado_632798-5" data-name="Trazado 632798" d="M3.51-.043,33.346-.407a3.674,3.674,0,0,1,3.467,3.953l0,.328-36.856.45,0-.328A3.883,3.883,0,0,1,3.51-.043Z" transform="matrix(0.996, -0.087, 0.087, 0.996, 406.601, 7024.129)" fill="#280140"/>
      </g>
      <g id="Grupo_904532" data-name="Grupo 904532" transform="translate(610.051 -49.328)">
        <path id="Trazado_632797-6" data-name="Trazado 632797" d="M3.517-.042,33.409-.4a3.678,3.678,0,0,1,3.474,3.954l-.074,6.994L-.116,10.99-.042,4A3.884,3.884,0,0,1,3.517-.042Z" transform="matrix(0.996, -0.087, 0.087, 0.996, 406.601, 7024.851)" fill="#3c0061"/>
        <path id="Trazado_632798-6" data-name="Trazado 632798" d="M3.51-.043,33.346-.407a3.674,3.674,0,0,1,3.467,3.953l0,.328-36.856.45,0-.328A3.883,3.883,0,0,1,3.51-.043Z" transform="matrix(0.996, -0.087, 0.087, 0.996, 406.601, 7024.129)" fill="#280140"/>
      </g>
      <g id="Grupo_904533" data-name="Grupo 904533" transform="translate(720.051 -60.328)">
        <path id="Trazado_632797-7" data-name="Trazado 632797" d="M3.517-.042,33.409-.4a3.678,3.678,0,0,1,3.474,3.954l-.074,6.994L-.116,10.99-.042,4A3.884,3.884,0,0,1,3.517-.042Z" transform="matrix(0.996, -0.087, 0.087, 0.996, 406.601, 7024.851)" fill="#3c0061"/>
        <path id="Trazado_632798-7" data-name="Trazado 632798" d="M3.51-.043,33.346-.407a3.674,3.674,0,0,1,3.467,3.953l0,.328-36.856.45,0-.328A3.883,3.883,0,0,1,3.51-.043Z" transform="matrix(0.996, -0.087, 0.087, 0.996, 406.601, 7024.129)" fill="#280140"/>
      </g>
      <g id="Grupo_904534" data-name="Grupo 904534" transform="translate(0 10)">
        <path id="Rectángulo_337892" data-name="Rectángulo 337892" d="M2,0H27a2,2,0,0,1,2,2V17a0,0,0,0,1,0,0H0a0,0,0,0,1,0,0V2A2,2,0,0,1,2,0Z" transform="matrix(0.996, -0.087, 0.087, 0.996, 464.051, 7013.264)" fill="#3c0061"/>
        <path id="Rectángulo_337893" data-name="Rectángulo 337893" d="M2,0H27a2,2,0,0,1,2,2V4a0,0,0,0,1,0,0H0A0,0,0,0,1,0,4V2A2,2,0,0,1,2,0Z" transform="matrix(0.996, -0.087, 0.087, 0.996, 464.051, 7013.245)" fill="#280140"/>
      </g>
      <g id="Grupo_904535" data-name="Grupo 904535" transform="translate(204 -8.792)">
        <path id="Rectángulo_337892-2" data-name="Rectángulo 337892" d="M2,0H27a2,2,0,0,1,2,2V17a0,0,0,0,1,0,0H0a0,0,0,0,1,0,0V2A2,2,0,0,1,2,0Z" transform="matrix(0.996, -0.087, 0.087, 0.996, 464.051, 7013.264)" fill="#3c0061"/>
        <path id="Rectángulo_337893-2" data-name="Rectángulo 337893" d="M2,0H27a2,2,0,0,1,2,2V4a0,0,0,0,1,0,0H0A0,0,0,0,1,0,4V2A2,2,0,0,1,2,0Z" transform="matrix(0.996, -0.087, 0.087, 0.996, 464.051, 7013.245)" fill="#280140"/>
      </g>
      <g id="Grupo_904536" data-name="Grupo 904536" transform="translate(409 -29.082)">
        <path id="Rectángulo_337892-3" data-name="Rectángulo 337892" d="M2,0H27a2,2,0,0,1,2,2V17a0,0,0,0,1,0,0H0a0,0,0,0,1,0,0V2A2,2,0,0,1,2,0Z" transform="matrix(0.996, -0.087, 0.087, 0.996, 464.051, 7013.264)" fill="#3c0061"/>
        <path id="Rectángulo_337893-3" data-name="Rectángulo 337893" d="M2,0H27a2,2,0,0,1,2,2V4a0,0,0,0,1,0,0H0A0,0,0,0,1,0,4V2A2,2,0,0,1,2,0Z" transform="matrix(0.996, -0.087, 0.087, 0.996, 464.051, 7013.245)" fill="#280140"/>
      </g>
      <g id="Grupo_904537" data-name="Grupo 904537" transform="translate(615 -49.272)">
        <path id="Rectángulo_337892-4" data-name="Rectángulo 337892" d="M2,0H27a2,2,0,0,1,2,2V17a0,0,0,0,1,0,0H0a0,0,0,0,1,0,0V2A2,2,0,0,1,2,0Z" transform="matrix(0.996, -0.087, 0.087, 0.996, 464.051, 7013.264)" fill="#3c0061"/>
        <path id="Rectángulo_337893-4" data-name="Rectángulo 337893" d="M2,0H27a2,2,0,0,1,2,2V4a0,0,0,0,1,0,0H0A0,0,0,0,1,0,4V2A2,2,0,0,1,2,0Z" transform="matrix(0.996, -0.087, 0.087, 0.996, 464.051, 7013.245)" fill="#280140"/>
      </g>
      <circle id="Elipse_6887" data-name="Elipse 6887" cx="15" cy="15" r="15" transform="translate(1161 6989)" fill="#3e3e3f"/>
      <circle id="Elipse_6888" data-name="Elipse 6888" cx="6" cy="6" r="6" transform="translate(1173 7036)" fill="#3e3e3f"/>
      <circle id="Elipse_6889" data-name="Elipse 6889" cx="9" cy="9" r="9" transform="translate(1167 6995)" fill="#fff"/>
      <path id="Trazado_632796" data-name="Trazado 632796" d="M-7788.013-4702.7l12.155,37.786" transform="translate(8950 11710)" fill="none" stroke="#3e3e3f" stroke-width="1"/>
      <path id="Trazado_632797-8" data-name="Trazado 632797" d="M-7759.455-4706.149l-5.943,38.6" transform="translate(8950 11710)" fill="none" stroke="#3e3e3f" stroke-width="1"/>
      <g id="Grupo_904538" data-name="Grupo 904538" transform="translate(550.303 7147.275)">
        <rect id="Rectángulo_6953-3" data-name="Rectángulo 6953" width="41.562" height="3" transform="translate(7.5 4.001)" fill="#00cca7"/>
        <path id="Polígono_1-3" data-name="Polígono 1" d="M5.5,0,11,12H0Z" transform="translate(0 11) rotate(-90)" fill="#00cca7"/>
      </g>
      <path id="Trazado_647753" data-name="Trazado 647753" d="M7.859-4.648h-4.5V0H1.016V-11.375H8.422v1.9H3.359v2.938h4.5ZM14.523-.859A2.831,2.831,0,0,1,12.211.156a2.67,2.67,0,0,1-2.074-.781,3.335,3.335,0,0,1-.73-2.289V-8.453h2.258v5.467q0,1.322,1.2,1.322a1.63,1.63,0,0,0,1.578-.8V-8.453h2.266V0H14.586Zm5.969-7.594.07.977a2.951,2.951,0,0,1,2.43-1.133,2.453,2.453,0,0,1,2,.789,3.682,3.682,0,0,1,.672,2.359V0H23.406V-5.406a1.465,1.465,0,0,0-.312-1.043,1.4,1.4,0,0,0-1.039-.324,1.553,1.553,0,0,0-1.43.813V0H18.367V-8.453Zm6.531,4.164a5.094,5.094,0,0,1,.887-3.148,2.877,2.877,0,0,1,2.426-1.172,2.589,2.589,0,0,1,2.039.922V-12h2.266V0H32.6l-.109-.9A2.657,2.657,0,0,1,30.32.156,2.869,2.869,0,0,1,27.926-1.02,5.258,5.258,0,0,1,27.023-4.289Zm2.258.168A3.337,3.337,0,0,0,29.7-2.3a1.349,1.349,0,0,0,1.2.634,1.511,1.511,0,0,0,1.477-.884V-5.889a1.489,1.489,0,0,0-1.461-.884Q29.281-6.773,29.281-4.121Zm11,4.277A4.15,4.15,0,0,1,37.254-.984a4.054,4.054,0,0,1-1.168-3.039v-.219a5.106,5.106,0,0,1,.492-2.277,3.612,3.612,0,0,1,1.395-1.547,3.914,3.914,0,0,1,2.059-.543,3.508,3.508,0,0,1,2.73,1.094,4.444,4.444,0,0,1,1,3.1v.922H38.375a2.1,2.1,0,0,0,.66,1.328,2,2,0,0,0,1.395.5,2.437,2.437,0,0,0,2.039-.945l1.109,1.242A3.389,3.389,0,0,1,42.2-.246,4.511,4.511,0,0,1,40.281.156Zm-.258-6.945a1.411,1.411,0,0,0-1.09.455,2.357,2.357,0,0,0-.535,1.3h3.141v-.181a1.681,1.681,0,0,0-.406-1.165A1.456,1.456,0,0,0,40.023-6.789Zm7.094-1.664.07.977a2.951,2.951,0,0,1,2.43-1.133,2.453,2.453,0,0,1,2,.789,3.682,3.682,0,0,1,.672,2.359V0H50.031V-5.406a1.465,1.465,0,0,0-.312-1.043,1.4,1.4,0,0,0-1.039-.324,1.553,1.553,0,0,0-1.43.813V0H44.992V-8.453ZM56.7-10.531v2.078h1.445V-6.8H56.7v4.219a1.007,1.007,0,0,0,.18.672.9.9,0,0,0,.688.2,3.6,3.6,0,0,0,.664-.055V-.047a4.648,4.648,0,0,1-1.367.2,2.156,2.156,0,0,1-2.422-2.4V-6.8H53.211V-8.453h1.234v-2.078ZM63.3.156A4.15,4.15,0,0,1,60.27-.984,4.054,4.054,0,0,1,59.1-4.023v-.219a5.106,5.106,0,0,1,.492-2.277,3.612,3.612,0,0,1,1.395-1.547,3.914,3.914,0,0,1,2.059-.543,3.508,3.508,0,0,1,2.73,1.094,4.444,4.444,0,0,1,1,3.1v.922H61.391a2.1,2.1,0,0,0,.66,1.328,2,2,0,0,0,1.395.5,2.437,2.437,0,0,0,2.039-.945l1.109,1.242A3.389,3.389,0,0,1,65.219-.246,4.511,4.511,0,0,1,63.3.156Zm-.258-6.945a1.411,1.411,0,0,0-1.09.455,2.357,2.357,0,0,0-.535,1.3h3.141v-.181a1.681,1.681,0,0,0-.406-1.165A1.456,1.456,0,0,0,63.039-6.789Z" transform="translate(603 7157)" fill="#12263f"/>
      <path id="Trazado_647754" data-name="Trazado 647754" d="M9.578-9.477H6.094V0H3.75V-9.477H.313v-1.9H9.578Zm5.43,3.141A6.134,6.134,0,0,0,14.2-6.4a1.654,1.654,0,0,0-1.68.867V0H10.258V-8.453h2.133l.063,1.008a2.092,2.092,0,0,1,1.883-1.164,2.366,2.366,0,0,1,.7.1ZM20.758,0a2.507,2.507,0,0,1-.227-.758A2.732,2.732,0,0,1,18.4.156,3,3,0,0,1,16.34-.562a2.312,2.312,0,0,1-.816-1.812,2.389,2.389,0,0,1,1-2.062A4.915,4.915,0,0,1,19.4-5.164h1.039v-.484a1.393,1.393,0,0,0-.3-.937,1.183,1.183,0,0,0-.949-.352,1.345,1.345,0,0,0-.895.273.929.929,0,0,0-.324.75H15.711a2.268,2.268,0,0,1,.453-1.359,3,3,0,0,1,1.281-.98A4.669,4.669,0,0,1,19.3-8.609a3.689,3.689,0,0,1,2.48.785A2.747,2.747,0,0,1,22.7-5.617v3.664a4.041,4.041,0,0,0,.336,1.82V0ZM18.891-1.57a1.945,1.945,0,0,0,.922-.223,1.462,1.462,0,0,0,.625-.6V-3.844h-.844q-1.7,0-1.8,1.172l-.008.133a.9.9,0,0,0,.3.7A1.153,1.153,0,0,0,18.891-1.57Zm7.625-6.883.07.977a2.951,2.951,0,0,1,2.43-1.133,2.453,2.453,0,0,1,2,.789,3.682,3.682,0,0,1,.672,2.359V0H29.43V-5.406a1.465,1.465,0,0,0-.312-1.043,1.4,1.4,0,0,0-1.039-.324,1.553,1.553,0,0,0-1.43.813V0H24.391V-8.453Zm14.492,4.3a5.07,5.07,0,0,1-.887,3.129A2.843,2.843,0,0,1,37.727.156a2.633,2.633,0,0,1-2.07-.891V3.25H33.4v-11.7h2.094l.078.828a2.654,2.654,0,0,1,2.141-.984,2.862,2.862,0,0,1,2.43,1.156,5.207,5.207,0,0,1,.867,3.188ZM38.75-4.312a3.327,3.327,0,0,0-.418-1.82,1.361,1.361,0,0,0-1.215-.641,1.479,1.479,0,0,0-1.461.813V-2.5a1.5,1.5,0,0,0,1.477.836Q38.75-1.664,38.75-4.312Zm3.3.008a5.013,5.013,0,0,1,.484-2.242A3.546,3.546,0,0,1,43.934-8.07a4.069,4.069,0,0,1,2.113-.539A3.849,3.849,0,0,1,48.84-7.562a4.2,4.2,0,0,1,1.207,2.844l.016.578A4.418,4.418,0,0,1,48.977-1.02,3.775,3.775,0,0,1,46.063.156a3.793,3.793,0,0,1-2.918-1.172A4.5,4.5,0,0,1,42.055-4.2Zm2.258.16A3.16,3.16,0,0,0,44.766-2.3a1.5,1.5,0,0,0,1.3.638,1.5,1.5,0,0,0,1.281-.63A3.457,3.457,0,0,0,47.8-4.309a3.128,3.128,0,0,0-.461-1.831,1.5,1.5,0,0,0-1.3-.649,1.474,1.474,0,0,0-1.281.646A3.516,3.516,0,0,0,44.313-4.144ZM56.2-6.336a6.134,6.134,0,0,0-.812-.062,1.654,1.654,0,0,0-1.68.867V0H51.453V-8.453h2.133l.063,1.008a2.092,2.092,0,0,1,1.883-1.164,2.366,2.366,0,0,1,.7.1Zm4.18-4.2v2.078h1.445V-6.8H60.383v4.219a1.007,1.007,0,0,0,.18.672.9.9,0,0,0,.688.2,3.6,3.6,0,0,0,.664-.055V-.047a4.648,4.648,0,0,1-1.367.2,2.156,2.156,0,0,1-2.422-2.4V-6.8H56.891V-8.453h1.234v-2.078ZM67.984,0a2.507,2.507,0,0,1-.227-.758,2.732,2.732,0,0,1-2.133.914,3,3,0,0,1-2.059-.719,2.312,2.312,0,0,1-.816-1.812,2.389,2.389,0,0,1,1-2.062,4.915,4.915,0,0,1,2.879-.727h1.039v-.484a1.393,1.393,0,0,0-.3-.937,1.183,1.183,0,0,0-.949-.352,1.345,1.345,0,0,0-.895.273.929.929,0,0,0-.324.75H62.938a2.268,2.268,0,0,1,.453-1.359,3,3,0,0,1,1.281-.98,4.669,4.669,0,0,1,1.859-.355,3.689,3.689,0,0,1,2.48.785,2.747,2.747,0,0,1,.918,2.207v3.664a4.041,4.041,0,0,0,.336,1.82V0ZM66.117-1.57a1.945,1.945,0,0,0,.922-.223,1.462,1.462,0,0,0,.625-.6V-3.844H66.82q-1.7,0-1.8,1.172l-.008.133a.9.9,0,0,0,.3.7A1.153,1.153,0,0,0,66.117-1.57Zm5.2-2.719A5.094,5.094,0,0,1,72.2-7.437a2.877,2.877,0,0,1,2.426-1.172,2.589,2.589,0,0,1,2.039.922V-12H78.93V0H76.891l-.109-.9A2.657,2.657,0,0,1,74.609.156,2.869,2.869,0,0,1,72.215-1.02,5.258,5.258,0,0,1,71.313-4.289Zm2.258.168A3.337,3.337,0,0,0,73.984-2.3a1.349,1.349,0,0,0,1.2.634,1.511,1.511,0,0,0,1.477-.884V-5.889A1.489,1.489,0,0,0,75.2-6.773Q73.57-6.773,73.57-4.121ZM80.328-4.3a5.013,5.013,0,0,1,.484-2.242A3.546,3.546,0,0,1,82.207-8.07a4.069,4.069,0,0,1,2.113-.539,3.849,3.849,0,0,1,2.793,1.047A4.2,4.2,0,0,1,88.32-4.719l.016.578A4.418,4.418,0,0,1,87.25-1.02,3.775,3.775,0,0,1,84.336.156a3.793,3.793,0,0,1-2.918-1.172A4.5,4.5,0,0,1,80.328-4.2Zm2.258.16A3.16,3.16,0,0,0,83.039-2.3a1.5,1.5,0,0,0,1.3.638,1.5,1.5,0,0,0,1.281-.63,3.457,3.457,0,0,0,.461-2.015,3.128,3.128,0,0,0-.461-1.831,1.5,1.5,0,0,0-1.3-.649,1.474,1.474,0,0,0-1.281.646A3.516,3.516,0,0,0,82.586-4.144ZM94.477-6.336a6.134,6.134,0,0,0-.812-.062,1.654,1.654,0,0,0-1.68.867V0H89.727V-8.453h2.133l.063,1.008A2.092,2.092,0,0,1,93.8-8.609a2.366,2.366,0,0,1,.7.1ZM100.227,0A2.507,2.507,0,0,1,100-.758a2.732,2.732,0,0,1-2.133.914,3,3,0,0,1-2.059-.719,2.312,2.312,0,0,1-.816-1.812,2.389,2.389,0,0,1,1-2.062,4.915,4.915,0,0,1,2.879-.727h1.039v-.484a1.393,1.393,0,0,0-.3-.937,1.183,1.183,0,0,0-.949-.352,1.345,1.345,0,0,0-.895.273.929.929,0,0,0-.324.75H95.18a2.268,2.268,0,0,1,.453-1.359,3,3,0,0,1,1.281-.98,4.669,4.669,0,0,1,1.859-.355,3.689,3.689,0,0,1,2.48.785,2.747,2.747,0,0,1,.918,2.207v3.664a4.041,4.041,0,0,0,.336,1.82V0ZM98.359-1.57a1.945,1.945,0,0,0,.922-.223,1.462,1.462,0,0,0,.625-.6V-3.844h-.844q-1.7,0-1.8,1.172l-.008.133a.9.9,0,0,0,.3.7A1.153,1.153,0,0,0,98.359-1.57Z" transform="translate(386 7117)" fill="#12263f"/>
      <path id="Trazado_647752" data-name="Trazado 647752" d="M3.359-4.008V0H1.016V-11.375H5.453a5.134,5.134,0,0,1,2.254.469A3.454,3.454,0,0,1,9.2-9.574a3.714,3.714,0,0,1,.523,1.965A3.266,3.266,0,0,1,8.582-4.973a4.767,4.767,0,0,1-3.168.965Zm0-1.9H5.453a2.059,2.059,0,0,0,1.418-.437,1.591,1.591,0,0,0,.488-1.25,1.876,1.876,0,0,0-.492-1.352,1.839,1.839,0,0,0-1.359-.531H3.359Zm12.578-.43a6.134,6.134,0,0,0-.812-.062,1.654,1.654,0,0,0-1.68.867V0H11.188V-8.453H13.32l.063,1.008a2.092,2.092,0,0,1,1.883-1.164,2.366,2.366,0,0,1,.7.1ZM20.914.156A4.15,4.15,0,0,1,17.887-.984a4.054,4.054,0,0,1-1.168-3.039v-.219a5.106,5.106,0,0,1,.492-2.277,3.612,3.612,0,0,1,1.395-1.547,3.914,3.914,0,0,1,2.059-.543,3.508,3.508,0,0,1,2.73,1.094,4.444,4.444,0,0,1,1,3.1v.922H19.008a2.1,2.1,0,0,0,.66,1.328,2,2,0,0,0,1.395.5A2.437,2.437,0,0,0,23.1-2.609l1.109,1.242A3.389,3.389,0,0,1,22.836-.246,4.511,4.511,0,0,1,20.914.156Zm-.258-6.945a1.411,1.411,0,0,0-1.09.455,2.357,2.357,0,0,0-.535,1.3h3.141v-.181a1.681,1.681,0,0,0-.406-1.165A1.456,1.456,0,0,0,20.656-6.789Zm8.531,5.125A1.481,1.481,0,0,0,30.2-2.008a1.2,1.2,0,0,0,.406-.914h2.117a2.9,2.9,0,0,1-.469,1.574A3.093,3.093,0,0,1,31-.238a3.949,3.949,0,0,1-1.77.395A3.67,3.67,0,0,1,26.367-1,4.56,4.56,0,0,1,25.32-4.18v-.148a4.508,4.508,0,0,1,1.039-3.117,3.627,3.627,0,0,1,2.852-1.164,3.555,3.555,0,0,1,2.543.9,3.2,3.2,0,0,1,.973,2.4H30.609A1.551,1.551,0,0,0,30.2-6.377a1.354,1.354,0,0,0-1.031-.412,1.36,1.36,0,0,0-1.191.575,3.333,3.333,0,0,0-.4,1.866v.235a3.375,3.375,0,0,0,.4,1.878A1.377,1.377,0,0,0,29.188-1.664ZM38.914,0a2.507,2.507,0,0,1-.227-.758,2.732,2.732,0,0,1-2.133.914A3,3,0,0,1,34.5-.562a2.312,2.312,0,0,1-.816-1.812,2.389,2.389,0,0,1,1-2.062,4.915,4.915,0,0,1,2.879-.727h1.039v-.484a1.393,1.393,0,0,0-.3-.937,1.183,1.183,0,0,0-.949-.352,1.345,1.345,0,0,0-.895.273.929.929,0,0,0-.324.75H33.867a2.268,2.268,0,0,1,.453-1.359,3,3,0,0,1,1.281-.98,4.669,4.669,0,0,1,1.859-.355,3.689,3.689,0,0,1,2.48.785,2.747,2.747,0,0,1,.918,2.207v3.664A4.041,4.041,0,0,0,41.2-.133V0ZM37.047-1.57a1.945,1.945,0,0,0,.922-.223,1.462,1.462,0,0,0,.625-.6V-3.844H37.75q-1.7,0-1.8,1.172l-.008.133a.9.9,0,0,0,.3.7A1.153,1.153,0,0,0,37.047-1.57ZM44.977,0H42.711V-12h2.266Zm5.75.156A4.15,4.15,0,0,1,47.7-.984a4.054,4.054,0,0,1-1.168-3.039v-.219a5.106,5.106,0,0,1,.492-2.277,3.612,3.612,0,0,1,1.395-1.547,3.914,3.914,0,0,1,2.059-.543,3.508,3.508,0,0,1,2.73,1.094,4.444,4.444,0,0,1,1,3.1v.922H48.82a2.1,2.1,0,0,0,.66,1.328,2,2,0,0,0,1.395.5,2.437,2.437,0,0,0,2.039-.945l1.109,1.242A3.389,3.389,0,0,1,52.648-.246,4.511,4.511,0,0,1,50.727.156Zm-.258-6.945a1.411,1.411,0,0,0-1.09.455,2.357,2.357,0,0,0-.535,1.3h3.141v-.181a1.681,1.681,0,0,0-.406-1.165A1.456,1.456,0,0,0,50.469-6.789Zm7.094-1.664.07.977a2.951,2.951,0,0,1,2.43-1.133,2.453,2.453,0,0,1,2,.789,3.682,3.682,0,0,1,.672,2.359V0H60.477V-5.406a1.465,1.465,0,0,0-.312-1.043,1.4,1.4,0,0,0-1.039-.324,1.553,1.553,0,0,0-1.43.813V0H55.438V-8.453Zm9.586-2.078v2.078h1.445V-6.8H67.148v4.219a1.007,1.007,0,0,0,.18.672.9.9,0,0,0,.688.2,3.6,3.6,0,0,0,.664-.055V-.047a4.648,4.648,0,0,1-1.367.2,2.156,2.156,0,0,1-2.422-2.4V-6.8H63.656V-8.453h1.234v-2.078ZM74.75,0a2.507,2.507,0,0,1-.227-.758,2.732,2.732,0,0,1-2.133.914,3,3,0,0,1-2.059-.719,2.312,2.312,0,0,1-.816-1.812,2.389,2.389,0,0,1,1-2.062,4.915,4.915,0,0,1,2.879-.727H74.43v-.484a1.393,1.393,0,0,0-.3-.937,1.183,1.183,0,0,0-.949-.352,1.345,1.345,0,0,0-.895.273.929.929,0,0,0-.324.75H69.7a2.268,2.268,0,0,1,.453-1.359,3,3,0,0,1,1.281-.98A4.669,4.669,0,0,1,73.3-8.609a3.689,3.689,0,0,1,2.48.785A2.747,2.747,0,0,1,76.7-5.617v3.664a4.041,4.041,0,0,0,.336,1.82V0ZM72.883-1.57a1.945,1.945,0,0,0,.922-.223,1.462,1.462,0,0,0,.625-.6V-3.844h-.844q-1.7,0-1.8,1.172l-.008.133a.9.9,0,0,0,.3.7A1.153,1.153,0,0,0,72.883-1.57Zm5.2-2.719a5.094,5.094,0,0,1,.887-3.148,2.877,2.877,0,0,1,2.426-1.172,2.589,2.589,0,0,1,2.039.922V-12H85.7V0H83.656l-.109-.9A2.657,2.657,0,0,1,81.375.156,2.869,2.869,0,0,1,78.98-1.02,5.258,5.258,0,0,1,78.078-4.289Zm2.258.168A3.337,3.337,0,0,0,80.75-2.3a1.349,1.349,0,0,0,1.2.634,1.511,1.511,0,0,0,1.477-.884V-5.889a1.489,1.489,0,0,0-1.461-.884Q80.336-6.773,80.336-4.121ZM87.094-4.3a5.013,5.013,0,0,1,.484-2.242A3.546,3.546,0,0,1,88.973-8.07a4.069,4.069,0,0,1,2.113-.539,3.849,3.849,0,0,1,2.793,1.047,4.2,4.2,0,0,1,1.207,2.844l.016.578A4.418,4.418,0,0,1,94.016-1.02,3.775,3.775,0,0,1,91.1.156a3.793,3.793,0,0,1-2.918-1.172A4.5,4.5,0,0,1,87.094-4.2Zm2.258.16A3.16,3.16,0,0,0,89.8-2.3a1.5,1.5,0,0,0,1.3.638,1.5,1.5,0,0,0,1.281-.63,3.457,3.457,0,0,0,.461-2.015,3.128,3.128,0,0,0-.461-1.831,1.5,1.5,0,0,0-1.3-.649,1.474,1.474,0,0,0-1.281.646A3.516,3.516,0,0,0,89.352-4.144Zm11.891-2.192a6.134,6.134,0,0,0-.812-.062,1.654,1.654,0,0,0-1.68.867V0H96.492V-8.453h2.133l.063,1.008a2.092,2.092,0,0,1,1.883-1.164,2.366,2.366,0,0,1,.7.1ZM106.219.156a4.15,4.15,0,0,1-3.027-1.141,4.054,4.054,0,0,1-1.168-3.039v-.219a5.106,5.106,0,0,1,.492-2.277,3.612,3.612,0,0,1,1.395-1.547,3.914,3.914,0,0,1,2.059-.543,3.508,3.508,0,0,1,2.73,1.094,4.444,4.444,0,0,1,1,3.1v.922h-5.383a2.1,2.1,0,0,0,.66,1.328,2,2,0,0,0,1.395.5,2.437,2.437,0,0,0,2.039-.945l1.109,1.242a3.389,3.389,0,0,1-1.375,1.121A4.511,4.511,0,0,1,106.219.156Zm-.258-6.945a1.411,1.411,0,0,0-1.09.455,2.357,2.357,0,0,0-.535,1.3h3.141v-.181a1.681,1.681,0,0,0-.406-1.165A1.456,1.456,0,0,0,105.961-6.789Zm9.594,4.453a.727.727,0,0,0-.41-.652,4.659,4.659,0,0,0-1.316-.426q-3.016-.633-3.016-2.562a2.323,2.323,0,0,1,.934-1.879,3.766,3.766,0,0,1,2.441-.754,4.053,4.053,0,0,1,2.574.758,2.388,2.388,0,0,1,.965,1.969h-2.258a1.092,1.092,0,0,0-.312-.8A1.322,1.322,0,0,0,114.18-7a1.351,1.351,0,0,0-.883.258.814.814,0,0,0-.312.656.7.7,0,0,0,.355.605,3.657,3.657,0,0,0,1.2.4,9.8,9.8,0,0,1,1.422.379A2.336,2.336,0,0,1,117.75-2.43a2.2,2.2,0,0,1-.992,1.871A4.28,4.28,0,0,1,114.2.156a4.47,4.47,0,0,1-1.887-.379,3.166,3.166,0,0,1-1.293-1.039,2.414,2.414,0,0,1-.469-1.426h2.141a1.179,1.179,0,0,0,.445.922,1.766,1.766,0,0,0,1.109.32,1.635,1.635,0,0,0,.98-.246A.766.766,0,0,0,115.555-2.336Z" transform="translate(701 7100)" fill="#12263f"/>
      <path id="Trazado_647755" data-name="Trazado 647755" d="M10.359-5.43a6.867,6.867,0,0,1-.594,2.945,4.472,4.472,0,0,1-1.7,1.953A4.7,4.7,0,0,1,5.531.156a4.732,4.732,0,0,1-2.523-.68A4.515,4.515,0,0,1,1.289-2.465a6.67,6.67,0,0,1-.617-2.9V-5.93a6.831,6.831,0,0,1,.605-2.957,4.508,4.508,0,0,1,1.711-1.961,4.706,4.706,0,0,1,2.527-.684,4.706,4.706,0,0,1,2.527.684A4.508,4.508,0,0,1,9.754-8.887a6.811,6.811,0,0,1,.605,2.949ZM7.984-5.945a4.787,4.787,0,0,0-.641-2.719,2.088,2.088,0,0,0-1.828-.93,2.088,2.088,0,0,0-1.82.918,4.732,4.732,0,0,0-.648,2.691v.555a4.847,4.847,0,0,0,.641,2.7,2.082,2.082,0,0,0,1.844.961,2.064,2.064,0,0,0,1.813-.926,4.819,4.819,0,0,0,.641-2.7Zm6.008-2.508.07.977a2.951,2.951,0,0,1,2.43-1.133,2.453,2.453,0,0,1,2,.789,3.682,3.682,0,0,1,.672,2.359V0H16.906V-5.406a1.465,1.465,0,0,0-.312-1.043,1.4,1.4,0,0,0-1.039-.324,1.553,1.553,0,0,0-1.43.813V0H11.867V-8.453Zm6.531,4.164a5.094,5.094,0,0,1,.887-3.148,2.877,2.877,0,0,1,2.426-1.172,2.589,2.589,0,0,1,2.039.922V-12h2.266V0H26.1l-.109-.9A2.657,2.657,0,0,1,23.82.156,2.869,2.869,0,0,1,21.426-1.02,5.258,5.258,0,0,1,20.523-4.289Zm2.258.168A3.337,3.337,0,0,0,23.2-2.3a1.349,1.349,0,0,0,1.2.634,1.511,1.511,0,0,0,1.477-.884V-5.889a1.489,1.489,0,0,0-1.461-.884Q22.781-6.773,22.781-4.121ZM34.789,0a2.507,2.507,0,0,1-.227-.758A2.732,2.732,0,0,1,32.43.156a3,3,0,0,1-2.059-.719,2.312,2.312,0,0,1-.816-1.812,2.389,2.389,0,0,1,1-2.062,4.915,4.915,0,0,1,2.879-.727h1.039v-.484a1.393,1.393,0,0,0-.3-.937,1.183,1.183,0,0,0-.949-.352,1.345,1.345,0,0,0-.895.273.929.929,0,0,0-.324.75H29.742A2.268,2.268,0,0,1,30.2-7.273a3,3,0,0,1,1.281-.98,4.669,4.669,0,0,1,1.859-.355,3.689,3.689,0,0,1,2.48.785,2.747,2.747,0,0,1,.918,2.207v3.664a4.041,4.041,0,0,0,.336,1.82V0ZM32.922-1.57a1.945,1.945,0,0,0,.922-.223,1.462,1.462,0,0,0,.625-.6V-3.844h-.844q-1.7,0-1.8,1.172l-.008.133a.9.9,0,0,0,.3.7A1.153,1.153,0,0,0,32.922-1.57ZM42.1-4.289a5.094,5.094,0,0,1,.887-3.148,2.877,2.877,0,0,1,2.426-1.172,2.589,2.589,0,0,1,2.039.922V-12h2.266V0H47.68L47.57-.9A2.657,2.657,0,0,1,45.4.156,2.869,2.869,0,0,1,43-1.02,5.258,5.258,0,0,1,42.1-4.289Zm2.258.168A3.337,3.337,0,0,0,44.773-2.3a1.349,1.349,0,0,0,1.2.634,1.511,1.511,0,0,0,1.477-.884V-5.889a1.489,1.489,0,0,0-1.461-.884Q44.359-6.773,44.359-4.121Zm11,4.277A4.15,4.15,0,0,1,52.332-.984a4.054,4.054,0,0,1-1.168-3.039v-.219a5.106,5.106,0,0,1,.492-2.277,3.612,3.612,0,0,1,1.395-1.547,3.914,3.914,0,0,1,2.059-.543,3.508,3.508,0,0,1,2.73,1.094,4.444,4.444,0,0,1,1,3.1v.922H53.453a2.1,2.1,0,0,0,.66,1.328,2,2,0,0,0,1.395.5,2.437,2.437,0,0,0,2.039-.945l1.109,1.242A3.389,3.389,0,0,1,57.281-.246,4.511,4.511,0,0,1,55.359.156ZM55.1-6.789a1.411,1.411,0,0,0-1.09.455,2.357,2.357,0,0,0-.535,1.3h3.141v-.181a1.681,1.681,0,0,0-.406-1.165A1.456,1.456,0,0,0,55.1-6.789ZM68.68-2.336a.727.727,0,0,0-.41-.652,4.659,4.659,0,0,0-1.316-.426q-3.016-.633-3.016-2.562a2.323,2.323,0,0,1,.934-1.879,3.766,3.766,0,0,1,2.441-.754,4.053,4.053,0,0,1,2.574.758,2.388,2.388,0,0,1,.965,1.969H68.594a1.092,1.092,0,0,0-.312-.8A1.322,1.322,0,0,0,67.3-7a1.351,1.351,0,0,0-.883.258.814.814,0,0,0-.312.656.7.7,0,0,0,.355.605,3.657,3.657,0,0,0,1.2.4,9.8,9.8,0,0,1,1.422.379A2.336,2.336,0,0,1,70.875-2.43a2.2,2.2,0,0,1-.992,1.871A4.28,4.28,0,0,1,67.32.156a4.47,4.47,0,0,1-1.887-.379,3.166,3.166,0,0,1-1.293-1.039,2.414,2.414,0,0,1-.469-1.426h2.141a1.179,1.179,0,0,0,.445.922,1.766,1.766,0,0,0,1.109.32,1.635,1.635,0,0,0,.98-.246A.766.766,0,0,0,68.68-2.336Zm3.3-1.969a5.013,5.013,0,0,1,.484-2.242A3.546,3.546,0,0,1,73.855-8.07a4.069,4.069,0,0,1,2.113-.539,3.849,3.849,0,0,1,2.793,1.047,4.2,4.2,0,0,1,1.207,2.844l.016.578A4.418,4.418,0,0,1,78.9-1.02,3.775,3.775,0,0,1,75.984.156a3.793,3.793,0,0,1-2.918-1.172A4.5,4.5,0,0,1,71.977-4.2Zm2.258.16A3.16,3.16,0,0,0,74.688-2.3a1.5,1.5,0,0,0,1.3.638,1.5,1.5,0,0,0,1.281-.63,3.457,3.457,0,0,0,.461-2.015,3.128,3.128,0,0,0-.461-1.831,1.5,1.5,0,0,0-1.3-.649,1.474,1.474,0,0,0-1.281.646A3.516,3.516,0,0,0,74.234-4.144ZM83.758,0H81.492V-12h2.266Zm1.508-4.289a5.094,5.094,0,0,1,.887-3.148,2.877,2.877,0,0,1,2.426-1.172,2.589,2.589,0,0,1,2.039.922V-12h2.266V0H90.844l-.109-.9A2.657,2.657,0,0,1,88.563.156,2.869,2.869,0,0,1,86.168-1.02,5.258,5.258,0,0,1,85.266-4.289Zm2.258.168A3.337,3.337,0,0,0,87.938-2.3a1.349,1.349,0,0,0,1.2.634,1.511,1.511,0,0,0,1.477-.884V-5.889a1.489,1.489,0,0,0-1.461-.884Q87.523-6.773,87.523-4.121ZM99.531,0A2.507,2.507,0,0,1,99.3-.758a2.732,2.732,0,0,1-2.133.914,3,3,0,0,1-2.059-.719A2.312,2.312,0,0,1,94.3-2.375a2.389,2.389,0,0,1,1-2.062,4.915,4.915,0,0,1,2.879-.727h1.039v-.484a1.393,1.393,0,0,0-.3-.937,1.183,1.183,0,0,0-.949-.352,1.345,1.345,0,0,0-.895.273.929.929,0,0,0-.324.75H94.484a2.268,2.268,0,0,1,.453-1.359,3,3,0,0,1,1.281-.98,4.669,4.669,0,0,1,1.859-.355,3.689,3.689,0,0,1,2.48.785,2.747,2.747,0,0,1,.918,2.207v3.664a4.041,4.041,0,0,0,.336,1.82V0ZM97.664-1.57a1.945,1.945,0,0,0,.922-.223,1.462,1.462,0,0,0,.625-.6V-3.844h-.844q-1.7,0-1.8,1.172l-.008.133a.9.9,0,0,0,.3.7A1.153,1.153,0,0,0,97.664-1.57Zm5.2-2.719a5.094,5.094,0,0,1,.887-3.148,2.877,2.877,0,0,1,2.426-1.172,2.589,2.589,0,0,1,2.039.922V-12h2.266V0h-2.039l-.109-.9A2.657,2.657,0,0,1,106.156.156a2.869,2.869,0,0,1-2.395-1.176A5.258,5.258,0,0,1,102.859-4.289Zm2.258.168a3.337,3.337,0,0,0,.414,1.823,1.349,1.349,0,0,0,1.2.634,1.511,1.511,0,0,0,1.477-.884V-5.889a1.489,1.489,0,0,0-1.461-.884Q105.117-6.773,105.117-4.121ZM117.289-.859A2.831,2.831,0,0,1,114.977.156,2.67,2.67,0,0,1,112.9-.625a3.335,3.335,0,0,1-.73-2.289V-8.453h2.258v5.467q0,1.322,1.2,1.322a1.63,1.63,0,0,0,1.578-.8V-8.453h2.266V0h-2.125Zm8.641-5.477a6.134,6.134,0,0,0-.812-.062,1.654,1.654,0,0,0-1.68.867V0H121.18V-8.453h2.133l.063,1.008a2.092,2.092,0,0,1,1.883-1.164,2.366,2.366,0,0,1,.7.1ZM131.68,0a2.507,2.507,0,0,1-.227-.758,2.732,2.732,0,0,1-2.133.914,3,3,0,0,1-2.059-.719,2.312,2.312,0,0,1-.816-1.812,2.389,2.389,0,0,1,1-2.062,4.915,4.915,0,0,1,2.879-.727h1.039v-.484a1.393,1.393,0,0,0-.3-.937,1.183,1.183,0,0,0-.949-.352,1.345,1.345,0,0,0-.895.273.929.929,0,0,0-.324.75h-2.258a2.268,2.268,0,0,1,.453-1.359,3,3,0,0,1,1.281-.98,4.669,4.669,0,0,1,1.859-.355,3.689,3.689,0,0,1,2.48.785,2.747,2.747,0,0,1,.918,2.207v3.664a4.041,4.041,0,0,0,.336,1.82V0Zm-1.867-1.57a1.945,1.945,0,0,0,.922-.223,1.462,1.462,0,0,0,.625-.6V-3.844h-.844q-1.7,0-1.8,1.172l-.008.133a.9.9,0,0,0,.3.7A1.153,1.153,0,0,0,129.813-1.57Z" transform="translate(955 7168)" fill="#12263f"/>
      <g id="Grupo_904539" data-name="Grupo 904539" transform="translate(969.62 7148.306) rotate(-90)">
        <rect id="Rectángulo_6953-4" data-name="Rectángulo 6953" width="41.562" height="3" transform="translate(7.5 4)" fill="#00cca7"/>
        <path id="Polígono_1-4" data-name="Polígono 1" d="M5.5,0,11,12H0Z" transform="translate(0 11) rotate(-90)" fill="#00cca7"/>
      </g>
      <g id="Grupo_904540" data-name="Grupo 904540" transform="translate(404.442 7058.405) rotate(56)">
        <rect id="Rectángulo_6953-5" data-name="Rectángulo 6953" width="41.562" height="3" transform="translate(7.5 4.001)" fill="#00cca7"/>
        <path id="Polígono_1-5" data-name="Polígono 1" d="M5.5,0,11,12H0Z" transform="translate(0 11) rotate(-90)" fill="#00cca7"/>
      </g>
      <path id="Trazado_632798-8" data-name="Trazado 632798" d="M-8430.979-4612.708l17.8-53.825" transform="translate(8950 11710)" fill="none" stroke="#707070" stroke-linecap="round" stroke-width="1"/>
      <path id="Trazado_632799" data-name="Trazado 632799" d="M-8419.154-4613.8l3.624-53.874" transform="translate(8938 11711.217)" fill="none" stroke="#707070" stroke-linecap="round" stroke-width="1"/>
      <path id="Trazado_632800" data-name="Trazado 632800" d="M-8406.373-4615.876" transform="translate(8925 11713.217)" fill="none" stroke="#707070" stroke-linecap="round" stroke-width="1"/>
      <path id="Trazado_632801" data-name="Trazado 632801" d="M-8400.191-4617.1l-18.556-50.521" transform="translate(8919 11714.386)" fill="none" stroke="#707070" stroke-linecap="round" stroke-width="1"/>
      <path id="Trazado_632802" data-name="Trazado 632802" d="M-8391.153-4617.156l-27.594-50.465" transform="translate(8910 11714.513)" fill="none" stroke="#707070" stroke-linecap="round" stroke-width="1"/>
      <path id="Trazado_632803" data-name="Trazado 632803" d="M-8412.3-4614.754l-4.856-52.913" transform="translate(8931 11712.313)" fill="none" stroke="#707070" stroke-linecap="round" stroke-width="1"/>
      <g id="Grupo_904541" data-name="Grupo 904541" transform="translate(0 10)">
        <path id="Trazado_632804" data-name="Trazado 632804" d="M0,0H165V19a12,12,0,0,1-12,12H12A12,12,0,0,1,0,19Z" transform="translate(934 7055)" fill="#290240"/>
        <circle id="Elipse_6890" data-name="Elipse 6890" cx="38" cy="38" r="38" transform="translate(980 7004)" fill="url(#radial-gradient)"/>
      </g>
    </g>
    <path id="Trazado_647756" data-name="Trazado 647756" d="M202.481,15h-1.319l-5.011-7.67V15h-1.319V5.047h1.319l5.024,7.7v-7.7h1.306Zm1.8-3.767a4.369,4.369,0,0,1,.427-1.955,3.187,3.187,0,0,1,1.189-1.34,3.238,3.238,0,0,1,1.74-.472,3.119,3.119,0,0,1,2.444,1.046,4.024,4.024,0,0,1,.933,2.782v.089a4.407,4.407,0,0,1-.414,1.938,3.14,3.14,0,0,1-1.183,1.336,3.275,3.275,0,0,1-1.767.479,3.111,3.111,0,0,1-2.437-1.046,4,4,0,0,1-.933-2.769Zm1.271.15a3.164,3.164,0,0,0,.571,1.976,1.934,1.934,0,0,0,3.059-.01,3.46,3.46,0,0,0,.567-2.116,3.159,3.159,0,0,0-.578-1.972,1.836,1.836,0,0,0-1.535-.755,1.816,1.816,0,0,0-1.511.745A3.435,3.435,0,0,0,205.551,11.384Zm8.764-5.571V7.6H215.7v.978h-1.381v4.593a1.027,1.027,0,0,0,.185.667.777.777,0,0,0,.629.222,3.062,3.062,0,0,0,.6-.082V15a3.688,3.688,0,0,1-.971.136,1.575,1.575,0,0,1-1.278-.513,2.2,2.2,0,0,1-.431-1.456V8.581H211.7V7.6h1.347V5.813ZM221.738,15a2.657,2.657,0,0,1-.178-.779,2.822,2.822,0,0,1-2.105.916,2.611,2.611,0,0,1-1.794-.619,2,2,0,0,1-.7-1.569,2.091,2.091,0,0,1,.878-1.794,4.142,4.142,0,0,1,2.471-.639h1.23V9.935a1.42,1.42,0,0,0-.4-1.056,1.593,1.593,0,0,0-1.169-.393,1.844,1.844,0,0,0-1.135.342,1.007,1.007,0,0,0-.458.827H217.11a1.745,1.745,0,0,1,.393-1.07,2.683,2.683,0,0,1,1.066-.817,3.588,3.588,0,0,1,1.48-.3,2.924,2.924,0,0,1,2,.639,2.306,2.306,0,0,1,.752,1.76v3.4a4.162,4.162,0,0,0,.26,1.62V15Zm-2.1-.964a2.223,2.223,0,0,0,1.128-.308,1.861,1.861,0,0,0,.772-.8V11.411h-.991q-2.324,0-2.324,1.36a1.151,1.151,0,0,0,.4.93A1.524,1.524,0,0,0,219.64,14.036Zm5.175.3a.792.792,0,0,1,.195-.547.742.742,0,0,1,.584-.219.765.765,0,0,1,.591.219.776.776,0,0,1,.2.547.734.734,0,0,1-.2.526.778.778,0,0,1-.591.212.7.7,0,0,1-.779-.738ZM237.632,12.4h-4.17l-.937,2.6h-1.354l3.8-9.953h1.148L239.929,15h-1.347Zm-3.773-1.073h3.384l-1.7-4.655Zm6.9-.082a4.333,4.333,0,0,1,.807-2.738,2.745,2.745,0,0,1,4.17-.147V4.5H247V15h-1.162l-.062-.793a2.575,2.575,0,0,1-2.112.93,2.526,2.526,0,0,1-2.1-1.053,4.382,4.382,0,0,1-.81-2.748Zm1.265.144a3.281,3.281,0,0,0,.52,1.969,1.68,1.68,0,0,0,1.436.711,1.845,1.845,0,0,0,1.757-1.08v-3.4A1.859,1.859,0,0,0,244,8.54a1.687,1.687,0,0,0-1.449.718A3.612,3.612,0,0,0,242.027,11.384ZM253.532,15a2.657,2.657,0,0,1-.178-.779,2.822,2.822,0,0,1-2.105.916,2.611,2.611,0,0,1-1.794-.619,2,2,0,0,1-.7-1.569,2.091,2.091,0,0,1,.878-1.794,4.142,4.142,0,0,1,2.471-.639h1.23V9.935a1.42,1.42,0,0,0-.4-1.056,1.593,1.593,0,0,0-1.169-.393,1.844,1.844,0,0,0-1.135.342,1.007,1.007,0,0,0-.458.827H248.9a1.745,1.745,0,0,1,.393-1.07,2.683,2.683,0,0,1,1.066-.817,3.588,3.588,0,0,1,1.48-.3,2.924,2.924,0,0,1,2,.639,2.306,2.306,0,0,1,.752,1.76v3.4a4.162,4.162,0,0,0,.26,1.62V15Zm-2.1-.964a2.223,2.223,0,0,0,1.128-.308,1.861,1.861,0,0,0,.772-.8V11.411h-.991q-2.324,0-2.324,1.36a1.151,1.151,0,0,0,.4.93A1.524,1.524,0,0,0,251.434,14.036Zm11.4-2.652a4.429,4.429,0,0,1-.772,2.721,2.476,2.476,0,0,1-2.092,1.032,2.713,2.713,0,0,1-2.119-.854v3.562h-1.265V7.6h1.155l.062.82a2.605,2.605,0,0,1,2.146-.957,2.522,2.522,0,0,1,2.109,1,4.477,4.477,0,0,1,.776,2.8Zm-1.265-.144a3.268,3.268,0,0,0-.533-1.976,1.718,1.718,0,0,0-1.463-.725,1.859,1.859,0,0,0-1.723,1.019v3.534a1.863,1.863,0,0,0,1.736,1.012,1.71,1.71,0,0,0,1.446-.721A3.567,3.567,0,0,0,261.564,11.24Zm4.587-5.428V7.6h1.381v.978h-1.381v4.593a1.027,1.027,0,0,0,.185.667.777.777,0,0,0,.629.222,3.062,3.062,0,0,0,.6-.082V15a3.688,3.688,0,0,1-.971.136,1.575,1.575,0,0,1-1.278-.513,2.2,2.2,0,0,1-.431-1.456V8.581H263.54V7.6h1.347V5.813ZM273.575,15a2.657,2.657,0,0,1-.178-.779,2.822,2.822,0,0,1-2.105.916,2.611,2.611,0,0,1-1.794-.619,2,2,0,0,1-.7-1.569,2.091,2.091,0,0,1,.878-1.794,4.141,4.141,0,0,1,2.471-.639h1.23V9.935a1.42,1.42,0,0,0-.4-1.056,1.593,1.593,0,0,0-1.169-.393,1.844,1.844,0,0,0-1.135.342,1.007,1.007,0,0,0-.458.827h-1.271a1.745,1.745,0,0,1,.393-1.07,2.683,2.683,0,0,1,1.066-.817,3.588,3.588,0,0,1,1.48-.3,2.924,2.924,0,0,1,2,.639,2.306,2.306,0,0,1,.752,1.76v3.4a4.162,4.162,0,0,0,.26,1.62V15Zm-2.1-.964a2.223,2.223,0,0,0,1.128-.308,1.861,1.861,0,0,0,.772-.8V11.411h-.991q-2.324,0-2.324,1.36a1.151,1.151,0,0,0,.4.93A1.524,1.524,0,0,0,271.477,14.036Zm4.84-2.8a4.333,4.333,0,0,1,.807-2.738,2.745,2.745,0,0,1,4.17-.147V4.5h1.265V15H281.4l-.062-.793a2.575,2.575,0,0,1-2.112.93,2.526,2.526,0,0,1-2.1-1.053,4.382,4.382,0,0,1-.81-2.748Zm1.265.144a3.281,3.281,0,0,0,.52,1.969,1.68,1.68,0,0,0,1.436.711,1.845,1.845,0,0,0,1.757-1.08v-3.4A1.859,1.859,0,0,0,279.55,8.54a1.687,1.687,0,0,0-1.449.718A3.612,3.612,0,0,0,277.581,11.384ZM289.086,15a2.657,2.657,0,0,1-.178-.779,2.822,2.822,0,0,1-2.105.916,2.611,2.611,0,0,1-1.794-.619,2,2,0,0,1-.7-1.569,2.091,2.091,0,0,1,.878-1.794,4.141,4.141,0,0,1,2.471-.639h1.23V9.935a1.42,1.42,0,0,0-.4-1.056,1.593,1.593,0,0,0-1.169-.393,1.844,1.844,0,0,0-1.135.342,1.007,1.007,0,0,0-.458.827h-1.271a1.745,1.745,0,0,1,.393-1.07,2.683,2.683,0,0,1,1.066-.817,3.588,3.588,0,0,1,1.48-.3,2.924,2.924,0,0,1,2,.639,2.306,2.306,0,0,1,.752,1.76v3.4a4.162,4.162,0,0,0,.26,1.62V15Zm-2.1-.964a2.223,2.223,0,0,0,1.128-.308,1.861,1.861,0,0,0,.772-.8V11.411H287.9q-2.324,0-2.324,1.36a1.151,1.151,0,0,0,.4.93A1.524,1.524,0,0,0,286.987,14.036Zm8.306-2.8A4.333,4.333,0,0,1,296.1,8.5a2.745,2.745,0,0,1,4.17-.147V4.5h1.265V15h-1.162l-.062-.793a2.575,2.575,0,0,1-2.112.93,2.526,2.526,0,0,1-2.1-1.053,4.382,4.382,0,0,1-.81-2.748Zm1.265.144a3.281,3.281,0,0,0,.52,1.969,1.68,1.68,0,0,0,1.436.711,1.845,1.845,0,0,0,1.757-1.08v-3.4a1.859,1.859,0,0,0-1.743-1.046,1.687,1.687,0,0,0-1.449.718A3.612,3.612,0,0,0,296.558,11.384Zm10.008,3.753a3.232,3.232,0,0,1-2.447-.988,3.666,3.666,0,0,1-.943-2.642v-.232a4.438,4.438,0,0,1,.42-1.965,3.28,3.28,0,0,1,1.176-1.354,2.956,2.956,0,0,1,1.637-.489,2.77,2.77,0,0,1,2.242.95,4.114,4.114,0,0,1,.8,2.721v.526h-5.011a2.629,2.629,0,0,0,.639,1.767,2.009,2.009,0,0,0,1.555.673,2.2,2.2,0,0,0,1.135-.273,2.851,2.851,0,0,0,.813-.725l.772.6A3.106,3.106,0,0,1,306.565,15.137Zm-.157-6.631a1.687,1.687,0,0,0-1.285.557,2.708,2.708,0,0,0-.643,1.562h3.705v-.1a2.409,2.409,0,0,0-.52-1.494A1.588,1.588,0,0,0,306.408,8.506Zm9.481,2.6V15h-1.312V5.047h3.671a3.688,3.688,0,0,1,2.56.834,2.827,2.827,0,0,1,.926,2.208,2.79,2.79,0,0,1-.906,2.232,3.853,3.853,0,0,1-2.594.783Zm0-1.073h2.358a2.358,2.358,0,0,0,1.613-.5,1.815,1.815,0,0,0,.561-1.435,1.876,1.876,0,0,0-.561-1.424,2.209,2.209,0,0,0-1.538-.555H315.89Zm14.841,1.812a3.662,3.662,0,0,1-1.166,2.437,3.82,3.82,0,0,1-2.608.858,3.507,3.507,0,0,1-2.827-1.265,5.088,5.088,0,0,1-1.063-3.384V9.531a5.671,5.671,0,0,1,.5-2.44,3.7,3.7,0,0,1,1.4-1.617,3.911,3.911,0,0,1,2.105-.564,3.6,3.6,0,0,1,2.543.885,3.706,3.706,0,0,1,1.114,2.451h-1.319a2.86,2.86,0,0,0-.742-1.728,2.244,2.244,0,0,0-1.6-.535,2.348,2.348,0,0,0-1.972.93,4.272,4.272,0,0,0-.714,2.648v.965a4.391,4.391,0,0,0,.677,2.579,2.187,2.187,0,0,0,1.894.958,2.526,2.526,0,0,0,1.678-.5,2.75,2.75,0,0,0,.776-1.726ZM332.521,15V5.047h3.254a3.777,3.777,0,0,1,2.437.67,2.415,2.415,0,0,1,.817,1.982,2.022,2.022,0,0,1-.4,1.234,2.57,2.57,0,0,1-1.08.831,2.308,2.308,0,0,1,1.275.858,2.462,2.462,0,0,1,.468,1.507,2.662,2.662,0,0,1-.868,2.105,3.59,3.59,0,0,1-2.454.766Zm1.313-4.655v3.582H336a2.087,2.087,0,0,0,1.446-.475,1.669,1.669,0,0,0,.53-1.309q0-1.8-1.955-1.8Zm0-1.053h1.982a2.078,2.078,0,0,0,1.377-.432,1.447,1.447,0,0,0,.516-1.171,1.423,1.423,0,0,0-.479-1.2,2.35,2.35,0,0,0-1.456-.373h-1.941Zm6.9,1.948a4.347,4.347,0,0,1,.8-2.751,2.757,2.757,0,0,1,4.231-.065l.062-.82h1.155v7.219a3.009,3.009,0,0,1-.851,2.263,3.141,3.141,0,0,1-2.287.827,3.8,3.8,0,0,1-1.565-.342,2.7,2.7,0,0,1-1.169-.937l.656-.759a2.473,2.473,0,0,0,1.989,1,1.938,1.938,0,0,0,1.439-.52,1.986,1.986,0,0,0,.516-1.463v-.636a2.6,2.6,0,0,1-2.071.875,2.527,2.527,0,0,1-2.1-1.046A4.571,4.571,0,0,1,340.738,11.24Zm1.271.144a3.316,3.316,0,0,0,.513,1.965,1.666,1.666,0,0,0,1.436.714,1.852,1.852,0,0,0,1.757-1.087V9.6a1.874,1.874,0,0,0-1.743-1.06,1.681,1.681,0,0,0-1.442.718A3.612,3.612,0,0,0,342.01,11.384Zm6.549-.15a4.369,4.369,0,0,1,.427-1.955,3.187,3.187,0,0,1,1.189-1.34,3.238,3.238,0,0,1,1.74-.472,3.119,3.119,0,0,1,2.444,1.046,4.024,4.024,0,0,1,.933,2.782v.089a4.407,4.407,0,0,1-.414,1.938,3.14,3.14,0,0,1-1.183,1.336,3.275,3.275,0,0,1-1.767.479,3.111,3.111,0,0,1-2.437-1.046,4,4,0,0,1-.933-2.769Zm1.271.15a3.164,3.164,0,0,0,.571,1.976,1.934,1.934,0,0,0,3.059-.01,3.46,3.46,0,0,0,.567-2.116,3.159,3.159,0,0,0-.578-1.972,1.836,1.836,0,0,0-1.535-.755,1.816,1.816,0,0,0-1.511.745A3.435,3.435,0,0,0,349.83,11.384Zm6.747-.144a4.347,4.347,0,0,1,.8-2.751,2.757,2.757,0,0,1,4.231-.065l.062-.82h1.155v7.219a3.009,3.009,0,0,1-.851,2.263,3.141,3.141,0,0,1-2.287.827,3.8,3.8,0,0,1-1.565-.342,2.7,2.7,0,0,1-1.169-.937l.656-.759a2.473,2.473,0,0,0,1.989,1,1.938,1.938,0,0,0,1.439-.52,1.986,1.986,0,0,0,.516-1.463v-.636a2.6,2.6,0,0,1-2.071.875,2.527,2.527,0,0,1-2.1-1.046A4.571,4.571,0,0,1,356.577,11.24Zm1.271.144a3.316,3.316,0,0,0,.513,1.965,1.666,1.666,0,0,0,1.436.714,1.852,1.852,0,0,0,1.757-1.087V9.6a1.874,1.874,0,0,0-1.743-1.06,1.681,1.681,0,0,0-1.442.718A3.612,3.612,0,0,0,357.849,11.384Zm6.549-.15a4.369,4.369,0,0,1,.427-1.955,3.187,3.187,0,0,1,1.189-1.34,3.238,3.238,0,0,1,1.74-.472A3.119,3.119,0,0,1,370.2,8.513a4.024,4.024,0,0,1,.933,2.782v.089a4.407,4.407,0,0,1-.414,1.938,3.14,3.14,0,0,1-1.183,1.336,3.275,3.275,0,0,1-1.767.479,3.111,3.111,0,0,1-2.437-1.046,4,4,0,0,1-.933-2.769Zm1.271.15a3.164,3.164,0,0,0,.571,1.976,1.934,1.934,0,0,0,3.059-.01,3.46,3.46,0,0,0,.567-2.116,3.159,3.159,0,0,0-.578-1.972,1.836,1.836,0,0,0-1.535-.755,1.816,1.816,0,0,0-1.511.745A3.435,3.435,0,0,0,365.669,11.384Zm10.466-.424a10.568,10.568,0,0,1,.414-2.967,8.619,8.619,0,0,1,1.234-2.584,5.249,5.249,0,0,1,1.7-1.641l.26.834a5.444,5.444,0,0,0-1.637,2.338,10.135,10.135,0,0,0-.7,3.521l-.007.581a10.188,10.188,0,0,0,.964,4.58,5.47,5.47,0,0,0,1.381,1.818l-.26.772a5.418,5.418,0,0,1-1.736-1.7A9.5,9.5,0,0,1,376.135,10.96ZM387.359,15h-6.521v-.909l3.445-3.828a8.186,8.186,0,0,0,1.056-1.412,2.356,2.356,0,0,0,.291-1.125,1.786,1.786,0,0,0-.472-1.278,1.649,1.649,0,0,0-1.258-.5,1.953,1.953,0,0,0-1.466.537,2.05,2.05,0,0,0-.523,1.494h-1.265a2.936,2.936,0,0,1,.885-2.222A3.282,3.282,0,0,1,383.9,4.91a3.153,3.153,0,0,1,2.194.728,2.483,2.483,0,0,1,.807,1.938q0,1.47-1.873,3.5l-2.666,2.892h5Zm7.581-4.245a5.784,5.784,0,0,1-.759,3.3,3.153,3.153,0,0,1-4.73.024,5.49,5.49,0,0,1-.793-3.155V9.237a5.655,5.655,0,0,1,.759-3.261,3.21,3.21,0,0,1,4.744-.038,5.458,5.458,0,0,1,.779,3.175Zm-1.265-1.729a4.634,4.634,0,0,0-.451-2.341,1.553,1.553,0,0,0-1.429-.735,1.532,1.532,0,0,0-1.415.731,4.525,4.525,0,0,0-.458,2.249v2.023a4.708,4.708,0,0,0,.468,2.382,1.55,1.55,0,0,0,1.418.769,1.529,1.529,0,0,0,1.391-.725,4.538,4.538,0,0,0,.475-2.283ZM400.717,15h-1.271V6.571l-2.55.937V6.359L400.519,5h.2Zm8.552-4.375a3.094,3.094,0,0,1-.947.759,2.569,2.569,0,0,1-1.207.287,2.652,2.652,0,0,1-1.5-.424,2.755,2.755,0,0,1-.988-1.193,4.067,4.067,0,0,1-.349-1.7,4.143,4.143,0,0,1,.379-1.8,2.787,2.787,0,0,1,1.077-1.224,3.07,3.07,0,0,1,1.627-.424,2.78,2.78,0,0,1,2.328,1.1,4.815,4.815,0,0,1,.851,3.011v.369a6.434,6.434,0,0,1-1.148,4.242,4.412,4.412,0,0,1-3.466,1.371h-.246V13.934h.267a3.482,3.482,0,0,0,2.406-.815A3.5,3.5,0,0,0,409.269,10.625Zm-1.948,0a1.953,1.953,0,0,0,1.172-.39,2.3,2.3,0,0,0,.783-.964V8.766a3.48,3.48,0,0,0-.54-2.023,1.651,1.651,0,0,0-2.707-.14,2.637,2.637,0,0,0-.506,1.685,2.744,2.744,0,0,0,.489,1.678A1.548,1.548,0,0,0,407.32,10.625Zm8.012.4a10.574,10.574,0,0,1-.4,2.922,8.641,8.641,0,0,1-1.224,2.581,5.361,5.361,0,0,1-1.726,1.682l-.267-.772a5.5,5.5,0,0,0,1.692-2.505,10.839,10.839,0,0,0,.653-3.77v-.219a11.253,11.253,0,0,0-.3-2.669,9.009,9.009,0,0,0-.837-2.211,5.108,5.108,0,0,0-1.207-1.524l.267-.772A5.34,5.34,0,0,1,413.7,5.437a8.66,8.66,0,0,1,1.224,2.577A10.818,10.818,0,0,1,415.332,11.028Z" transform="translate(495 7248)" fill="#12263f"/>
  </g>
</svg>
