<svg id="Grupo_904647" data-name="Grupo 904647" xmlns="http://www.w3.org/2000/svg" xmlns:xlink="http://www.w3.org/1999/xlink" width="589" height="124" viewBox="0 0 589 124">
  <defs>
    <clipPath id="clip-path">
      <rect id="Rectángulo_337955" data-name="Rectángulo 337955" width="162.258" height="82.579" fill="none"/>
    </clipPath>
    <clipPath id="clip-path-2">
      <rect id="Rectángulo_337954" data-name="Rectángulo 337954" width="162.257" height="82.58" fill="none"/>
    </clipPath>
    <clipPath id="clip-path-3">
      <rect id="Rectángulo_337949" data-name="Rectángulo 337949" width="22.302" height="16.072" fill="none"/>
    </clipPath>
    <clipPath id="clip-path-4">
      <rect id="Rectángulo_337950" data-name="Rectángulo 337950" width="29.479" height="16.072" fill="none"/>
    </clipPath>
    <clipPath id="clip-path-5">
      <rect id="Rectángulo_337952" data-name="Rectángulo 337952" width="25.835" height="16.072" fill="none"/>
    </clipPath>
    <clipPath id="clip-path-6">
      <rect id="Rectángulo_337967" data-name="Rectángulo 337967" width="162.259" height="47.662" fill="none"/>
    </clipPath>
    <clipPath id="clip-path-7">
      <rect id="Rectángulo_337966" data-name="Rectángulo 337966" width="162.258" height="47.663" fill="none"/>
    </clipPath>
    <clipPath id="clip-path-8">
      <path id="Trazado_632850" data-name="Trazado 632850" d="M0,0H22.3V5.184L0,5.646Z" fill="none"/>
    </clipPath>
    <clipPath id="clip-path-9">
      <rect id="Rectángulo_337960" data-name="Rectángulo 337960" width="29.479" height="9.276" fill="none"/>
    </clipPath>
    <clipPath id="clip-path-10">
      <path id="Trazado_632849" data-name="Trazado 632849" d="M0,0H10.659V5.578L0,6.456Z" fill="none"/>
    </clipPath>
    <clipPath id="clip-path-11">
      <path id="Trazado_632845" data-name="Trazado 632845" d="M0,0H25.833V9.276L0,6.817Z" fill="none"/>
    </clipPath>
    <clipPath id="clip-path-12">
      <path id="Trazado_632846" data-name="Trazado 632846" d="M0,0H25.479V6.9L0,5.141Z" fill="none"/>
    </clipPath>
  </defs>
  <rect id="Rectángulo_337968" data-name="Rectángulo 337968" width="589" height="124" rx="10" fill="#fff"/>
  <g id="Grupo_904646" data-name="Grupo 904646" transform="translate(115.001 20.693)">
    <g id="Grupo_904626" data-name="Grupo 904626">
      <g id="Grupo_904625" data-name="Grupo 904625" clip-path="url(#clip-path)">
        <g id="Grupo_904624" data-name="Grupo 904624" transform="translate(0 -0.001)">
          <g id="Grupo_904623" data-name="Grupo 904623" clip-path="url(#clip-path-2)">
            <path id="Trazado_632834" data-name="Trazado 632834" d="M162.257,28.942V68.119h-4V28.942A12.675,12.675,0,0,0,145.6,16.281H16.656A12.675,12.675,0,0,0,4,28.942V68.119H0V28.942A16.672,16.672,0,0,1,16.656,12.286H145.6a16.672,16.672,0,0,1,16.656,16.656" transform="translate(0 14.461)" fill="#d6d9ed"/>
            <path id="Trazado_632835" data-name="Trazado 632835" d="M157.772,27.37V66.547h-1.086V27.37a12.673,12.673,0,0,0-12.657-12.661H15.081A12.673,12.673,0,0,0,2.424,27.37V66.547H1.338V27.37A13.761,13.761,0,0,1,15.081,13.622H144.029A13.761,13.761,0,0,1,157.772,27.37" transform="translate(1.575 16.034)" fill="#9caed1"/>
            <path id="Trazado_632836" data-name="Trazado 632836" d="M125.54,7.232V50.256a7.23,7.23,0,0,1-7.23,7.23H19.018a7.23,7.23,0,0,1-7.23-7.23V7.232A7.232,7.232,0,0,1,19.018,0H118.31a7.232,7.232,0,0,1,7.23,7.232" transform="translate(13.874 0.001)" fill="#267d20"/>
            <rect id="Rectángulo_337946" data-name="Rectángulo 337946" width="10.659" height="57.486" transform="translate(55.143 0.002)" fill="#27985f"/>
            <rect id="Rectángulo_337947" data-name="Rectángulo 337947" width="25.477" height="57.486" transform="translate(88.103 0.002)" fill="#27985f"/>
            <g id="Grupo_904616" data-name="Grupo 904616" transform="translate(65.801 41.415)" opacity="0.32">
              <g id="Grupo_904615" data-name="Grupo 904615">
                <g id="Grupo_904614" data-name="Grupo 904614" clip-path="url(#clip-path-3)">
                  <rect id="Rectángulo_337948" data-name="Rectángulo 337948" width="22.303" height="16.073" transform="translate(-0.001 0)" fill="#496a59"/>
                </g>
              </g>
            </g>
            <g id="Grupo_904619" data-name="Grupo 904619" transform="translate(25.664 41.415)" opacity="0.32">
              <g id="Grupo_904618" data-name="Grupo 904618">
                <g id="Grupo_904617" data-name="Grupo 904617" clip-path="url(#clip-path-4)">
                  <path id="Trazado_632837" data-name="Trazado 632837" d="M41.268,19.023V35.1H19.019a7.232,7.232,0,0,1-7.23-7.232V19.023Z" transform="translate(-11.788 -19.024)" fill="#496a59"/>
                </g>
              </g>
            </g>
            <rect id="Rectángulo_337951" data-name="Rectángulo 337951" width="10.659" height="16.073" transform="translate(55.143 41.415)" fill="#1a8a51"/>
            <g id="Grupo_904622" data-name="Grupo 904622" transform="translate(113.581 41.415)" opacity="0.32">
              <g id="Grupo_904621" data-name="Grupo 904621">
                <g id="Grupo_904620" data-name="Grupo 904620" clip-path="url(#clip-path-5)">
                  <path id="Trazado_632838" data-name="Trazado 632838" d="M78.007,19.023v8.841a7.232,7.232,0,0,1-7.23,7.232h-18.6V19.023Z" transform="translate(-52.174 -19.024)" fill="#496a59"/>
                </g>
              </g>
            </g>
            <rect id="Rectángulo_337953" data-name="Rectángulo 337953" width="25.477" height="16.073" transform="translate(88.103 41.415)" fill="#1a8a51"/>
          </g>
        </g>
      </g>
    </g>
    <g id="Grupo_904645" data-name="Grupo 904645" transform="translate(197 34.917)">
      <g id="Grupo_904644" data-name="Grupo 904644" clip-path="url(#clip-path-6)">
        <g id="Grupo_904643" data-name="Grupo 904643" transform="translate(0 0)">
          <g id="Grupo_904642" data-name="Grupo 904642" clip-path="url(#clip-path-7)">
            <path id="Trazado_632839" data-name="Trazado 632839" d="M162.258,21.9V44.511h-4V21.9c0-4.03-5.678-7.308-12.657-7.308H16.654C9.677,14.592,4,17.87,4,21.9V44.511H0V21.9c0-5.3,7.469-9.613,16.654-9.613H145.6c9.185,0,16.654,4.311,16.654,9.613" transform="translate(0 3.152)" fill="#d6d9ed"/>
            <path id="Trazado_632840" data-name="Trazado 632840" d="M157.77,21.557V44.169h-1.084V21.557c0-4.03-5.678-7.308-12.657-7.308H15.079c-6.977,0-12.655,3.278-12.655,7.308V44.169H1.338V21.557c0-4.375,6.165-7.935,13.741-7.935h128.95c7.578,0,13.741,3.56,13.741,7.935" transform="translate(1.575 3.494)" fill="#9caed1"/>
            <path id="Trazado_632841" data-name="Trazado 632841" d="M125.539,4.174V29.006c0,2.3-3.235,4.173-7.228,4.173,0,0-25.527-4.173-50.351-4.173a327.553,327.553,0,0,0-48.944,4.173c-3.993,0-7.228-1.868-7.228-4.173V4.174C11.789,1.87,15.024,0,19.017,0c0,0,24.121,7.12,48.944,7.12S118.312,0,118.312,0c3.993,0,7.228,1.87,7.228,4.174" transform="translate(13.876 0)" fill="#566684"/>
            <path id="Trazado_632848" data-name="Trazado 632848" d="M0,5.056l10.659,1.2V29.48L0,30.038Z" transform="translate(55.143 0.001)" fill="#404c63"/>
            <path id="Trazado_632847" data-name="Trazado 632847" d="M.727,7.211,25.48,4.178v26.46L0,29.122Z" transform="translate(88.103 0.001)" fill="#404c63"/>
            <g id="Grupo_904629" data-name="Grupo 904629" transform="translate(65.801 23.903)" opacity="0.5">
              <g id="Grupo_904628" data-name="Grupo 904628">
                <g id="Enmascarar_grupo_902219" data-name="Enmascarar grupo 902219" clip-path="url(#clip-path-8)">
                  <path id="Trazado_632844" data-name="Trazado 632844" d="M0,0H22.3V5.14H0Z" transform="translate(-0.001 0)" fill="#404c63"/>
                </g>
              </g>
            </g>
            <g id="Grupo_904632" data-name="Grupo 904632" transform="translate(25.664 23.903)" opacity="0.5">
              <g id="Grupo_904631" data-name="Grupo 904631">
                <g id="Grupo_904630" data-name="Grupo 904630" clip-path="url(#clip-path-9)">
                  <path id="Trazado_632842" data-name="Trazado 632842" d="M41.268,19.023l-.54,6.2L19.019,28.3c-3.993,0-7.23-1.87-7.23-4.174v-5.1Z" transform="translate(-11.788 -19.024)" fill="#404c63"/>
                </g>
              </g>
            </g>
            <g id="Grupo_904635" data-name="Grupo 904635" transform="translate(55.142 23.903)" opacity="0.5">
              <g id="Grupo_904634" data-name="Grupo 904634">
                <g id="Enmascarar_grupo_902218" data-name="Enmascarar grupo 902218" clip-path="url(#clip-path-10)">
                  <rect id="Rectángulo_337961" data-name="Rectángulo 337961" width="10.659" height="9.277" transform="translate(0.001 0)" fill="#30394a"/>
                </g>
              </g>
            </g>
            <g id="Grupo_904638" data-name="Grupo 904638" transform="translate(113.582 23.903)" opacity="0.5">
              <g id="Grupo_904637" data-name="Grupo 904637">
                <g id="Enmascarar_grupo_902216" data-name="Enmascarar grupo 902216" clip-path="url(#clip-path-11)">
                  <path id="Trazado_632843" data-name="Trazado 632843" d="M78.006,19.023v5.1c0,2.3-3.235,4.174-7.228,4.174h-18.6V19.023Z" transform="translate(-52.174 -19.024)" fill="#404c63"/>
                </g>
              </g>
            </g>
            <g id="Grupo_904641" data-name="Grupo 904641" transform="translate(88.103 23.903)" opacity="0.5">
              <g id="Grupo_904640" data-name="Grupo 904640">
                <g id="Enmascarar_grupo_902217" data-name="Enmascarar grupo 902217" clip-path="url(#clip-path-12)">
                  <rect id="Rectángulo_337964" data-name="Rectángulo 337964" width="25.48" height="9.277" transform="translate(0 0)" fill="#30394a"/>
                </g>
              </g>
            </g>
          </g>
        </g>
      </g>
    </g>
  </g>
  <rect id="Rectángulo_337975" data-name="Rectángulo 337975" width="399" height="6" transform="translate(94 103)" fill="#13693e"/>
</svg>
