<svg xmlns="http://www.w3.org/2000/svg" xmlns:xlink="http://www.w3.org/1999/xlink" width="821" height="470" viewBox="0 0 821 470">
  <defs>
    <linearGradient id="linear-gradient" x1="0.136" y1="0.034" x2="1.233" y2="1.562" gradientUnits="objectBoundingBox">
      <stop offset="0" stop-color="#3c0061"/>
      <stop offset="1" stop-color="#b3009d"/>
    </linearGradient>
    <filter id="Trazado_621386" x="99" y="0" width="624.719" height="68.784" filterUnits="userSpaceOnUse">
      <feOffset dy="3" input="SourceAlpha"/>
      <feGaussianBlur stdDeviation="3" result="blur"/>
      <feFlood flood-opacity="0.161"/>
      <feComposite operator="in" in2="blur"/>
      <feComposite in="SourceGraphic"/>
    </filter>
  </defs>
  <g id="Grupo_924757" data-name="Grupo 924757" transform="translate(-389 -5144)">
    <rect id="Rectángulo_337881" data-name="Rectángulo 337881" width="821" height="464" rx="20" transform="translate(389 5150)" fill="url(#linear-gradient)"/>
    <g id="Grupo_904500" data-name="Grupo 904500" transform="translate(-2 13)">
      <g id="Grupo_904502" data-name="Grupo 904502" transform="translate(812.863 5432.5)">
        <rect id="Rectángulo_6953" data-name="Rectángulo 6953" width="79.896" height="3" transform="translate(0 4)" fill="#00cca7"/>
        <path id="Polígono_1" data-name="Polígono 1" d="M5.5,0,11,12H0Z" transform="translate(87.396) rotate(90)" fill="#00cca7"/>
      </g>
      <g id="Grupo_904511" data-name="Grupo 904511" transform="translate(548.604 5432.5)">
        <rect id="Rectángulo_6953-2" data-name="Rectángulo 6953" width="79.896" height="3" transform="translate(7.5 4)" fill="#00cca7"/>
        <path id="Polígono_1-2" data-name="Polígono 1" d="M5.5,0,11,12H0Z" transform="translate(0 11) rotate(-90)" fill="#00cca7"/>
      </g>
      <g id="Grupo_904503" data-name="Grupo 904503" transform="translate(812.863 5523.5)">
        <rect id="Rectángulo_6953-3" data-name="Rectángulo 6953" width="205.895" height="3" transform="translate(0 4)" fill="#00cca7"/>
        <path id="Polígono_1-3" data-name="Polígono 1" d="M5.5,0,11,12H0Z" transform="translate(213.395) rotate(90)" fill="#00cca7"/>
      </g>
      <g id="Grupo_904504" data-name="Grupo 904504" transform="translate(431.113 5281) rotate(90)">
        <rect id="Rectángulo_6953-4" data-name="Rectángulo 6953" width="77.376" height="3" transform="translate(7.5 4)" fill="#00cca7"/>
        <path id="Polígono_1-4" data-name="Polígono 1" d="M5.5,0,11,12H0Z" transform="translate(0 11) rotate(-90)" fill="#00cca7"/>
      </g>
      <g id="Grupo_904506" data-name="Grupo 904506">
        <circle id="Elipse_6886" data-name="Elipse 6886" cx="7" cy="7" r="7" transform="translate(638 5251)" fill="#00cca7"/>
        <g id="Grupo_904505" data-name="Grupo 904505" transform="translate(639.5 5326.876) rotate(-90)">
          <rect id="Rectángulo_6953-5" data-name="Rectángulo 6953" width="59.936" height="3" transform="translate(7.5 4)" fill="#00cca7"/>
          <path id="Polígono_1-5" data-name="Polígono 1" d="M5.5,0,11,12H0Z" transform="translate(0 11) rotate(-90)" fill="#00cca7"/>
        </g>
      </g>
      <g id="Grupo_904508" data-name="Grupo 904508" transform="translate(262.258 -13)">
        <circle id="Elipse_6886-2" data-name="Elipse 6886" cx="7" cy="7" r="7" transform="translate(638 5239)" fill="#00cca7"/>
        <g id="Grupo_904505-2" data-name="Grupo 904505" transform="translate(639.5 5326.876) rotate(-90)">
          <rect id="Rectángulo_6953-6" data-name="Rectángulo 6953" width="70.04" height="3" transform="translate(7.5 4)" fill="#00cca7"/>
          <path id="Polígono_1-6" data-name="Polígono 1" d="M5.5,0,11,12H0Z" transform="translate(0 11) rotate(-90)" fill="#00cca7"/>
        </g>
      </g>
    </g>
    <g id="Grupo_904510" data-name="Grupo 904510" transform="translate(96 -36)">
      <rect id="Rectángulo_337882" data-name="Rectángulo 337882" width="237" height="30" rx="8" transform="translate(442 5563)" fill="#ffd947"/>
      <text id="TIME_Function_of_Speed_" data-name="TIME (Function of Speed)" transform="translate(480.875 5567.5)" fill="#12263f" font-size="16" font-family="Roboto-Bold, Roboto" font-weight="700"><tspan x="0" y="17">TIME (Function of Speed)</tspan></text>
      <g id="exclamation-mark" transform="translate(406.431 5567.938)">
        <g id="Grupo_54835" data-name="Grupo 54835" transform="translate(47.354 0.301)">
          <path id="Trazado_103159" data-name="Trazado 103159" d="M66.974,7.5H58.315a3.761,3.761,0,0,0-3.761,3.761v9.2a3.761,3.761,0,0,0,3.761,3.761h2.224a.512.512,0,0,1,.468.3l1.17,2.634a.512.512,0,0,0,.935,0l1.17-2.634a.512.512,0,0,1,.468-.3h2.224a3.761,3.761,0,0,0,3.761-3.761v-9.2A3.761,3.761,0,0,0,66.974,7.5Z" transform="translate(-54.554 -7.5)" fill="#f5f5f5"/>
        </g>
        <g id="Grupo_54836" data-name="Grupo 54836" transform="translate(54.205 3.066)">
          <path id="Trazado_103160" data-name="Trazado 103160" d="M226.863,83.293H225.9a.372.372,0,0,1-.371-.349l-.387-6.216a.372.372,0,0,1,.371-.395h1.735a.372.372,0,0,1,.371.395l-.387,6.216A.372.372,0,0,1,226.863,83.293Zm-.48,1.967a1.1,1.1,0,1,0,1.1,1.1A1.1,1.1,0,0,0,226.383,85.259Z" transform="translate(-225.144 -76.333)" fill="#b3009d"/>
        </g>
        <g id="Grupo_54837" data-name="Grupo 54837" transform="translate(58.569 0.301)">
          <path id="Trazado_103161" data-name="Trazado 103161" d="M335.011,7.5h-1.2a3.761,3.761,0,0,1,3.761,3.761v9.2a3.761,3.761,0,0,1-3.761,3.761h1.2a3.761,3.761,0,0,0,3.761-3.761v-9.2A3.761,3.761,0,0,0,335.011,7.5Z" transform="translate(-333.806 -7.5)" fill="#ebe5ed"/>
        </g>
        <g id="Grupo_54838" data-name="Grupo 54838" transform="translate(54.842 11.992)">
          <path id="Trazado_103162" data-name="Trazado 103162" d="M241.6,298.607a1.089,1.089,0,0,0-.6.181,1.095,1.095,0,0,1,0,1.829,1.1,1.1,0,1,0,.6-2.01Z" transform="translate(-241 -298.607)" fill="#e600c9"/>
        </g>
        <g id="Grupo_54839" data-name="Grupo 54839" transform="translate(54.842 3.066)">
          <path id="Trazado_103163" data-name="Trazado 103163" d="M242.47,76.333h-1.2a.372.372,0,0,1,.371.395l-.387,6.216a.371.371,0,0,1-.249.328.369.369,0,0,0,.122.021h.961a.372.372,0,0,0,.371-.349l.387-6.216A.372.372,0,0,0,242.47,76.333Z" transform="translate(-241 -76.333)" fill="#e600c9"/>
        </g>
        <g id="Grupo_54840" data-name="Grupo 54840" transform="translate(53.904 2.764)">
          <path id="Trazado_103164" data-name="Trazado 103164" d="M219.666,76.4h-.961a.674.674,0,0,1-.672-.631l-.387-6.216a.673.673,0,0,1,.672-.715h1.735a.673.673,0,0,1,.672.715l-.387,6.216A.674.674,0,0,1,219.666,76.4Zm-1.348-6.96a.071.071,0,0,0-.07.075l.387,6.216a.071.071,0,0,0,.07.066h.961a.071.071,0,0,0,.07-.066l.387-6.216a.071.071,0,0,0-.07-.075Z" transform="translate(-217.645 -68.834)" fill="#3c0061"/>
        </g>
        <g id="Grupo_54841" data-name="Grupo 54841" transform="translate(54.048 11.691)">
          <path id="Trazado_103165" data-name="Trazado 103165" d="M222.626,293.9a1.4,1.4,0,1,1,1.4-1.4A1.4,1.4,0,0,1,222.626,293.9Zm0-2.19a.794.794,0,1,0,.794.794A.795.795,0,0,0,222.626,291.708Z" transform="translate(-221.23 -291.106)" fill="#3c0061"/>
        </g>
        <g id="Grupo_54842" data-name="Grupo 54842" transform="translate(47.053)">
          <path id="Trazado_103166" data-name="Trazado 103166" d="M59.775,0H51.116a4.066,4.066,0,0,0-4.062,4.062v2.03a.3.3,0,1,0,.6,0V4.062A3.463,3.463,0,0,1,51.116.6h8.659a3.463,3.463,0,0,1,3.459,3.459V9.568a.3.3,0,1,0,.6,0V4.062A4.066,4.066,0,0,0,59.775,0Z" transform="translate(-47.054 0)" fill="#3c0061"/>
          <path id="Trazado_103167" data-name="Trazado 103167" d="M63.534,177.662a.3.3,0,0,0-.3.3v2.485a3.463,3.463,0,0,1-3.459,3.459H57.55a.813.813,0,0,0-.743.483l-1.17,2.634a.21.21,0,0,1-.385,0l-1.17-2.634a.814.814,0,0,0-.743-.483H51.115a3.463,3.463,0,0,1-3.459-3.459v-5.961a.3.3,0,0,0-.6,0v5.961a4.066,4.066,0,0,0,4.062,4.062h2.224a.211.211,0,0,1,.192.125l1.17,2.634a.813.813,0,0,0,1.486,0l1.17-2.634a.21.21,0,0,1,.192-.125h2.224a4.066,4.066,0,0,0,4.062-4.062v-2.485A.3.3,0,0,0,63.534,177.662Z" transform="translate(-47.053 -167.191)" fill="#3c0061"/>
        </g>
      </g>
    </g>
    <path id="Trazado_632771" data-name="Trazado 632771" d="M-8407.151-6437.29V-6242.6h520.273" transform="translate(8948 11676.29)" fill="none" stroke="#e0f" stroke-width="3"/>
    <g id="Grupo_904498" data-name="Grupo 904498" transform="translate(-2 13)">
      <path id="Trazado_647755" data-name="Trazado 647755" d="M5.227-4.164H3.359V0H1.016V-11.375H5.242a4.778,4.778,0,0,1,3.109.9A3.1,3.1,0,0,1,9.445-7.937,3.5,3.5,0,0,1,8.941-6,3.437,3.437,0,0,1,7.414-4.758L9.875-.109V0H7.359Zm-1.867-1.9H5.25a1.936,1.936,0,0,0,1.367-.449A1.606,1.606,0,0,0,7.1-7.75a1.719,1.719,0,0,0-.457-1.266,1.9,1.9,0,0,0-1.4-.461H3.359ZM14.969.156A4.15,4.15,0,0,1,11.941-.984a4.054,4.054,0,0,1-1.168-3.039v-.219a5.106,5.106,0,0,1,.492-2.277A3.612,3.612,0,0,1,12.66-8.066a3.914,3.914,0,0,1,2.059-.543,3.508,3.508,0,0,1,2.73,1.094,4.444,4.444,0,0,1,1,3.1v.922H13.063a2.1,2.1,0,0,0,.66,1.328,2,2,0,0,0,1.395.5,2.437,2.437,0,0,0,2.039-.945l1.109,1.242A3.389,3.389,0,0,1,16.891-.246,4.511,4.511,0,0,1,14.969.156Zm-.258-6.945a1.411,1.411,0,0,0-1.09.455,2.357,2.357,0,0,0-.535,1.3h3.141v-.181a1.681,1.681,0,0,0-.406-1.165A1.456,1.456,0,0,0,14.711-6.789Zm10.68-3.461a10.867,10.867,0,0,0-1.25-.078q-1.531,0-1.531,1.3v.57h1.68V-6.8h-1.68V0H20.344V-6.8H19.086V-8.453h1.258v-.656a2.888,2.888,0,0,1,.922-2.262,3.769,3.769,0,0,1,2.563-.793q1.18,0,3.828.25V0H25.391ZM29.18-4.3a5.013,5.013,0,0,1,.484-2.242A3.546,3.546,0,0,1,31.059-8.07a4.069,4.069,0,0,1,2.113-.539,3.849,3.849,0,0,1,2.793,1.047,4.2,4.2,0,0,1,1.207,2.844l.016.578A4.418,4.418,0,0,1,36.1-1.02,3.775,3.775,0,0,1,33.188.156,3.793,3.793,0,0,1,30.27-1.016,4.5,4.5,0,0,1,29.18-4.2Zm2.258.16A3.16,3.16,0,0,0,31.891-2.3a1.5,1.5,0,0,0,1.3.638,1.5,1.5,0,0,0,1.281-.63,3.457,3.457,0,0,0,.461-2.015,3.128,3.128,0,0,0-.461-1.831,1.5,1.5,0,0,0-1.3-.649,1.474,1.474,0,0,0-1.281.646A3.516,3.516,0,0,0,31.438-4.144ZM45.93-3.07l1.109-5.383h2.18L47.063,0H45.172l-1.6-5.32L41.969,0H40.086L37.93-8.453h2.18l1.1,5.375,1.547-5.375h1.633Z" transform="translate(447 5298)" fill="#fff"/>
      <path id="Trazado_647756" data-name="Trazado 647756" d="M7.438-2.344H3.328L2.547,0H.055L4.289-11.375H6.461L10.719,0H8.227Zm-3.477-1.9H6.8L5.375-8.5ZM15.148-1.664a1.481,1.481,0,0,0,1.016-.344,1.2,1.2,0,0,0,.406-.914h2.117a2.9,2.9,0,0,1-.469,1.574A3.093,3.093,0,0,1,16.957-.238a3.949,3.949,0,0,1-1.77.395A3.67,3.67,0,0,1,12.328-1,4.56,4.56,0,0,1,11.281-4.18v-.148A4.508,4.508,0,0,1,12.32-7.445a3.627,3.627,0,0,1,2.852-1.164,3.555,3.555,0,0,1,2.543.9,3.2,3.2,0,0,1,.973,2.4H16.57a1.551,1.551,0,0,0-.406-1.072,1.354,1.354,0,0,0-1.031-.412,1.36,1.36,0,0,0-1.191.575,3.333,3.333,0,0,0-.4,1.866v.235a3.375,3.375,0,0,0,.4,1.878A1.377,1.377,0,0,0,15.148-1.664Zm7.531-8.867v2.078h1.445V-6.8H22.68v4.219a1.007,1.007,0,0,0,.18.672.9.9,0,0,0,.688.2,3.6,3.6,0,0,0,.664-.055V-.047a4.648,4.648,0,0,1-1.367.2,2.156,2.156,0,0,1-2.422-2.4V-6.8H19.188V-8.453h1.234v-2.078ZM27.766,0H25.5V-8.453h2.266Zm-2.4-10.641a1.112,1.112,0,0,1,.34-.836,1.277,1.277,0,0,1,.926-.328,1.28,1.28,0,0,1,.922.328,1.105,1.105,0,0,1,.344.836,1.108,1.108,0,0,1-.348.844,1.283,1.283,0,0,1-.918.328,1.283,1.283,0,0,1-.918-.328A1.108,1.108,0,0,1,25.367-10.641Zm7.422,7.883,1.57-5.7h2.359L33.867,0H31.711L28.859-8.453h2.359ZM42.492,0a2.507,2.507,0,0,1-.227-.758,2.732,2.732,0,0,1-2.133.914,3,3,0,0,1-2.059-.719,2.312,2.312,0,0,1-.816-1.812,2.389,2.389,0,0,1,1-2.062,4.915,4.915,0,0,1,2.879-.727h1.039v-.484a1.393,1.393,0,0,0-.3-.937,1.183,1.183,0,0,0-.949-.352,1.345,1.345,0,0,0-.895.273.929.929,0,0,0-.324.75H37.445A2.268,2.268,0,0,1,37.9-7.273a3,3,0,0,1,1.281-.98,4.669,4.669,0,0,1,1.859-.355,3.689,3.689,0,0,1,2.48.785,2.747,2.747,0,0,1,.918,2.207v3.664a4.041,4.041,0,0,0,.336,1.82V0ZM40.625-1.57a1.945,1.945,0,0,0,.922-.223,1.462,1.462,0,0,0,.625-.6V-3.844h-.844q-1.7,0-1.8,1.172l-.008.133a.9.9,0,0,0,.3.7A1.153,1.153,0,0,0,40.625-1.57Zm8.25-8.961v2.078H50.32V-6.8H48.875v4.219a1.007,1.007,0,0,0,.18.672.9.9,0,0,0,.688.2,3.6,3.6,0,0,0,.664-.055V-.047a4.648,4.648,0,0,1-1.367.2,2.156,2.156,0,0,1-2.422-2.4V-6.8H45.383V-8.453h1.234v-2.078ZM53.961,0H51.7V-8.453h2.266Zm-2.4-10.641a1.112,1.112,0,0,1,.34-.836,1.277,1.277,0,0,1,.926-.328,1.28,1.28,0,0,1,.922.328,1.105,1.105,0,0,1,.344.836,1.108,1.108,0,0,1-.348.844,1.283,1.283,0,0,1-.918.328A1.283,1.283,0,0,1,51.91-9.8,1.108,1.108,0,0,1,51.563-10.641ZM55.469-4.3a5.013,5.013,0,0,1,.484-2.242A3.546,3.546,0,0,1,57.348-8.07a4.069,4.069,0,0,1,2.113-.539,3.849,3.849,0,0,1,2.793,1.047,4.2,4.2,0,0,1,1.207,2.844l.016.578A4.418,4.418,0,0,1,62.391-1.02,3.775,3.775,0,0,1,59.477.156a3.793,3.793,0,0,1-2.918-1.172A4.5,4.5,0,0,1,55.469-4.2Zm2.258.16A3.16,3.16,0,0,0,58.18-2.3a1.5,1.5,0,0,0,1.3.638,1.5,1.5,0,0,0,1.281-.63,3.457,3.457,0,0,0,.461-2.015,3.128,3.128,0,0,0-.461-1.831,1.5,1.5,0,0,0-1.3-.649,1.474,1.474,0,0,0-1.281.646A3.516,3.516,0,0,0,57.727-4.144Zm9.219-4.309.07.977a2.951,2.951,0,0,1,2.43-1.133,2.453,2.453,0,0,1,2,.789,3.682,3.682,0,0,1,.672,2.359V0H69.859V-5.406a1.465,1.465,0,0,0-.312-1.043,1.4,1.4,0,0,0-1.039-.324,1.553,1.553,0,0,0-1.43.813V0H64.82V-8.453Z" transform="translate(447 5339)" fill="#fff"/>
      <path id="Trazado_647757" data-name="Trazado 647757" d="M9.578-9.477H6.094V0H3.75V-9.477H.313v-1.9H9.578Zm8.18,4.547h-4.5v3.047h5.281V0H10.914V-11.375h7.609v1.9H13.258v2.711h4.5Zm5.219-6.445L25.9-3.125l2.906-8.25h3.078V0H29.531V-3.109l.234-5.367L26.7,0H25.086L22.023-8.469l.234,5.359V0H19.914V-11.375Zm13.3,7.367V0H33.93V-11.375h4.438a5.134,5.134,0,0,1,2.254.469,3.454,3.454,0,0,1,1.5,1.332,3.714,3.714,0,0,1,.523,1.965A3.266,3.266,0,0,1,41.5-4.973a4.767,4.767,0,0,1-3.168.965Zm0-1.9h2.094a2.059,2.059,0,0,0,1.418-.437,1.591,1.591,0,0,0,.488-1.25,1.876,1.876,0,0,0-.492-1.352,1.839,1.839,0,0,0-1.359-.531H36.273Z" transform="translate(432 5422) rotate(-90)" fill="#ffd947"/>
      <path id="Trazado_647758" data-name="Trazado 647758" d="M2.445-1.227H8.953V0H.672V-1.125l6.234-9.023H.773v-1.227H8.7v1.095ZM10.125-4.3a4.993,4.993,0,0,1,.488-2.234A3.643,3.643,0,0,1,11.973-8.07a3.7,3.7,0,0,1,1.988-.539,3.565,3.565,0,0,1,2.793,1.2,4.6,4.6,0,0,1,1.066,3.18v.1a5.036,5.036,0,0,1-.473,2.215A3.589,3.589,0,0,1,16-.391a3.743,3.743,0,0,1-2.02.547,3.556,3.556,0,0,1-2.785-1.2A4.575,4.575,0,0,1,10.125-4.2Zm1.453.172a3.616,3.616,0,0,0,.652,2.258,2.088,2.088,0,0,0,1.746.852,2.075,2.075,0,0,0,1.75-.863A3.955,3.955,0,0,0,16.375-4.3a3.61,3.61,0,0,0-.66-2.254,2.1,2.1,0,0,0-1.754-.863,2.075,2.075,0,0,0-1.727.852A3.925,3.925,0,0,0,11.578-4.133ZM21-8.453l.047,1.063a3.08,3.08,0,0,1,2.531-1.219q2.68,0,2.7,3.023V0H24.836V-5.594a1.946,1.946,0,0,0-.418-1.352,1.675,1.675,0,0,0-1.277-.437,2.086,2.086,0,0,0-1.234.375,2.546,2.546,0,0,0-.828.984V0H19.633V-8.453ZM33.68,0a3.036,3.036,0,0,1-.2-.891A3.225,3.225,0,0,1,31.07.156,2.984,2.984,0,0,1,29.02-.551a2.287,2.287,0,0,1-.8-1.793,2.39,2.39,0,0,1,1-2.051,4.733,4.733,0,0,1,2.824-.73h1.406v-.664A1.623,1.623,0,0,0,33-7a1.821,1.821,0,0,0-1.336-.449,2.108,2.108,0,0,0-1.3.391,1.151,1.151,0,0,0-.523.945H28.391a2,2,0,0,1,.449-1.223,3.066,3.066,0,0,1,1.219-.934,4.1,4.1,0,0,1,1.691-.344,3.342,3.342,0,0,1,2.289.73A2.635,2.635,0,0,1,34.9-5.867v3.891a4.757,4.757,0,0,0,.3,1.852V0Zm-2.4-1.1a2.54,2.54,0,0,0,1.289-.352,2.127,2.127,0,0,0,.883-.914V-4.1H32.32q-2.656,0-2.656,1.555a1.316,1.316,0,0,0,.453,1.063A1.742,1.742,0,0,0,31.281-1.1ZM45.727,0H44.273V-9.633l-2.914,1.07V-9.875L45.5-11.43h.227ZM5.492,16.4H2.82V21H1.313V9.625H5.078a4.457,4.457,0,0,1,2.957.875A3.148,3.148,0,0,1,9.07,13.047,3.062,3.062,0,0,1,8.5,14.9a3.428,3.428,0,0,1-1.6,1.18L9.57,20.906V21H7.961ZM2.82,15.172h2.3A2.6,2.6,0,0,0,6.9,14.593a1.959,1.959,0,0,0,.66-1.55,2.062,2.062,0,0,0-.629-1.62,2.663,2.663,0,0,0-1.816-.571H2.82Zm14.633,2.852H12.688L11.617,21H10.07L14.414,9.625h1.313L20.078,21H18.539ZM13.141,16.8h3.867l-1.937-5.32ZM23.547,9.625l3.719,9.281,3.719-9.281H32.93V21h-1.5V16.57l.141-4.781L27.836,21H26.688l-3.727-9.187.148,4.758V21h-1.5V9.625Zm13.531,6.922V21h-1.5V9.625h4.2a4.215,4.215,0,0,1,2.926.953A3.231,3.231,0,0,1,43.758,13.1a3.189,3.189,0,0,1-1.035,2.551,4.4,4.4,0,0,1-2.965.895Zm0-1.227h2.7a2.7,2.7,0,0,0,1.844-.567,2.075,2.075,0,0,0,.641-1.64,2.143,2.143,0,0,0-.641-1.628,2.525,2.525,0,0,0-1.758-.634H37.078Z" transform="translate(569 5468)" fill="#fff"/>
      <path id="Trazado_647759" data-name="Trazado 647759" d="M-21.949-1.227h6.508V0h-8.281V-1.125l6.234-9.023h-6.133v-1.227h7.93v1.095ZM-14.27-4.3a4.993,4.993,0,0,1,.488-2.234A3.643,3.643,0,0,1-12.422-8.07a3.7,3.7,0,0,1,1.988-.539,3.565,3.565,0,0,1,2.793,1.2,4.6,4.6,0,0,1,1.066,3.18v.1a5.036,5.036,0,0,1-.473,2.215A3.589,3.589,0,0,1-8.4-.391a3.743,3.743,0,0,1-2.02.547,3.556,3.556,0,0,1-2.785-1.2A4.575,4.575,0,0,1-14.27-4.2Zm1.453.172a3.616,3.616,0,0,0,.652,2.258,2.088,2.088,0,0,0,1.746.852,2.075,2.075,0,0,0,1.75-.863A3.955,3.955,0,0,0-8.02-4.3a3.61,3.61,0,0,0-.66-2.254,2.1,2.1,0,0,0-1.754-.863,2.075,2.075,0,0,0-1.727.852A3.925,3.925,0,0,0-12.816-4.133Zm9.422-4.32.047,1.063A3.08,3.08,0,0,1-.816-8.609q2.68,0,2.7,3.023V0H.441V-5.594A1.946,1.946,0,0,0,.023-6.945a1.675,1.675,0,0,0-1.277-.437,2.086,2.086,0,0,0-1.234.375,2.546,2.546,0,0,0-.828.984V0H-4.762V-8.453ZM7.574.156a3.693,3.693,0,0,1-2.8-1.129A4.19,4.19,0,0,1,3.7-3.992v-.266A5.073,5.073,0,0,1,4.18-6.5,3.748,3.748,0,0,1,5.523-8.051a3.378,3.378,0,0,1,1.871-.559A3.166,3.166,0,0,1,9.957-7.523a4.7,4.7,0,0,1,.914,3.109v.6H5.145a3,3,0,0,0,.73,2.02,2.3,2.3,0,0,0,1.777.77,2.517,2.517,0,0,0,1.3-.312,3.259,3.259,0,0,0,.93-.828l.883.688A3.55,3.55,0,0,1,7.574.156Zm-.18-7.578a1.928,1.928,0,0,0-1.469.637A3.1,3.1,0,0,0,5.191-5H9.426v-.109a2.753,2.753,0,0,0-.594-1.707A1.815,1.815,0,0,0,7.395-7.422ZM23.809,0H16.355V-1.039l3.938-4.375A9.354,9.354,0,0,0,21.5-7.027a2.693,2.693,0,0,0,.332-1.285,2.041,2.041,0,0,0-.539-1.461,1.885,1.885,0,0,0-1.437-.57,2.232,2.232,0,0,0-1.676.613,2.343,2.343,0,0,0-.6,1.707H16.137a3.355,3.355,0,0,1,1.012-2.539,3.751,3.751,0,0,1,2.707-.969,3.6,3.6,0,0,1,2.508.832,2.838,2.838,0,0,1,.922,2.215q0,1.68-2.141,4L18.1-1.18h5.711ZM-30.039,18.023H-34.8L-35.875,21h-1.547l4.344-11.375h1.313L-27.414,21h-1.539ZM-34.352,16.8h3.867l-1.937-5.32Zm11.633,3.18a2.082,2.082,0,0,0,1.352-.469,1.649,1.649,0,0,0,.641-1.172h1.367a2.621,2.621,0,0,1-.5,1.383,3.293,3.293,0,0,1-1.23,1.047,3.55,3.55,0,0,1-1.629.391A3.482,3.482,0,0,1-25.465,20a4.59,4.59,0,0,1-1.02-3.152v-.242a5.089,5.089,0,0,1,.453-2.2,3.451,3.451,0,0,1,1.3-1.492,3.7,3.7,0,0,1,2-.531,3.39,3.39,0,0,1,2.363.852,3.043,3.043,0,0,1,1,2.211h-1.367a1.992,1.992,0,0,0-.621-1.348,1.932,1.932,0,0,0-1.379-.527,2.023,2.023,0,0,0-1.707.793,3.724,3.724,0,0,0-.605,2.293v.273a3.65,3.65,0,0,0,.6,2.25A2.033,2.033,0,0,0-22.719,19.977Zm6.945-9.477v2.047H-14.2v1.117h-1.578v5.249a1.173,1.173,0,0,0,.211.763.888.888,0,0,0,.719.254,3.5,3.5,0,0,0,.688-.094V21a4.215,4.215,0,0,1-1.109.155,1.8,1.8,0,0,1-1.461-.586,2.517,2.517,0,0,1-.492-1.664V13.664h-1.539V12.547h1.539V10.5ZM-10.937,21h-1.445V12.547h1.445ZM-12.5,10.3a.863.863,0,0,1,.215-.594.807.807,0,0,1,.637-.242.819.819,0,0,1,.641.242.854.854,0,0,1,.219.594.826.826,0,0,1-.219.586.834.834,0,0,1-.641.234.821.821,0,0,1-.637-.234A.834.834,0,0,1-12.5,10.3Zm6.664,8.734,2.094-6.492h1.477L-5.3,21H-6.4l-3.062-8.453h1.477ZM4.227,21a3.036,3.036,0,0,1-.2-.891,3.225,3.225,0,0,1-2.406,1.047,2.984,2.984,0,0,1-2.051-.707,2.287,2.287,0,0,1-.8-1.793,2.39,2.39,0,0,1,1-2.051,4.733,4.733,0,0,1,2.824-.73H4v-.664A1.623,1.623,0,0,0,3.547,14a1.821,1.821,0,0,0-1.336-.449,2.107,2.107,0,0,0-1.3.391,1.151,1.151,0,0,0-.523.945H-1.062a2,2,0,0,1,.449-1.223,3.066,3.066,0,0,1,1.219-.934A4.1,4.1,0,0,1,2.3,12.391a3.342,3.342,0,0,1,2.289.73,2.635,2.635,0,0,1,.859,2.012v3.891a4.757,4.757,0,0,0,.3,1.852V21Zm-2.4-1.1a2.54,2.54,0,0,0,1.289-.352A2.127,2.127,0,0,0,4,18.633V16.9H2.867Q.211,16.9.211,18.453a1.316,1.316,0,0,0,.453,1.063A1.742,1.742,0,0,0,1.828,19.9Zm7.844-9.4v2.047H11.25v1.117H9.672v5.249a1.173,1.173,0,0,0,.211.763.888.888,0,0,0,.719.254,3.5,3.5,0,0,0,.688-.094V21a4.215,4.215,0,0,1-1.109.155,1.8,1.8,0,0,1-1.461-.586,2.517,2.517,0,0,1-.492-1.664V13.664H6.688V12.547H8.227V10.5ZM14.508,21H13.063V12.547h1.445ZM12.945,10.3a.863.863,0,0,1,.215-.594.807.807,0,0,1,.637-.242.819.819,0,0,1,.641.242.854.854,0,0,1,.219.594.826.826,0,0,1-.219.586.834.834,0,0,1-.641.234.821.821,0,0,1-.637-.234A.834.834,0,0,1,12.945,10.3ZM16.438,16.7a4.993,4.993,0,0,1,.488-2.234,3.643,3.643,0,0,1,1.359-1.531,3.7,3.7,0,0,1,1.988-.539,3.565,3.565,0,0,1,2.793,1.2,4.6,4.6,0,0,1,1.066,3.18v.1a5.036,5.036,0,0,1-.473,2.215,3.589,3.589,0,0,1-1.352,1.527,3.743,3.743,0,0,1-2.02.547,3.556,3.556,0,0,1-2.785-1.2A4.575,4.575,0,0,1,16.438,16.8Zm1.453.172a3.616,3.616,0,0,0,.652,2.258,2.211,2.211,0,0,0,3.5-.012,3.955,3.955,0,0,0,.648-2.418,3.61,3.61,0,0,0-.66-2.254,2.1,2.1,0,0,0-1.754-.863,2.075,2.075,0,0,0-1.727.852A3.925,3.925,0,0,0,17.891,16.867Zm9.422-4.32.047,1.063a3.08,3.08,0,0,1,2.531-1.219q2.68,0,2.7,3.023V21H31.148V15.406a1.946,1.946,0,0,0-.418-1.352,1.675,1.675,0,0,0-1.277-.437,2.086,2.086,0,0,0-1.234.375,2.546,2.546,0,0,0-.828.984V21H25.945V12.547Z" transform="translate(723 5468)" fill="#fff"/>
      <path id="Trazado_647760" data-name="Trazado 647760" d="M-41.863,0h-2.344V-4.875h-4.57V0h-2.344V-11.375h2.344v4.609h4.57v-4.609h2.344Zm5.789.156A4.15,4.15,0,0,1-39.1-.984,4.054,4.054,0,0,1-40.27-4.023v-.219a5.106,5.106,0,0,1,.492-2.277,3.612,3.612,0,0,1,1.395-1.547,3.914,3.914,0,0,1,2.059-.543,3.508,3.508,0,0,1,2.73,1.094,4.444,4.444,0,0,1,1,3.1v.922H-37.98a2.1,2.1,0,0,0,.66,1.328,2,2,0,0,0,1.395.5,2.437,2.437,0,0,0,2.039-.945l1.109,1.242A3.389,3.389,0,0,1-34.152-.246,4.511,4.511,0,0,1-36.074.156Zm-.258-6.945a1.411,1.411,0,0,0-1.09.455,2.357,2.357,0,0,0-.535,1.3h3.141v-.181a1.681,1.681,0,0,0-.406-1.165A1.456,1.456,0,0,0-36.332-6.789ZM-26.418,0a2.507,2.507,0,0,1-.227-.758,2.732,2.732,0,0,1-2.133.914,3,3,0,0,1-2.059-.719,2.312,2.312,0,0,1-.816-1.812,2.389,2.389,0,0,1,1-2.062,4.915,4.915,0,0,1,2.879-.727h1.039v-.484a1.393,1.393,0,0,0-.3-.937,1.183,1.183,0,0,0-.949-.352,1.345,1.345,0,0,0-.895.273.929.929,0,0,0-.324.75h-2.258a2.268,2.268,0,0,1,.453-1.359,3,3,0,0,1,1.281-.98,4.669,4.669,0,0,1,1.859-.355,3.689,3.689,0,0,1,2.48.785,2.747,2.747,0,0,1,.918,2.207v3.664a4.041,4.041,0,0,0,.336,1.82V0Zm-1.867-1.57a1.945,1.945,0,0,0,.922-.223,1.462,1.462,0,0,0,.625-.6V-3.844h-.844q-1.7,0-1.8,1.172l-.008.133a.9.9,0,0,0,.3.7A1.153,1.153,0,0,0-28.285-1.57Zm8.25-8.961v2.078h1.445V-6.8h-1.445v4.219a1.007,1.007,0,0,0,.18.672.9.9,0,0,0,.688.2,3.6,3.6,0,0,0,.664-.055V-.047a4.648,4.648,0,0,1-1.367.2,2.156,2.156,0,0,1-2.422-2.4V-6.8h-1.234V-8.453h1.234v-2.078ZM-13.441.156A4.15,4.15,0,0,1-16.469-.984a4.054,4.054,0,0,1-1.168-3.039v-.219a5.106,5.106,0,0,1,.492-2.277A3.612,3.612,0,0,1-15.75-8.066a3.914,3.914,0,0,1,2.059-.543,3.508,3.508,0,0,1,2.73,1.094,4.444,4.444,0,0,1,1,3.1v.922h-5.383a2.1,2.1,0,0,0,.66,1.328,2,2,0,0,0,1.395.5,2.437,2.437,0,0,0,2.039-.945l1.109,1.242A3.389,3.389,0,0,1-11.52-.246,4.511,4.511,0,0,1-13.441.156ZM-13.7-6.789a1.411,1.411,0,0,0-1.09.455,2.357,2.357,0,0,0-.535,1.3h3.141v-.181a1.681,1.681,0,0,0-.406-1.165A1.456,1.456,0,0,0-13.7-6.789Zm4.664,2.5a5.094,5.094,0,0,1,.887-3.148A2.877,2.877,0,0,1-5.723-8.609a2.589,2.589,0,0,1,2.039.922V-12h2.266V0H-3.457l-.109-.9A2.657,2.657,0,0,1-5.738.156,2.869,2.869,0,0,1-8.133-1.02,5.258,5.258,0,0,1-9.035-4.289Zm2.258.168A3.337,3.337,0,0,0-6.363-2.3a1.349,1.349,0,0,0,1.2.634,1.511,1.511,0,0,0,1.477-.884V-5.889a1.489,1.489,0,0,0-1.461-.884Q-6.777-6.773-6.777-4.121ZM12.559-9.477H9.074V0H6.73V-9.477H3.293v-1.9h9.266ZM18.3-.859A2.831,2.831,0,0,1,15.988.156a2.67,2.67,0,0,1-2.074-.781,3.335,3.335,0,0,1-.73-2.289V-8.453h2.258v5.467q0,1.322,1.2,1.322a1.63,1.63,0,0,0,1.578-.8V-8.453h2.266V0H18.363ZM24.27-8.453l.07.977a2.951,2.951,0,0,1,2.43-1.133,2.453,2.453,0,0,1,2,.789,3.682,3.682,0,0,1,.672,2.359V0H27.184V-5.406a1.465,1.465,0,0,0-.312-1.043,1.4,1.4,0,0,0-1.039-.324,1.553,1.553,0,0,0-1.43.813V0H22.145V-8.453Zm8.961,0,.07.977a2.951,2.951,0,0,1,2.43-1.133,2.453,2.453,0,0,1,2,.789A3.682,3.682,0,0,1,38.4-5.461V0H36.145V-5.406a1.465,1.465,0,0,0-.312-1.043,1.4,1.4,0,0,0-1.039-.324,1.553,1.553,0,0,0-1.43.813V0H31.105V-8.453ZM44,.156A4.15,4.15,0,0,1,40.977-.984a4.054,4.054,0,0,1-1.168-3.039v-.219A5.106,5.106,0,0,1,40.3-6.52,3.612,3.612,0,0,1,41.7-8.066a3.914,3.914,0,0,1,2.059-.543,3.508,3.508,0,0,1,2.73,1.094,4.444,4.444,0,0,1,1,3.1v.922H42.1a2.1,2.1,0,0,0,.66,1.328,2,2,0,0,0,1.395.5,2.437,2.437,0,0,0,2.039-.945L47.3-1.367A3.389,3.389,0,0,1,45.926-.246,4.511,4.511,0,0,1,44,.156Zm-.258-6.945a1.411,1.411,0,0,0-1.09.455,2.357,2.357,0,0,0-.535,1.3h3.141v-.181a1.681,1.681,0,0,0-.406-1.165A1.456,1.456,0,0,0,43.746-6.789ZM51.145,0H48.879V-12h2.266Z" transform="translate(723 5444)" fill="#ffd947"/>
      <path id="Trazado_647763" data-name="Trazado 647763" d="M3.508,0H1.164V-11.375H3.508ZM5.18-4.289a5.094,5.094,0,0,1,.887-3.148A2.877,2.877,0,0,1,8.492-8.609a2.589,2.589,0,0,1,2.039.922V-12H12.8V0H10.758l-.109-.9A2.657,2.657,0,0,1,8.477.156,2.869,2.869,0,0,1,6.082-1.02,5.258,5.258,0,0,1,5.18-4.289Zm2.258.168A3.337,3.337,0,0,0,7.852-2.3a1.349,1.349,0,0,0,1.2.634,1.511,1.511,0,0,0,1.477-.884V-5.889A1.489,1.489,0,0,0,9.07-6.773Q7.437-6.773,7.438-4.121Zm11,4.277A4.15,4.15,0,0,1,15.41-.984a4.054,4.054,0,0,1-1.168-3.039v-.219a5.106,5.106,0,0,1,.492-2.277,3.612,3.612,0,0,1,1.395-1.547,3.914,3.914,0,0,1,2.059-.543,3.508,3.508,0,0,1,2.73,1.094,4.444,4.444,0,0,1,1,3.1v.922H16.531a2.1,2.1,0,0,0,.66,1.328,2,2,0,0,0,1.395.5,2.437,2.437,0,0,0,2.039-.945l1.109,1.242A3.389,3.389,0,0,1,20.359-.246,4.511,4.511,0,0,1,18.438.156ZM18.18-6.789a1.411,1.411,0,0,0-1.09.455,2.357,2.357,0,0,0-.535,1.3H19.7v-.181a1.681,1.681,0,0,0-.406-1.165A1.456,1.456,0,0,0,18.18-6.789ZM28.094,0a2.507,2.507,0,0,1-.227-.758,2.732,2.732,0,0,1-2.133.914,3,3,0,0,1-2.059-.719,2.312,2.312,0,0,1-.816-1.812,2.389,2.389,0,0,1,1-2.062,4.915,4.915,0,0,1,2.879-.727h1.039v-.484a1.393,1.393,0,0,0-.3-.937,1.183,1.183,0,0,0-.949-.352,1.345,1.345,0,0,0-.895.273.929.929,0,0,0-.324.75H23.047A2.268,2.268,0,0,1,23.5-7.273a3,3,0,0,1,1.281-.98,4.669,4.669,0,0,1,1.859-.355,3.689,3.689,0,0,1,2.48.785,2.747,2.747,0,0,1,.918,2.207v3.664a4.041,4.041,0,0,0,.336,1.82V0ZM26.227-1.57a1.945,1.945,0,0,0,.922-.223,1.462,1.462,0,0,0,.625-.6V-3.844H26.93q-1.7,0-1.8,1.172l-.008.133a.9.9,0,0,0,.3.7A1.153,1.153,0,0,0,26.227-1.57ZM34.156,0H31.891V-12h2.266ZM5.227,16.836H3.359V21H1.016V9.625H5.242a4.778,4.778,0,0,1,3.109.9,3.1,3.1,0,0,1,1.094,2.539A3.5,3.5,0,0,1,8.941,15a3.437,3.437,0,0,1-1.527,1.238l2.461,4.648V21H7.359Zm-1.867-1.9H5.25a1.936,1.936,0,0,0,1.367-.449A1.606,1.606,0,0,0,7.1,13.25a1.719,1.719,0,0,0-.457-1.266,1.9,1.9,0,0,0-1.4-.461H3.359Zm11.609,6.219a4.15,4.15,0,0,1-3.027-1.141,4.054,4.054,0,0,1-1.168-3.039v-.219a5.106,5.106,0,0,1,.492-2.277,3.612,3.612,0,0,1,1.395-1.547,3.914,3.914,0,0,1,2.059-.543,3.508,3.508,0,0,1,2.73,1.094,4.444,4.444,0,0,1,1,3.1v.922H13.063a2.1,2.1,0,0,0,.66,1.328,2,2,0,0,0,1.395.5,2.437,2.437,0,0,0,2.039-.945l1.109,1.242a3.389,3.389,0,0,1-1.375,1.121A4.511,4.511,0,0,1,14.969,21.156Zm-.258-6.945a1.411,1.411,0,0,0-1.09.455,2.357,2.357,0,0,0-.535,1.3h3.141v-.181a1.681,1.681,0,0,0-.406-1.165A1.456,1.456,0,0,0,14.711,14.211Zm10.68-3.461a10.867,10.867,0,0,0-1.25-.078q-1.531,0-1.531,1.3v.57h1.68V14.2h-1.68V21H20.344V14.2H19.086V12.547h1.258v-.656a2.888,2.888,0,0,1,.922-2.262,3.769,3.769,0,0,1,2.563-.793q1.18,0,3.828.25V21H25.391ZM29.18,16.7a5.013,5.013,0,0,1,.484-2.242,3.546,3.546,0,0,1,1.395-1.523,4.069,4.069,0,0,1,2.113-.539,3.849,3.849,0,0,1,2.793,1.047,4.2,4.2,0,0,1,1.207,2.844l.016.578A4.418,4.418,0,0,1,36.1,19.98a3.775,3.775,0,0,1-2.914,1.176,3.793,3.793,0,0,1-2.918-1.172A4.5,4.5,0,0,1,29.18,16.8Zm2.258.16a3.16,3.16,0,0,0,.453,1.843,1.628,1.628,0,0,0,2.578.008,3.457,3.457,0,0,0,.461-2.015,3.128,3.128,0,0,0-.461-1.831,1.5,1.5,0,0,0-1.3-.649,1.474,1.474,0,0,0-1.281.646A3.516,3.516,0,0,0,31.438,16.856ZM45.93,17.93l1.109-5.383h2.18L47.063,21H45.172l-1.6-5.32L41.969,21H40.086L37.93,12.547h2.18l1.1,5.375,1.547-5.375h1.633Zm10.883-.937V21H54.469V9.625h4.438a5.134,5.134,0,0,1,2.254.469,3.454,3.454,0,0,1,1.5,1.332,3.714,3.714,0,0,1,.523,1.965,3.266,3.266,0,0,1-1.145,2.637,4.767,4.767,0,0,1-3.168.965Zm0-1.9h2.094a2.059,2.059,0,0,0,1.418-.437,1.591,1.591,0,0,0,.488-1.25,1.876,1.876,0,0,0-.492-1.352,1.839,1.839,0,0,0-1.359-.531H56.813Zm12.578-.43a6.134,6.134,0,0,0-.812-.062,1.654,1.654,0,0,0-1.68.867V21H64.641V12.547h2.133l.063,1.008a2.092,2.092,0,0,1,1.883-1.164,2.366,2.366,0,0,1,.7.1Zm.453,2.031a5.013,5.013,0,0,1,.484-2.242,3.546,3.546,0,0,1,1.395-1.523,4.069,4.069,0,0,1,2.113-.539,3.849,3.849,0,0,1,2.793,1.047,4.2,4.2,0,0,1,1.207,2.844l.016.578a4.418,4.418,0,0,1-1.086,3.121,4.209,4.209,0,0,1-5.832,0,4.5,4.5,0,0,1-1.09-3.187Zm2.258.16a3.16,3.16,0,0,0,.453,1.843,1.628,1.628,0,0,0,2.578.008,3.457,3.457,0,0,0,.461-2.015,3.128,3.128,0,0,0-.461-1.831,1.5,1.5,0,0,0-1.3-.649,1.474,1.474,0,0,0-1.281.646A3.516,3.516,0,0,0,72.1,16.856ZM79.789,21V14.2H78.531V12.547h1.258v-.391A3.17,3.17,0,0,1,80.77,9.7a3.945,3.945,0,0,1,2.723-.863,9.031,9.031,0,0,1,2.563.461l-.328,1.867a10,10,0,0,0-1.187-.293,5.835,5.835,0,0,0-.906-.066q-1.578,0-1.578,1.4v.344h1.664V14.2H82.055V21Zm7.32,0H84.844V12.547h2.266Zm5.758.156a4.15,4.15,0,0,1-3.027-1.141,4.054,4.054,0,0,1-1.168-3.039v-.219a5.106,5.106,0,0,1,.492-2.277,3.612,3.612,0,0,1,1.395-1.547,3.914,3.914,0,0,1,2.059-.543,3.508,3.508,0,0,1,2.73,1.094,4.444,4.444,0,0,1,1,3.1v.922H90.961a2.1,2.1,0,0,0,.66,1.328,2,2,0,0,0,1.395.5,2.437,2.437,0,0,0,2.039-.945l1.109,1.242a3.389,3.389,0,0,1-1.375,1.121A4.511,4.511,0,0,1,92.867,21.156Zm-.258-6.945a1.411,1.411,0,0,0-1.09.455,2.357,2.357,0,0,0-.535,1.3h3.141v-.181a1.681,1.681,0,0,0-.406-1.165A1.456,1.456,0,0,0,92.609,14.211Zm7.4,6.789H97.742V9h2.266Z" transform="translate(1039 5225)" fill="#fff"/>
      <path id="Trazado_647766" data-name="Trazado 647766" d="M5.7,0H4.242V-9.633L1.328-8.562V-9.875L5.469-11.43H5.7Z" transform="translate(639 5243)" fill="#fff"/>
      <path id="Trazado_647768" data-name="Trazado 647768" d="M8.4,0H.945V-1.039L4.883-5.414A9.354,9.354,0,0,0,6.09-7.027a2.693,2.693,0,0,0,.332-1.285,2.041,2.041,0,0,0-.539-1.461,1.885,1.885,0,0,0-1.437-.57A2.232,2.232,0,0,0,2.77-9.73a2.343,2.343,0,0,0-.6,1.707H.727a3.355,3.355,0,0,1,1.012-2.539,3.751,3.751,0,0,1,2.707-.969,3.6,3.6,0,0,1,2.508.832,2.838,2.838,0,0,1,.922,2.215q0,1.68-2.141,4L2.688-1.18H8.4Z" transform="translate(804 5243)" fill="#fff"/>
      <path id="Trazado_647770" data-name="Trazado 647770" d="M3.047-6.391H4.133A2.387,2.387,0,0,0,5.742-6.93a1.8,1.8,0,0,0,.586-1.414,1.764,1.764,0,0,0-1.992-2,2.072,2.072,0,0,0-1.5.535,1.873,1.873,0,0,0-.559,1.418H.836a2.9,2.9,0,0,1,.988-2.246,3.6,3.6,0,0,1,2.512-.895,3.558,3.558,0,0,1,2.523.852,3.076,3.076,0,0,1,.914,2.367,2.5,2.5,0,0,1-.48,1.438A2.9,2.9,0,0,1,5.984-5.836a2.8,2.8,0,0,1,1.449.984,2.734,2.734,0,0,1,.512,1.68,3.1,3.1,0,0,1-1,2.43,3.745,3.745,0,0,1-2.6.9A3.844,3.844,0,0,1,1.738-.711,2.877,2.877,0,0,1,.734-3H2.188a1.859,1.859,0,0,0,.586,1.438,2.229,2.229,0,0,0,1.57.539,2.187,2.187,0,0,0,1.6-.547A2.108,2.108,0,0,0,6.5-3.141a1.912,1.912,0,0,0-.609-1.523,2.655,2.655,0,0,0-1.758-.547H3.047Z" transform="translate(880 5243)" fill="#fff"/>
      <path id="Trazado_647765" data-name="Trazado 647765" d="M9.18-10.148H5.523V0H4.031V-10.148H.383v-1.227h8.8Z" transform="translate(632 5237)" fill="#fff"/>
      <path id="Trazado_647769" data-name="Trazado 647769" d="M9.18-10.148H5.523V0H4.031V-10.148H.383v-1.227h8.8Z" transform="translate(797 5237)" fill="#fff"/>
      <path id="Trazado_647767" data-name="Trazado 647767" d="M9.18-10.148H5.523V0H4.031V-10.148H.383v-1.227h8.8Z" transform="translate(873 5237)" fill="#fff"/>
      <path id="Trazado_647764" data-name="Trazado 647764" d="M9.578-9.477H6.094V0H3.75V-9.477H.313v-1.9H9.578ZM13.922-3.2l1.563-5.258h2.422l-3.4,9.766-.187.445a2.577,2.577,0,0,1-2.5,1.656,3.552,3.552,0,0,1-1-.148V1.555l.344.008a1.857,1.857,0,0,0,.957-.2,1.283,1.283,0,0,0,.5-.648l.266-.7L9.922-8.453h2.43Zm12.484-.953A5.07,5.07,0,0,1,25.52-1.02,2.843,2.843,0,0,1,23.125.156a2.633,2.633,0,0,1-2.07-.891V3.25H18.8v-11.7h2.094l.078.828a2.654,2.654,0,0,1,2.141-.984,2.862,2.862,0,0,1,2.43,1.156,5.207,5.207,0,0,1,.867,3.188Zm-2.258-.164a3.327,3.327,0,0,0-.418-1.82,1.361,1.361,0,0,0-1.215-.641,1.478,1.478,0,0,0-1.461.813V-2.5a1.5,1.5,0,0,0,1.477.836Q24.148-1.664,24.148-4.312ZM30.188,0H27.922V-8.453h2.266Zm-2.4-10.641a1.112,1.112,0,0,1,.34-.836,1.277,1.277,0,0,1,.926-.328,1.28,1.28,0,0,1,.922.328,1.105,1.105,0,0,1,.344.836,1.108,1.108,0,0,1-.348.844,1.283,1.283,0,0,1-.918.328,1.283,1.283,0,0,1-.918-.328A1.108,1.108,0,0,1,27.789-10.641Zm7.773,8.977a1.481,1.481,0,0,0,1.016-.344,1.2,1.2,0,0,0,.406-.914H39.1a2.9,2.9,0,0,1-.469,1.574A3.093,3.093,0,0,1,37.371-.238,3.949,3.949,0,0,1,35.6.156,3.67,3.67,0,0,1,32.742-1,4.56,4.56,0,0,1,31.7-4.18v-.148a4.508,4.508,0,0,1,1.039-3.117,3.627,3.627,0,0,1,2.852-1.164,3.555,3.555,0,0,1,2.543.9A3.2,3.2,0,0,1,39.1-5.3H36.984a1.551,1.551,0,0,0-.406-1.072,1.354,1.354,0,0,0-1.031-.412,1.36,1.36,0,0,0-1.191.575,3.333,3.333,0,0,0-.4,1.866v.235a3.375,3.375,0,0,0,.4,1.878A1.377,1.377,0,0,0,35.563-1.664ZM45.289,0a2.507,2.507,0,0,1-.227-.758A2.732,2.732,0,0,1,42.93.156a3,3,0,0,1-2.059-.719,2.312,2.312,0,0,1-.816-1.812,2.389,2.389,0,0,1,1-2.062,4.915,4.915,0,0,1,2.879-.727h1.039v-.484a1.393,1.393,0,0,0-.3-.937,1.183,1.183,0,0,0-.949-.352,1.345,1.345,0,0,0-.895.273.929.929,0,0,0-.324.75H40.242A2.268,2.268,0,0,1,40.7-7.273a3,3,0,0,1,1.281-.98,4.669,4.669,0,0,1,1.859-.355,3.689,3.689,0,0,1,2.48.785,2.747,2.747,0,0,1,.918,2.207v3.664a4.041,4.041,0,0,0,.336,1.82V0ZM43.422-1.57a1.945,1.945,0,0,0,.922-.223,1.462,1.462,0,0,0,.625-.6V-3.844h-.844q-1.7,0-1.8,1.172l-.008.133a.9.9,0,0,0,.3.7A1.153,1.153,0,0,0,43.422-1.57ZM51.352,0H49.086V-12h2.266ZM5.227,16.836H3.359V21H1.016V9.625H5.242a4.778,4.778,0,0,1,3.109.9,3.1,3.1,0,0,1,1.094,2.539A3.5,3.5,0,0,1,8.941,15a3.437,3.437,0,0,1-1.527,1.238l2.461,4.648V21H7.359Zm-1.867-1.9H5.25a1.936,1.936,0,0,0,1.367-.449A1.606,1.606,0,0,0,7.1,13.25a1.719,1.719,0,0,0-.457-1.266,1.9,1.9,0,0,0-1.4-.461H3.359Zm11.609,6.219a4.15,4.15,0,0,1-3.027-1.141,4.054,4.054,0,0,1-1.168-3.039v-.219a5.106,5.106,0,0,1,.492-2.277,3.612,3.612,0,0,1,1.395-1.547,3.914,3.914,0,0,1,2.059-.543,3.508,3.508,0,0,1,2.73,1.094,4.444,4.444,0,0,1,1,3.1v.922H13.063a2.1,2.1,0,0,0,.66,1.328,2,2,0,0,0,1.395.5,2.437,2.437,0,0,0,2.039-.945l1.109,1.242a3.389,3.389,0,0,1-1.375,1.121A4.511,4.511,0,0,1,14.969,21.156Zm-.258-6.945a1.411,1.411,0,0,0-1.09.455,2.357,2.357,0,0,0-.535,1.3h3.141v-.181a1.681,1.681,0,0,0-.406-1.165A1.456,1.456,0,0,0,14.711,14.211Zm10.68-3.461a10.867,10.867,0,0,0-1.25-.078q-1.531,0-1.531,1.3v.57h1.68V14.2h-1.68V21H20.344V14.2H19.086V12.547h1.258v-.656a2.888,2.888,0,0,1,.922-2.262,3.769,3.769,0,0,1,2.563-.793q1.18,0,3.828.25V21H25.391ZM29.18,16.7a5.013,5.013,0,0,1,.484-2.242,3.546,3.546,0,0,1,1.395-1.523,4.069,4.069,0,0,1,2.113-.539,3.849,3.849,0,0,1,2.793,1.047,4.2,4.2,0,0,1,1.207,2.844l.016.578A4.418,4.418,0,0,1,36.1,19.98a3.775,3.775,0,0,1-2.914,1.176,3.793,3.793,0,0,1-2.918-1.172A4.5,4.5,0,0,1,29.18,16.8Zm2.258.16a3.16,3.16,0,0,0,.453,1.843,1.628,1.628,0,0,0,2.578.008,3.457,3.457,0,0,0,.461-2.015,3.128,3.128,0,0,0-.461-1.831,1.5,1.5,0,0,0-1.3-.649,1.474,1.474,0,0,0-1.281.646A3.516,3.516,0,0,0,31.438,16.856ZM45.93,17.93l1.109-5.383h2.18L47.063,21H45.172l-1.6-5.32L41.969,21H40.086L37.93,12.547h2.18l1.1,5.375,1.547-5.375h1.633Zm10.883-.937V21H54.469V9.625h4.438a5.134,5.134,0,0,1,2.254.469,3.454,3.454,0,0,1,1.5,1.332,3.714,3.714,0,0,1,.523,1.965,3.266,3.266,0,0,1-1.145,2.637,4.767,4.767,0,0,1-3.168.965Zm0-1.9h2.094a2.059,2.059,0,0,0,1.418-.437,1.591,1.591,0,0,0,.488-1.25,1.876,1.876,0,0,0-.492-1.352,1.839,1.839,0,0,0-1.359-.531H56.813Zm12.578-.43a6.134,6.134,0,0,0-.812-.062,1.654,1.654,0,0,0-1.68.867V21H64.641V12.547h2.133l.063,1.008a2.092,2.092,0,0,1,1.883-1.164,2.366,2.366,0,0,1,.7.1Zm.453,2.031a5.013,5.013,0,0,1,.484-2.242,3.546,3.546,0,0,1,1.395-1.523,4.069,4.069,0,0,1,2.113-.539,3.849,3.849,0,0,1,2.793,1.047,4.2,4.2,0,0,1,1.207,2.844l.016.578a4.418,4.418,0,0,1-1.086,3.121,4.209,4.209,0,0,1-5.832,0,4.5,4.5,0,0,1-1.09-3.187Zm2.258.16a3.16,3.16,0,0,0,.453,1.843,1.628,1.628,0,0,0,2.578.008,3.457,3.457,0,0,0,.461-2.015,3.128,3.128,0,0,0-.461-1.831,1.5,1.5,0,0,0-1.3-.649,1.474,1.474,0,0,0-1.281.646A3.516,3.516,0,0,0,72.1,16.856ZM79.789,21V14.2H78.531V12.547h1.258v-.391A3.17,3.17,0,0,1,80.77,9.7a3.945,3.945,0,0,1,2.723-.863,9.031,9.031,0,0,1,2.563.461l-.328,1.867a10,10,0,0,0-1.187-.293,5.835,5.835,0,0,0-.906-.066q-1.578,0-1.578,1.4v.344h1.664V14.2H82.055V21Zm7.32,0H84.844V12.547h2.266Zm4.25,0H89.094V9h2.266Zm5.75.156a4.15,4.15,0,0,1-3.027-1.141,4.054,4.054,0,0,1-1.168-3.039v-.219a5.106,5.106,0,0,1,.492-2.277A3.612,3.612,0,0,1,94.8,12.934a3.914,3.914,0,0,1,2.059-.543,3.508,3.508,0,0,1,2.73,1.094,4.444,4.444,0,0,1,1,3.1v.922H95.2a2.1,2.1,0,0,0,.66,1.328,2,2,0,0,0,1.395.5,2.437,2.437,0,0,0,2.039-.945l1.109,1.242a3.389,3.389,0,0,1-1.375,1.121A4.511,4.511,0,0,1,97.109,21.156Zm-.258-6.945a1.411,1.411,0,0,0-1.09.455,2.357,2.357,0,0,0-.535,1.3h3.141v-.181a1.681,1.681,0,0,0-.406-1.165A1.456,1.456,0,0,0,96.852,14.211Z" transform="translate(1039 5283)" fill="#fff"/>
      <path id="Trazado_647761" data-name="Trazado 647761" d="M-21.949-1.227h6.508V0h-8.281V-1.125l6.234-9.023h-6.133v-1.227h7.93v1.095ZM-14.27-4.3a4.993,4.993,0,0,1,.488-2.234A3.643,3.643,0,0,1-12.422-8.07a3.7,3.7,0,0,1,1.988-.539,3.565,3.565,0,0,1,2.793,1.2,4.6,4.6,0,0,1,1.066,3.18v.1a5.036,5.036,0,0,1-.473,2.215A3.589,3.589,0,0,1-8.4-.391a3.743,3.743,0,0,1-2.02.547,3.556,3.556,0,0,1-2.785-1.2A4.575,4.575,0,0,1-14.27-4.2Zm1.453.172a3.616,3.616,0,0,0,.652,2.258,2.088,2.088,0,0,0,1.746.852,2.075,2.075,0,0,0,1.75-.863A3.955,3.955,0,0,0-8.02-4.3a3.61,3.61,0,0,0-.66-2.254,2.1,2.1,0,0,0-1.754-.863,2.075,2.075,0,0,0-1.727.852A3.925,3.925,0,0,0-12.816-4.133Zm9.422-4.32.047,1.063A3.08,3.08,0,0,1-.816-8.609q2.68,0,2.7,3.023V0H.441V-5.594A1.946,1.946,0,0,0,.023-6.945a1.675,1.675,0,0,0-1.277-.437,2.086,2.086,0,0,0-1.234.375,2.546,2.546,0,0,0-.828.984V0H-4.762V-8.453ZM7.574.156a3.693,3.693,0,0,1-2.8-1.129A4.19,4.19,0,0,1,3.7-3.992v-.266A5.073,5.073,0,0,1,4.18-6.5,3.748,3.748,0,0,1,5.523-8.051a3.378,3.378,0,0,1,1.871-.559A3.166,3.166,0,0,1,9.957-7.523a4.7,4.7,0,0,1,.914,3.109v.6H5.145a3,3,0,0,0,.73,2.02,2.3,2.3,0,0,0,1.777.77,2.517,2.517,0,0,0,1.3-.312,3.259,3.259,0,0,0,.93-.828l.883.688A3.55,3.55,0,0,1,7.574.156Zm-.18-7.578a1.928,1.928,0,0,0-1.469.637A3.1,3.1,0,0,0,5.191-5H9.426v-.109a2.753,2.753,0,0,0-.594-1.707A1.815,1.815,0,0,0,7.395-7.422ZM18.457-6.391h1.086a2.387,2.387,0,0,0,1.609-.539,1.8,1.8,0,0,0,.586-1.414,1.764,1.764,0,0,0-1.992-2,2.072,2.072,0,0,0-1.5.535,1.873,1.873,0,0,0-.559,1.418H16.246a2.9,2.9,0,0,1,.988-2.246,3.6,3.6,0,0,1,2.512-.895,3.558,3.558,0,0,1,2.523.852,3.076,3.076,0,0,1,.914,2.367,2.5,2.5,0,0,1-.48,1.438,2.9,2.9,0,0,1-1.309,1.039,2.8,2.8,0,0,1,1.449.984,2.734,2.734,0,0,1,.512,1.68,3.1,3.1,0,0,1-1,2.43,3.745,3.745,0,0,1-2.6.9,3.844,3.844,0,0,1-2.605-.867,2.877,2.877,0,0,1-1-2.289H17.6a1.859,1.859,0,0,0,.586,1.438,2.229,2.229,0,0,0,1.57.539,2.187,2.187,0,0,0,1.6-.547,2.108,2.108,0,0,0,.555-1.57A1.912,1.912,0,0,0,21.3-4.664a2.655,2.655,0,0,0-1.758-.547H18.457Zm-48.5,24.414H-34.8L-35.875,21h-1.547l4.344-11.375h1.313L-27.414,21h-1.539ZM-34.352,16.8h3.867l-1.937-5.32Zm11.633,3.18a2.082,2.082,0,0,0,1.352-.469,1.649,1.649,0,0,0,.641-1.172h1.367a2.621,2.621,0,0,1-.5,1.383,3.293,3.293,0,0,1-1.23,1.047,3.55,3.55,0,0,1-1.629.391A3.482,3.482,0,0,1-25.465,20a4.59,4.59,0,0,1-1.02-3.152v-.242a5.089,5.089,0,0,1,.453-2.2,3.451,3.451,0,0,1,1.3-1.492,3.7,3.7,0,0,1,2-.531,3.39,3.39,0,0,1,2.363.852,3.043,3.043,0,0,1,1,2.211h-1.367a1.992,1.992,0,0,0-.621-1.348,1.932,1.932,0,0,0-1.379-.527,2.023,2.023,0,0,0-1.707.793,3.724,3.724,0,0,0-.605,2.293v.273a3.65,3.65,0,0,0,.6,2.25A2.033,2.033,0,0,0-22.719,19.977Zm6.945-9.477v2.047H-14.2v1.117h-1.578v5.249a1.173,1.173,0,0,0,.211.763.888.888,0,0,0,.719.254,3.5,3.5,0,0,0,.688-.094V21a4.215,4.215,0,0,1-1.109.155,1.8,1.8,0,0,1-1.461-.586,2.517,2.517,0,0,1-.492-1.664V13.664h-1.539V12.547h1.539V10.5ZM-10.937,21h-1.445V12.547h1.445ZM-12.5,10.3a.863.863,0,0,1,.215-.594.807.807,0,0,1,.637-.242.819.819,0,0,1,.641.242.854.854,0,0,1,.219.594.826.826,0,0,1-.219.586.834.834,0,0,1-.641.234.821.821,0,0,1-.637-.234A.834.834,0,0,1-12.5,10.3Zm6.664,8.734,2.094-6.492h1.477L-5.3,21H-6.4l-3.062-8.453h1.477ZM4.227,21a3.036,3.036,0,0,1-.2-.891,3.225,3.225,0,0,1-2.406,1.047,2.984,2.984,0,0,1-2.051-.707,2.287,2.287,0,0,1-.8-1.793,2.39,2.39,0,0,1,1-2.051,4.733,4.733,0,0,1,2.824-.73H4v-.664A1.623,1.623,0,0,0,3.547,14a1.821,1.821,0,0,0-1.336-.449,2.107,2.107,0,0,0-1.3.391,1.151,1.151,0,0,0-.523.945H-1.062a2,2,0,0,1,.449-1.223,3.066,3.066,0,0,1,1.219-.934A4.1,4.1,0,0,1,2.3,12.391a3.342,3.342,0,0,1,2.289.73,2.635,2.635,0,0,1,.859,2.012v3.891a4.757,4.757,0,0,0,.3,1.852V21Zm-2.4-1.1a2.54,2.54,0,0,0,1.289-.352A2.127,2.127,0,0,0,4,18.633V16.9H2.867Q.211,16.9.211,18.453a1.316,1.316,0,0,0,.453,1.063A1.742,1.742,0,0,0,1.828,19.9Zm7.844-9.4v2.047H11.25v1.117H9.672v5.249a1.173,1.173,0,0,0,.211.763.888.888,0,0,0,.719.254,3.5,3.5,0,0,0,.688-.094V21a4.215,4.215,0,0,1-1.109.155,1.8,1.8,0,0,1-1.461-.586,2.517,2.517,0,0,1-.492-1.664V13.664H6.688V12.547H8.227V10.5ZM14.508,21H13.063V12.547h1.445ZM12.945,10.3a.863.863,0,0,1,.215-.594.807.807,0,0,1,.637-.242.819.819,0,0,1,.641.242.854.854,0,0,1,.219.594.826.826,0,0,1-.219.586.834.834,0,0,1-.641.234.821.821,0,0,1-.637-.234A.834.834,0,0,1,12.945,10.3ZM16.438,16.7a4.993,4.993,0,0,1,.488-2.234,3.643,3.643,0,0,1,1.359-1.531,3.7,3.7,0,0,1,1.988-.539,3.565,3.565,0,0,1,2.793,1.2,4.6,4.6,0,0,1,1.066,3.18v.1a5.036,5.036,0,0,1-.473,2.215,3.589,3.589,0,0,1-1.352,1.527,3.743,3.743,0,0,1-2.02.547,3.556,3.556,0,0,1-2.785-1.2A4.575,4.575,0,0,1,16.438,16.8Zm1.453.172a3.616,3.616,0,0,0,.652,2.258,2.211,2.211,0,0,0,3.5-.012,3.955,3.955,0,0,0,.648-2.418,3.61,3.61,0,0,0-.66-2.254,2.1,2.1,0,0,0-1.754-.863,2.075,2.075,0,0,0-1.727.852A3.925,3.925,0,0,0,17.891,16.867Zm9.422-4.32.047,1.063a3.08,3.08,0,0,1,2.531-1.219q2.68,0,2.7,3.023V21H31.148V15.406a1.946,1.946,0,0,0-.418-1.352,1.675,1.675,0,0,0-1.277-.437,2.086,2.086,0,0,0-1.234.375,2.546,2.546,0,0,0-.828.984V21H25.945V12.547Z" transform="translate(857 5468)" fill="#fff"/>
      <path id="Trazado_647762" data-name="Trazado 647762" d="M-21.949-1.227h6.508V0h-8.281V-1.125l6.234-9.023h-6.133v-1.227h7.93v1.095ZM-14.27-4.3a4.993,4.993,0,0,1,.488-2.234A3.643,3.643,0,0,1-12.422-8.07a3.7,3.7,0,0,1,1.988-.539,3.565,3.565,0,0,1,2.793,1.2,4.6,4.6,0,0,1,1.066,3.18v.1a5.036,5.036,0,0,1-.473,2.215A3.589,3.589,0,0,1-8.4-.391a3.743,3.743,0,0,1-2.02.547,3.556,3.556,0,0,1-2.785-1.2A4.575,4.575,0,0,1-14.27-4.2Zm1.453.172a3.616,3.616,0,0,0,.652,2.258,2.088,2.088,0,0,0,1.746.852,2.075,2.075,0,0,0,1.75-.863A3.955,3.955,0,0,0-8.02-4.3a3.61,3.61,0,0,0-.66-2.254,2.1,2.1,0,0,0-1.754-.863,2.075,2.075,0,0,0-1.727.852A3.925,3.925,0,0,0-12.816-4.133Zm9.422-4.32.047,1.063A3.08,3.08,0,0,1-.816-8.609q2.68,0,2.7,3.023V0H.441V-5.594A1.946,1.946,0,0,0,.023-6.945a1.675,1.675,0,0,0-1.277-.437,2.086,2.086,0,0,0-1.234.375,2.546,2.546,0,0,0-.828.984V0H-4.762V-8.453ZM7.574.156a3.693,3.693,0,0,1-2.8-1.129A4.19,4.19,0,0,1,3.7-3.992v-.266A5.073,5.073,0,0,1,4.18-6.5,3.748,3.748,0,0,1,5.523-8.051a3.378,3.378,0,0,1,1.871-.559A3.166,3.166,0,0,1,9.957-7.523a4.7,4.7,0,0,1,.914,3.109v.6H5.145a3,3,0,0,0,.73,2.02,2.3,2.3,0,0,0,1.777.77,2.517,2.517,0,0,0,1.3-.312,3.259,3.259,0,0,0,.93-.828l.883.688A3.55,3.55,0,0,1,7.574.156Zm-.18-7.578a1.928,1.928,0,0,0-1.469.637A3.1,3.1,0,0,0,5.191-5H9.426v-.109a2.753,2.753,0,0,0-.594-1.707A1.815,1.815,0,0,0,7.395-7.422Zm15.063,3.6h1.578v1.18H22.457V0H21V-2.641h-5.18v-.852l5.094-7.883h1.539Zm-4.992,0H21V-9.4l-.172.313ZM-24.152,17.391a4.185,4.185,0,0,1-1.332,2.785,4.365,4.365,0,0,1-2.98.98,4.008,4.008,0,0,1-3.23-1.445,5.815,5.815,0,0,1-1.215-3.867V14.75a6.481,6.481,0,0,1,.566-2.789,4.231,4.231,0,0,1,1.605-1.848,4.47,4.47,0,0,1,2.406-.645,4.11,4.11,0,0,1,2.906,1.012,4.235,4.235,0,0,1,1.273,2.8H-25.66a3.268,3.268,0,0,0-.848-1.975,2.565,2.565,0,0,0-1.824-.611,2.684,2.684,0,0,0-2.254,1.063,4.882,4.882,0,0,0-.816,3.026v1.1a5.018,5.018,0,0,0,.773,2.948,2.5,2.5,0,0,0,2.164,1.095,2.887,2.887,0,0,0,1.918-.566,3.143,3.143,0,0,0,.887-1.973Zm10.8-1.711a7.037,7.037,0,0,1-.562,2.918,4.261,4.261,0,0,1-1.594,1.9,4.385,4.385,0,0,1-2.406.656A4.348,4.348,0,0,1-20.3,20.5a4.363,4.363,0,0,1-1.613-1.883,6.752,6.752,0,0,1-.59-2.832v-.82a6.953,6.953,0,0,1,.57-2.9,4.347,4.347,0,0,1,1.613-1.926,4.329,4.329,0,0,1,2.387-.668,4.41,4.41,0,0,1,2.41.66,4.253,4.253,0,0,1,1.605,1.914,7.071,7.071,0,0,1,.563,2.918Zm-1.492-.734a5.1,5.1,0,0,0-.812-3.105,2.68,2.68,0,0,0-2.273-1.082,2.651,2.651,0,0,0-2.238,1.082,5,5,0,0,0-.84,3v.836a5.107,5.107,0,0,0,.824,3.082,2.662,2.662,0,0,0,2.27,1.121,2.652,2.652,0,0,0,2.25-1.059,5.079,5.079,0,0,0,.82-3.035Zm12.492.734A7.037,7.037,0,0,1-2.918,18.6a4.261,4.261,0,0,1-1.594,1.9,4.385,4.385,0,0,1-2.406.656A4.348,4.348,0,0,1-9.3,20.5a4.363,4.363,0,0,1-1.613-1.883,6.752,6.752,0,0,1-.59-2.832v-.82a6.953,6.953,0,0,1,.57-2.9A4.347,4.347,0,0,1-9.32,10.137a4.329,4.329,0,0,1,2.387-.668,4.41,4.41,0,0,1,2.41.66,4.253,4.253,0,0,1,1.605,1.914,7.071,7.071,0,0,1,.563,2.918Zm-1.492-.734A5.1,5.1,0,0,0-4.66,11.84a2.68,2.68,0,0,0-2.273-1.082A2.651,2.651,0,0,0-9.172,11.84a5,5,0,0,0-.84,3v.836a5.107,5.107,0,0,0,.824,3.082,2.662,2.662,0,0,0,2.27,1.121,2.652,2.652,0,0,0,2.25-1.059,5.079,5.079,0,0,0,.82-3.035ZM1.4,19.773H6.793V21h-6.9V9.625H1.4ZM10.113,21h-1.5V9.625h1.5ZM21.6,21H20.09l-5.727-8.766V21H12.855V9.625h1.508l5.742,8.8v-8.8H21.6ZM32.66,19.508a3.465,3.465,0,0,1-1.613,1.238,6.517,6.517,0,0,1-2.41.41,4.674,4.674,0,0,1-2.469-.652A4.346,4.346,0,0,1,24.5,18.648a6.408,6.408,0,0,1-.605-2.789v-.992a5.982,5.982,0,0,1,1.2-3.984,4.179,4.179,0,0,1,3.371-1.414,4.316,4.316,0,0,1,2.867.91,3.965,3.965,0,0,1,1.328,2.582h-1.5A2.48,2.48,0,0,0,28.473,10.7a2.655,2.655,0,0,0-2.285,1.06,5.173,5.173,0,0,0-.785,3.069v.93a4.848,4.848,0,0,0,.875,3.046,2.836,2.836,0,0,0,2.367,1.13,5.228,5.228,0,0,0,1.477-.187,2.283,2.283,0,0,0,1.047-.631V16.563H28.535V15.336H32.66Z" transform="translate(959 5468)" fill="#fff"/>
    </g>
    <rect id="Rectángulo_337879" data-name="Rectángulo 337879" width="36" height="8" transform="translate(989 5231)" fill="#00cca7"/>
    <rect id="Rectángulo_337880" data-name="Rectángulo 337880" width="36" height="8" transform="translate(989 5289)" fill="#ffd947"/>
    <path id="Trazado_632782" data-name="Trazado 632782" d="M-8415.036-6279.938s71.6-55.375,106.943-79.879c12.4-8.6,34.3-6.411,58.427-5.584,43.974,1.507,95.106,8.229,106.284,3.163,17.224-7.806,60.52-65.061,89.965-68.431s125.852,130.259,158.74,129.56" transform="translate(8957.709 11712)" fill="none" stroke="#ffd947" stroke-linecap="round" stroke-width="3"/>
    <path id="Trazado_632783" data-name="Trazado 632783" d="M-8406.075-6280.035s91.141-88.617,114.582-88.967,130.155,24.842,155.346,11.2,53.356-47.5,53.356-47.5h83.72l99.266,119.309" transform="translate(8948.748 11712.097)" fill="none" stroke="#00cca7" stroke-linecap="round" stroke-width="3"/>
    <g id="Grupo_904499" data-name="Grupo 904499" transform="translate(-2 12)">
      <path id="Trazado_632777" data-name="Trazado 632777" d="M-8437.422-6404.86H-8086.2" transform="translate(8953 11700)" fill="none" stroke="#fff" stroke-width="2" stroke-dasharray="6"/>
      <path id="Trazado_632784" data-name="Trazado 632784" d="M-8416.3-6367.5h111.209v152.188" transform="translate(8950 11703)" fill="none" stroke="#fff" stroke-width="2" stroke-dasharray="6"/>
      <path id="Trazado_632785" data-name="Trazado 632785" d="M-8407.151-6269.1v65.327" transform="translate(8950 11694)" fill="none" stroke="#fff" stroke-width="2" stroke-dasharray="6"/>
      <path id="Trazado_632786" data-name="Trazado 632786" d="M-8407.151-6269.1v142.808" transform="translate(9213.151 11616.52)" fill="none" stroke="#fff" stroke-width="2" stroke-dasharray="6"/>
      <path id="Trazado_632787" data-name="Trazado 632787" d="M-8407.151-6269.1v171.5" transform="translate(9314.152 11587.829)" fill="none" stroke="#fff" stroke-width="2" stroke-dasharray="6"/>
      <path id="Trazado_632788" data-name="Trazado 632788" d="M-8407.151-6269.1v87.178" transform="translate(9472.184 11672.15)" fill="none" stroke="#fff" stroke-width="2" stroke-dasharray="6"/>
    </g>
    <g id="Grupo_904513" data-name="Grupo 904513" transform="translate(-1 34)">
      <g id="upc" transform="translate(1102.784 5426.484)">
        <g id="Grupo_54848" data-name="Grupo 54848" transform="translate(0 9.215)">
          <g id="Grupo_54847" data-name="Grupo 54847">
            <path id="Trazado_103184" data-name="Trazado 103184" d="M14.989,56.263h-.02a5.606,5.606,0,0,0-5.5,5.584v7.979H1.234a1.234,1.234,0,1,0,0,2.468H9.47v6.489H1.234a1.234,1.234,0,0,0,0,2.468H9.47v6.489H1.234a1.234,1.234,0,0,0,0,2.469H9.47V96.7H1.234a1.234,1.234,0,0,0,0,2.468H9.47v6.489H1.234a1.234,1.234,0,1,0,0,2.468H9.47v4.221a1.234,1.234,0,0,0,2.468,0v-50.5a3.13,3.13,0,0,1,3.069-3.117,1.234,1.234,0,0,0-.018-2.467Z" transform="translate(0 -56.263)" fill="#ffd947"/>
          </g>
        </g>
        <g id="Grupo_54850" data-name="Grupo 54850" transform="translate(9.792 68.957)">
          <g id="Grupo_54849" data-name="Grupo 54849">
            <path id="Trazado_103185" data-name="Trazado 103185" d="M117.173,423.742H65.051a3.108,3.108,0,0,1-2.886-1.937,1.234,1.234,0,1,0-2.284.935,5.566,5.566,0,0,0,5.171,3.471h7.723V434.7a1.234,1.234,0,1,0,2.468,0V426.21h6.489V434.7a1.234,1.234,0,1,0,2.468,0V426.21h6.489V434.7a1.234,1.234,0,1,0,2.468,0V426.21h6.489V434.7a1.234,1.234,0,1,0,2.468,0V426.21H108.6V434.7a1.234,1.234,0,1,0,2.468,0V426.21h6.1a1.234,1.234,0,1,0,0-2.468Z" transform="translate(-59.788 -421.037)" fill="#ffd947"/>
          </g>
        </g>
        <g id="Grupo_54852" data-name="Grupo 54852" transform="translate(21.243 20.986)">
          <g id="Grupo_54851" data-name="Grupo 54851">
            <path id="Trazado_103186" data-name="Trazado 103186" d="M167.13,128.138H133.651a3.948,3.948,0,0,0-3.945,3.945v33.481a3.948,3.948,0,0,0,3.945,3.945H167.13a3.948,3.948,0,0,0,3.945-3.945V132.083A3.948,3.948,0,0,0,167.13,128.138Zm-34.956,3.945a1.477,1.477,0,0,1,1.476-1.476h25.531V143.5a5.863,5.863,0,0,0-4.476,4.476h-9.1v-6.329a5.073,5.073,0,1,0-5.956-5.956h-7.48v-3.606Zm28.241,13.751a3.373,3.373,0,1,1-3.374,3.374A3.377,3.377,0,0,1,160.416,145.834Zm-15.784-6.563a2.6,2.6,0,1,1,2.605-2.605A2.609,2.609,0,0,1,144.632,139.271Zm-5.33,20.173a2.348,2.348,0,1,1,3.5-2.047A2.347,2.347,0,0,1,139.3,159.443Zm9.982,7.6H141v-4.858a4.817,4.817,0,1,0-2.468-.365v5.223h-4.884a1.478,1.478,0,0,1-1.476-1.476V138.157h7.608a5.168,5.168,0,0,0,3.359,3.359v7.692a1.235,1.235,0,0,0,1.234,1.234h4.909Zm19.322-1.476a1.478,1.478,0,0,1-1.476,1.476H151.753V161.7h16.854Zm0-6.33H151.753v-8.792h2.953a5.842,5.842,0,1,0,6.945-6.945h0V130.606h5.48a1.477,1.477,0,0,1,1.476,1.476v27.151Z" transform="translate(-129.706 -128.138)" fill="#ffd947"/>
          </g>
        </g>
        <g id="Grupo_54854" data-name="Grupo 54854" transform="translate(18.692)">
          <g id="Grupo_54853" data-name="Grupo 54853">
            <path id="Trazado_103187" data-name="Trazado 103187" d="M178.059,34.2a1.234,1.234,0,1,0,0-2.468h-8.236V25.246h8.236a1.234,1.234,0,1,0,0-2.468h-8.236V14.8a5.592,5.592,0,0,0-5.585-5.585h-7.723V1.234a1.234,1.234,0,0,0-2.468,0V9.213h-6.489V1.234a1.234,1.234,0,1,0-2.468,0V9.213H138.6V1.234a1.234,1.234,0,1,0-2.468,0V9.213h-6.489V1.234a1.234,1.234,0,1,0-2.468,0V9.213h-6.489V1.234a1.234,1.234,0,0,0-2.468,0V9.213h-2.851a1.234,1.234,0,1,0,0,2.468h48.873a3.12,3.12,0,0,1,3.117,3.117V68.544a3.087,3.087,0,0,1-.966,2.256,1.234,1.234,0,0,0,1.7,1.787,5.541,5.541,0,0,0,1.731-4.043V61.077h8.236a1.234,1.234,0,1,0,0-2.468h-8.236V52.119h8.236a1.234,1.234,0,1,0,0-2.468h-8.236V43.162h8.236a1.234,1.234,0,1,0,0-2.468h-8.236V34.2h8.235Z" transform="translate(-114.131)" fill="#ffd947"/>
          </g>
        </g>
      </g>
    </g>
    <g transform="matrix(1, 0, 0, 1, 389, 5144)" filter="url(#Trazado_621386)">
      <path id="Trazado_621386-2" data-name="Trazado 621386" d="M0,0H606.719L579.141,50.784H27.578Z" transform="translate(108 6)" fill="#ffcd0d"/>
    </g>
    <path id="Trazado_647754" data-name="Trazado 647754" d="M10.336,12.07h-4.5v3.047h5.281V17H3.492V5.625H11.1v1.9H5.836v2.711h4.5Zm6.586,2.594a.727.727,0,0,0-.41-.652,4.659,4.659,0,0,0-1.316-.426q-3.016-.633-3.016-2.562a2.323,2.323,0,0,1,.934-1.879,3.766,3.766,0,0,1,2.441-.754,4.053,4.053,0,0,1,2.574.758,2.388,2.388,0,0,1,.965,1.969H16.836a1.092,1.092,0,0,0-.312-.8A1.322,1.322,0,0,0,15.547,10a1.351,1.351,0,0,0-.883.258.814.814,0,0,0-.312.656.7.7,0,0,0,.355.605,3.657,3.657,0,0,0,1.2.4,9.8,9.8,0,0,1,1.422.379,2.336,2.336,0,0,1,1.789,2.273,2.2,2.2,0,0,1-.992,1.871,4.28,4.28,0,0,1-2.562.715,4.47,4.47,0,0,1-1.887-.379,3.166,3.166,0,0,1-1.293-1.039,2.414,2.414,0,0,1-.469-1.426h2.141a1.179,1.179,0,0,0,.445.922,1.766,1.766,0,0,0,1.109.32,1.635,1.635,0,0,0,.98-.246A.766.766,0,0,0,16.922,14.664Zm6.352-8.2V8.547h1.445V10.2H23.273v4.219a1.007,1.007,0,0,0,.18.672.9.9,0,0,0,.688.2,3.6,3.6,0,0,0,.664-.055v1.711a4.648,4.648,0,0,1-1.367.2,2.156,2.156,0,0,1-2.422-2.4V10.2H19.781V8.547h1.234V6.469Zm7.453,4.2a6.134,6.134,0,0,0-.812-.062,1.654,1.654,0,0,0-1.68.867V17H25.977V8.547h2.133l.063,1.008a2.092,2.092,0,0,1,1.883-1.164,2.366,2.366,0,0,1,.7.1Zm6.148,5.477a2.831,2.831,0,0,1-2.312,1.016,2.67,2.67,0,0,1-2.074-.781,3.335,3.335,0,0,1-.73-2.289V8.547h2.258v5.467q0,1.322,1.2,1.322a1.63,1.63,0,0,0,1.578-.8V8.547h2.266V17H36.938Zm7.406-.8a1.481,1.481,0,0,0,1.016-.344,1.2,1.2,0,0,0,.406-.914H47.82a2.9,2.9,0,0,1-.469,1.574,3.093,3.093,0,0,1-1.262,1.109,3.949,3.949,0,0,1-1.77.395A3.67,3.67,0,0,1,41.461,16a4.56,4.56,0,0,1-1.047-3.184v-.148a4.508,4.508,0,0,1,1.039-3.117A3.627,3.627,0,0,1,44.3,8.391a3.555,3.555,0,0,1,2.543.9,3.2,3.2,0,0,1,.973,2.4H45.7a1.551,1.551,0,0,0-.406-1.072,1.51,1.51,0,0,0-2.223.163,3.333,3.333,0,0,0-.4,1.866v.235a3.375,3.375,0,0,0,.4,1.878A1.377,1.377,0,0,0,44.281,15.336Zm7.531-8.867V8.547h1.445V10.2H51.813v4.219a1.007,1.007,0,0,0,.18.672.9.9,0,0,0,.688.2,3.6,3.6,0,0,0,.664-.055v1.711a4.648,4.648,0,0,1-1.367.2,2.156,2.156,0,0,1-2.422-2.4V10.2H48.32V8.547h1.234V6.469Zm7.766,9.672a2.831,2.831,0,0,1-2.312,1.016,2.67,2.67,0,0,1-2.074-.781,3.335,3.335,0,0,1-.73-2.289V8.547h2.258v5.467q0,1.322,1.2,1.322a1.63,1.63,0,0,0,1.578-.8V8.547h2.266V17H59.641Zm8.641-5.477a6.134,6.134,0,0,0-.812-.062,1.654,1.654,0,0,0-1.68.867V17H63.469V8.547H65.6l.063,1.008a2.092,2.092,0,0,1,1.883-1.164,2.366,2.366,0,0,1,.7.1ZM73.969,17a2.507,2.507,0,0,1-.227-.758,2.732,2.732,0,0,1-2.133.914,3,3,0,0,1-2.059-.719,2.312,2.312,0,0,1-.816-1.812,2.389,2.389,0,0,1,1-2.062,4.915,4.915,0,0,1,2.879-.727h1.039v-.484a1.393,1.393,0,0,0-.3-.937,1.183,1.183,0,0,0-.949-.352,1.345,1.345,0,0,0-.895.273.929.929,0,0,0-.324.75H68.922a2.268,2.268,0,0,1,.453-1.359,3,3,0,0,1,1.281-.98,4.669,4.669,0,0,1,1.859-.355A3.689,3.689,0,0,1,75,9.176a2.747,2.747,0,0,1,.918,2.207v3.664a4.041,4.041,0,0,0,.336,1.82V17ZM72.1,15.43a1.945,1.945,0,0,0,.922-.223,1.462,1.462,0,0,0,.625-.6V13.156H72.8q-1.7,0-1.8,1.172l-.008.133a.9.9,0,0,0,.3.7A1.153,1.153,0,0,0,72.1,15.43ZM89.25,12.852a5.119,5.119,0,0,1-.867,3.168,2.872,2.872,0,0,1-2.422,1.137,2.639,2.639,0,0,1-2.2-1.055l-.1.9H81.633V5h2.258V9.3a2.571,2.571,0,0,1,2.055-.914,2.9,2.9,0,0,1,2.426,1.137,5.126,5.126,0,0,1,.879,3.2Zm-2.258-.164a3.363,3.363,0,0,0-.406-1.871,1.374,1.374,0,0,0-1.211-.59,1.489,1.489,0,0,0-1.484.883v3.336a1.509,1.509,0,0,0,1.5.891,1.394,1.394,0,0,0,1.438-1.078A5.562,5.562,0,0,0,86.992,12.688ZM95.539,17a2.507,2.507,0,0,1-.227-.758,2.732,2.732,0,0,1-2.133.914,3,3,0,0,1-2.059-.719,2.312,2.312,0,0,1-.816-1.812,2.389,2.389,0,0,1,1-2.062,4.915,4.915,0,0,1,2.879-.727h1.039v-.484a1.393,1.393,0,0,0-.3-.937,1.183,1.183,0,0,0-.949-.352,1.345,1.345,0,0,0-.895.273.929.929,0,0,0-.324.75H90.492a2.268,2.268,0,0,1,.453-1.359,3,3,0,0,1,1.281-.98,4.669,4.669,0,0,1,1.859-.355,3.689,3.689,0,0,1,2.48.785,2.747,2.747,0,0,1,.918,2.207v3.664a4.041,4.041,0,0,0,.336,1.82V17Zm-1.867-1.57a1.945,1.945,0,0,0,.922-.223,1.462,1.462,0,0,0,.625-.6V13.156h-.844q-1.7,0-1.8,1.172l-.008.133a.9.9,0,0,0,.3.7A1.153,1.153,0,0,0,93.672,15.43ZM94.531,5h2.461L94.828,7.422H92.992Zm9.266,9.664a.727.727,0,0,0-.41-.652,4.659,4.659,0,0,0-1.316-.426q-3.016-.633-3.016-2.562a2.323,2.323,0,0,1,.934-1.879,3.766,3.766,0,0,1,2.441-.754A4.053,4.053,0,0,1,105,9.148a2.388,2.388,0,0,1,.965,1.969h-2.258a1.092,1.092,0,0,0-.312-.8,1.322,1.322,0,0,0-.977-.316,1.351,1.351,0,0,0-.883.258.814.814,0,0,0-.312.656.7.7,0,0,0,.355.605,3.657,3.657,0,0,0,1.2.4,9.8,9.8,0,0,1,1.422.379,2.336,2.336,0,0,1,1.789,2.273A2.2,2.2,0,0,1,105,16.441a4.28,4.28,0,0,1-2.562.715,4.47,4.47,0,0,1-1.887-.379,3.166,3.166,0,0,1-1.293-1.039,2.414,2.414,0,0,1-.469-1.426h2.141a1.179,1.179,0,0,0,.445.922,1.766,1.766,0,0,0,1.109.32,1.635,1.635,0,0,0,.98-.246A.766.766,0,0,0,103.8,14.664ZM109.828,17h-2.266V8.547h2.266Zm-2.4-10.641a1.112,1.112,0,0,1,.34-.836,1.465,1.465,0,0,1,1.848,0,1.105,1.105,0,0,1,.344.836,1.108,1.108,0,0,1-.348.844,1.448,1.448,0,0,1-1.836,0A1.108,1.108,0,0,1,107.43,6.359Zm7.773,8.977a1.481,1.481,0,0,0,1.016-.344,1.2,1.2,0,0,0,.406-.914h2.117a2.9,2.9,0,0,1-.469,1.574,3.093,3.093,0,0,1-1.262,1.109,3.949,3.949,0,0,1-1.77.395A3.67,3.67,0,0,1,112.383,16a4.56,4.56,0,0,1-1.047-3.184v-.148a4.508,4.508,0,0,1,1.039-3.117,3.627,3.627,0,0,1,2.852-1.164,3.555,3.555,0,0,1,2.543.9,3.2,3.2,0,0,1,.973,2.4h-2.117a1.551,1.551,0,0,0-.406-1.072,1.51,1.51,0,0,0-2.223.163,3.333,3.333,0,0,0-.4,1.866v.235a3.375,3.375,0,0,0,.4,1.878A1.377,1.377,0,0,0,115.2,15.336ZM124.93,17a2.507,2.507,0,0,1-.227-.758,2.732,2.732,0,0,1-2.133.914,3,3,0,0,1-2.059-.719,2.312,2.312,0,0,1-.816-1.812,2.389,2.389,0,0,1,1-2.062,4.915,4.915,0,0,1,2.879-.727h1.039v-.484a1.393,1.393,0,0,0-.3-.937,1.183,1.183,0,0,0-.949-.352,1.345,1.345,0,0,0-.895.273.929.929,0,0,0-.324.75h-2.258a2.268,2.268,0,0,1,.453-1.359,3,3,0,0,1,1.281-.98,4.669,4.669,0,0,1,1.859-.355,3.689,3.689,0,0,1,2.48.785,2.747,2.747,0,0,1,.918,2.207v3.664a4.041,4.041,0,0,0,.336,1.82V17Zm-1.867-1.57a1.945,1.945,0,0,0,.922-.223,1.462,1.462,0,0,0,.625-.6V13.156h-.844q-1.7,0-1.8,1.172l-.008.133a.9.9,0,0,0,.3.7A1.153,1.153,0,0,0,123.063,15.43Zm9.18-2.719a5.094,5.094,0,0,1,.887-3.148,2.877,2.877,0,0,1,2.426-1.172,2.589,2.589,0,0,1,2.039.922V5h2.266V17H137.82l-.109-.9a2.657,2.657,0,0,1-2.172,1.055,2.869,2.869,0,0,1-2.395-1.176A5.258,5.258,0,0,1,132.242,12.711Zm2.258.168a3.337,3.337,0,0,0,.414,1.823,1.349,1.349,0,0,0,1.2.634,1.511,1.511,0,0,0,1.477-.884V11.111a1.489,1.489,0,0,0-1.461-.884Q134.5,10.227,134.5,12.879Zm11,4.277a4.15,4.15,0,0,1-3.027-1.141,4.054,4.054,0,0,1-1.168-3.039v-.219a5.106,5.106,0,0,1,.492-2.277,3.612,3.612,0,0,1,1.395-1.547,3.914,3.914,0,0,1,2.059-.543,3.508,3.508,0,0,1,2.73,1.094,4.444,4.444,0,0,1,1,3.1v.922h-5.383a2.1,2.1,0,0,0,.66,1.328,2,2,0,0,0,1.395.5,2.437,2.437,0,0,0,2.039-.945l1.109,1.242a3.389,3.389,0,0,1-1.375,1.121A4.511,4.511,0,0,1,145.5,17.156Zm-.258-6.945a1.411,1.411,0,0,0-1.09.455,2.357,2.357,0,0,0-.535,1.3h3.141v-.181a1.681,1.681,0,0,0-.406-1.165A1.456,1.456,0,0,0,145.242,10.211Zm14.063,5.93a2.831,2.831,0,0,1-2.312,1.016,2.67,2.67,0,0,1-2.074-.781,3.335,3.335,0,0,1-.73-2.289V8.547h2.258v5.467q0,1.322,1.2,1.322a1.63,1.63,0,0,0,1.578-.8V8.547h2.266V17h-2.125Zm5.969-7.594.07.977a2.951,2.951,0,0,1,2.43-1.133,2.453,2.453,0,0,1,2,.789,3.682,3.682,0,0,1,.672,2.359V17h-2.258V11.594a1.465,1.465,0,0,0-.312-1.043,1.4,1.4,0,0,0-1.039-.324,1.553,1.553,0,0,0-1.43.813V17h-2.258V8.547Zm18.477,4.3a5.07,5.07,0,0,1-.887,3.129,2.843,2.843,0,0,1-2.395,1.176,2.633,2.633,0,0,1-2.07-.891V20.25h-2.258V8.547h2.094l.078.828a2.654,2.654,0,0,1,2.141-.984,2.862,2.862,0,0,1,2.43,1.156,5.207,5.207,0,0,1,.867,3.188Zm-2.258-.164a3.327,3.327,0,0,0-.418-1.82,1.361,1.361,0,0,0-1.215-.641,1.479,1.479,0,0,0-1.461.813V14.5a1.5,1.5,0,0,0,1.477.836Q181.492,15.336,181.492,12.688Zm7.547,4.469a4.15,4.15,0,0,1-3.027-1.141,4.054,4.054,0,0,1-1.168-3.039v-.219a5.106,5.106,0,0,1,.492-2.277,3.612,3.612,0,0,1,1.395-1.547,3.914,3.914,0,0,1,2.059-.543,3.508,3.508,0,0,1,2.73,1.094,4.444,4.444,0,0,1,1,3.1v.922h-5.383a2.1,2.1,0,0,0,.66,1.328,2,2,0,0,0,1.395.5,2.437,2.437,0,0,0,2.039-.945l1.109,1.242a3.389,3.389,0,0,1-1.375,1.121A4.511,4.511,0,0,1,189.039,17.156Zm-.258-6.945a1.411,1.411,0,0,0-1.09.455,2.357,2.357,0,0,0-.535,1.3H190.3v-.181a1.681,1.681,0,0,0-.406-1.165A1.456,1.456,0,0,0,188.781,10.211Zm9.766.453a6.134,6.134,0,0,0-.812-.062,1.654,1.654,0,0,0-1.68.867V17H193.8V8.547h2.133l.063,1.008a2.092,2.092,0,0,1,1.883-1.164,2.366,2.366,0,0,1,.7.1ZM200.18,17V10.2h-1.258V8.547h1.258V8.156a3.17,3.17,0,0,1,.98-2.457,3.945,3.945,0,0,1,2.723-.863,9.031,9.031,0,0,1,2.563.461l-.328,1.867a10,10,0,0,0-1.187-.293,5.834,5.834,0,0,0-.906-.066q-1.578,0-1.578,1.4v.344h1.664V10.2h-1.664V17Zm7.32,0h-2.266V8.547H207.5Zm4.25,0h-2.266V5h2.266Zm5.492-4.289a5.094,5.094,0,0,1,.887-3.148,2.877,2.877,0,0,1,2.426-1.172,2.589,2.589,0,0,1,2.039.922V5h2.266V17H222.82l-.109-.9a2.657,2.657,0,0,1-2.172,1.055,2.869,2.869,0,0,1-2.395-1.176A5.258,5.258,0,0,1,217.242,12.711Zm2.258.168a3.337,3.337,0,0,0,.414,1.823,1.349,1.349,0,0,0,1.2.634,1.511,1.511,0,0,0,1.477-.884V11.111a1.489,1.489,0,0,0-1.461-.884Q219.5,10.227,219.5,12.879Zm11,4.277a4.15,4.15,0,0,1-3.027-1.141,4.054,4.054,0,0,1-1.168-3.039v-.219a5.106,5.106,0,0,1,.492-2.277,3.612,3.612,0,0,1,1.395-1.547,3.914,3.914,0,0,1,2.059-.543,3.508,3.508,0,0,1,2.73,1.094,4.444,4.444,0,0,1,1,3.1v.922h-5.383a2.1,2.1,0,0,0,.66,1.328,2,2,0,0,0,1.395.5,2.437,2.437,0,0,0,2.039-.945l1.109,1.242a3.389,3.389,0,0,1-1.375,1.121A4.511,4.511,0,0,1,230.5,17.156Zm-.258-6.945a1.411,1.411,0,0,0-1.09.455,2.357,2.357,0,0,0-.535,1.3h3.141v-.181a1.681,1.681,0,0,0-.406-1.165A1.456,1.456,0,0,0,230.242,10.211Zm11.7-3.742V8.547h1.445V10.2h-1.445v4.219a1.007,1.007,0,0,0,.18.672.9.9,0,0,0,.688.2,3.6,3.6,0,0,0,.664-.055v1.711a4.648,4.648,0,0,1-1.367.2,2.156,2.156,0,0,1-2.422-2.4V10.2h-1.234V8.547h1.234V6.469Zm6.594,10.688a4.15,4.15,0,0,1-3.027-1.141,4.054,4.054,0,0,1-1.168-3.039v-.219a5.106,5.106,0,0,1,.492-2.277,3.612,3.612,0,0,1,1.395-1.547,3.914,3.914,0,0,1,2.059-.543,3.508,3.508,0,0,1,2.73,1.094,4.444,4.444,0,0,1,1,3.1v.922h-5.383a2.1,2.1,0,0,0,.66,1.328,2,2,0,0,0,1.395.5,2.437,2.437,0,0,0,2.039-.945l1.109,1.242a3.389,3.389,0,0,1-1.375,1.121A4.511,4.511,0,0,1,248.539,17.156Zm-.258-6.945a1.411,1.411,0,0,0-1.09.455,2.357,2.357,0,0,0-.535,1.3H249.8v-.181a1.681,1.681,0,0,0-.406-1.165A1.456,1.456,0,0,0,248.281,10.211Zm7.133-1.664.07.945a2.971,2.971,0,0,1,2.43-1.1,2.255,2.255,0,0,1,2.242,1.289A2.9,2.9,0,0,1,262.7,8.391a2.521,2.521,0,0,1,2.047.8,3.681,3.681,0,0,1,.672,2.41V17h-2.266V11.609a1.61,1.61,0,0,0-.281-1.051,1.246,1.246,0,0,0-.992-.332,1.409,1.409,0,0,0-1.406.969l.008,5.8h-2.258V11.617a1.59,1.59,0,0,0-.289-1.062,1.259,1.259,0,0,0-.984-.328,1.463,1.463,0,0,0-1.391.8V17H253.3V8.547Zm19.344,4.3a5.07,5.07,0,0,1-.887,3.129,2.843,2.843,0,0,1-2.395,1.176,2.633,2.633,0,0,1-2.07-.891V20.25h-2.258V8.547h2.094l.078.828a2.654,2.654,0,0,1,2.141-.984,2.862,2.862,0,0,1,2.43,1.156,5.207,5.207,0,0,1,.867,3.188Zm-2.258-.164a3.327,3.327,0,0,0-.418-1.82,1.361,1.361,0,0,0-1.215-.641,1.478,1.478,0,0,0-1.461.813V14.5a1.5,1.5,0,0,0,1.477.836Q272.5,15.336,272.5,12.688Zm7.547,4.469a4.15,4.15,0,0,1-3.027-1.141,4.054,4.054,0,0,1-1.168-3.039v-.219a5.106,5.106,0,0,1,.492-2.277,3.612,3.612,0,0,1,1.395-1.547,3.914,3.914,0,0,1,2.059-.543,3.508,3.508,0,0,1,2.73,1.094,4.444,4.444,0,0,1,1,3.1v.922h-5.383a2.1,2.1,0,0,0,.66,1.328,2,2,0,0,0,1.395.5,2.437,2.437,0,0,0,2.039-.945l1.109,1.242a3.389,3.389,0,0,1-1.375,1.121A4.511,4.511,0,0,1,280.047,17.156Zm-.258-6.945a1.411,1.411,0,0,0-1.09.455,2.357,2.357,0,0,0-.535,1.3H281.3v-.181a1.681,1.681,0,0,0-.406-1.165A1.456,1.456,0,0,0,279.789,10.211Zm9.766.453a6.134,6.134,0,0,0-.812-.062,1.654,1.654,0,0,0-1.68.867V17H284.8V8.547h2.133L287,9.555a2.092,2.092,0,0,1,1.883-1.164,2.366,2.366,0,0,1,.7.1ZM295.3,17a2.508,2.508,0,0,1-.227-.758,2.732,2.732,0,0,1-2.133.914,3,3,0,0,1-2.059-.719,2.312,2.312,0,0,1-.816-1.812,2.389,2.389,0,0,1,1-2.062,4.915,4.915,0,0,1,2.879-.727h1.039v-.484a1.393,1.393,0,0,0-.3-.937,1.183,1.183,0,0,0-.949-.352,1.345,1.345,0,0,0-.895.273.929.929,0,0,0-.324.75h-2.258a2.268,2.268,0,0,1,.453-1.359,3,3,0,0,1,1.281-.98,4.669,4.669,0,0,1,1.859-.355,3.689,3.689,0,0,1,2.48.785,2.747,2.747,0,0,1,.918,2.207v3.664a4.041,4.041,0,0,0,.336,1.82V17Zm-1.867-1.57a1.945,1.945,0,0,0,.922-.223,1.462,1.462,0,0,0,.625-.6V13.156h-.844q-1.7,0-1.8,1.172l-.008.133a.9.9,0,0,0,.3.7A1.153,1.153,0,0,0,293.438,15.43Zm8.25-8.961V8.547h1.445V10.2h-1.445v4.219a1.007,1.007,0,0,0,.18.672.9.9,0,0,0,.688.2,3.6,3.6,0,0,0,.664-.055v1.711a4.648,4.648,0,0,1-1.367.2,2.156,2.156,0,0,1-2.422-2.4V10.2H298.2V8.547h1.234V6.469Zm7.766,9.672a2.831,2.831,0,0,1-2.312,1.016,2.67,2.67,0,0,1-2.074-.781,3.335,3.335,0,0,1-.73-2.289V8.547h2.258v5.467q0,1.322,1.2,1.322a1.63,1.63,0,0,0,1.578-.8V8.547h2.266V17h-2.125Zm8.641-5.477a6.134,6.134,0,0,0-.812-.062,1.654,1.654,0,0,0-1.68.867V17h-2.258V8.547h2.133l.063,1.008a2.092,2.092,0,0,1,1.883-1.164,2.366,2.366,0,0,1,.7.1ZM323.844,17a2.508,2.508,0,0,1-.227-.758,2.732,2.732,0,0,1-2.133.914,3,3,0,0,1-2.059-.719,2.312,2.312,0,0,1-.816-1.812,2.389,2.389,0,0,1,1-2.062,4.915,4.915,0,0,1,2.879-.727h1.039v-.484a1.393,1.393,0,0,0-.3-.937,1.183,1.183,0,0,0-.949-.352,1.345,1.345,0,0,0-.895.273.929.929,0,0,0-.324.75H318.8a2.268,2.268,0,0,1,.453-1.359,3,3,0,0,1,1.281-.98,4.669,4.669,0,0,1,1.859-.355,3.689,3.689,0,0,1,2.48.785,2.747,2.747,0,0,1,.918,2.207v3.664a4.041,4.041,0,0,0,.336,1.82V17Zm-1.867-1.57a1.945,1.945,0,0,0,.922-.223,1.462,1.462,0,0,0,.625-.6V13.156h-.844q-1.7,0-1.8,1.172l-.008.133a.9.9,0,0,0,.3.7A1.153,1.153,0,0,0,321.977,15.43Zm12.234-8.961V8.547h1.445V10.2h-1.445v4.219a1.007,1.007,0,0,0,.18.672.9.9,0,0,0,.688.2,3.6,3.6,0,0,0,.664-.055v1.711a4.648,4.648,0,0,1-1.367.2,2.156,2.156,0,0,1-2.422-2.4V10.2h-1.234V8.547h1.234V6.469ZM339.352,17h-2.258V8.547h2.258Zm-.664-11.883h2.461l-2.164,2.422h-1.836Zm10.219,7.734a5.07,5.07,0,0,1-.887,3.129,2.843,2.843,0,0,1-2.395,1.176,2.633,2.633,0,0,1-2.07-.891V20.25H341.3V8.547h2.094l.078.828a2.654,2.654,0,0,1,2.141-.984,2.862,2.862,0,0,1,2.43,1.156,5.207,5.207,0,0,1,.867,3.188Zm-2.258-.164a3.327,3.327,0,0,0-.418-1.82,1.361,1.361,0,0,0-1.215-.641,1.478,1.478,0,0,0-1.461.813V14.5a1.5,1.5,0,0,0,1.477.836Q346.648,15.336,346.648,12.688ZM352.688,17h-2.266V8.547h2.266Zm-2.4-10.641a1.112,1.112,0,0,1,.34-.836,1.465,1.465,0,0,1,1.848,0,1.105,1.105,0,0,1,.344.836,1.108,1.108,0,0,1-.348.844,1.448,1.448,0,0,1-1.836,0A1.108,1.108,0,0,1,350.289,6.359Zm7.773,8.977a1.481,1.481,0,0,0,1.016-.344,1.2,1.2,0,0,0,.406-.914H361.6a2.9,2.9,0,0,1-.469,1.574,3.093,3.093,0,0,1-1.262,1.109,3.949,3.949,0,0,1-1.77.395A3.67,3.67,0,0,1,355.242,16,4.56,4.56,0,0,1,354.2,12.82v-.148a4.508,4.508,0,0,1,1.039-3.117,3.627,3.627,0,0,1,2.852-1.164,3.555,3.555,0,0,1,2.543.9,3.2,3.2,0,0,1,.973,2.4h-2.117a1.551,1.551,0,0,0-.406-1.072,1.51,1.51,0,0,0-2.223.163,3.333,3.333,0,0,0-.4,1.866v.235a3.375,3.375,0,0,0,.4,1.878A1.377,1.377,0,0,0,358.063,15.336Zm4.477-2.641a5.013,5.013,0,0,1,.484-2.242,3.546,3.546,0,0,1,1.395-1.523,4.069,4.069,0,0,1,2.113-.539,3.849,3.849,0,0,1,2.793,1.047,4.2,4.2,0,0,1,1.207,2.844l.016.578a4.418,4.418,0,0,1-1.086,3.121,4.209,4.209,0,0,1-5.832,0,4.5,4.5,0,0,1-1.09-3.187Zm2.258.16a3.16,3.16,0,0,0,.453,1.843,1.628,1.628,0,0,0,2.578.008,3.458,3.458,0,0,0,.461-2.015,3.128,3.128,0,0,0-.461-1.831,1.5,1.5,0,0,0-1.3-.649,1.474,1.474,0,0,0-1.281.646A3.516,3.516,0,0,0,364.8,12.856Zm10.773-.145a5.094,5.094,0,0,1,.887-3.148,2.877,2.877,0,0,1,2.426-1.172,2.589,2.589,0,0,1,2.039.922V5h2.266V17h-2.039l-.109-.9a2.657,2.657,0,0,1-2.172,1.055,2.869,2.869,0,0,1-2.395-1.176A5.258,5.258,0,0,1,375.57,12.711Zm2.258.168a3.337,3.337,0,0,0,.414,1.823,1.349,1.349,0,0,0,1.2.634,1.511,1.511,0,0,0,1.477-.884V11.111a1.489,1.489,0,0,0-1.461-.884Q377.828,10.227,377.828,12.879Zm11,4.277a4.15,4.15,0,0,1-3.027-1.141,4.054,4.054,0,0,1-1.168-3.039v-.219a5.106,5.106,0,0,1,.492-2.277,3.612,3.612,0,0,1,1.395-1.547,3.914,3.914,0,0,1,2.059-.543,3.508,3.508,0,0,1,2.73,1.094,4.444,4.444,0,0,1,1,3.1v.922h-5.383a2.1,2.1,0,0,0,.66,1.328,2,2,0,0,0,1.395.5,2.437,2.437,0,0,0,2.039-.945l1.109,1.242a3.389,3.389,0,0,1-1.375,1.121A4.511,4.511,0,0,1,388.828,17.156Zm-.258-6.945a1.411,1.411,0,0,0-1.09.455,2.357,2.357,0,0,0-.535,1.3h3.141v-.181a1.681,1.681,0,0,0-.406-1.165A1.456,1.456,0,0,0,388.57,10.211Zm14.063,5.93a2.831,2.831,0,0,1-2.312,1.016,2.67,2.67,0,0,1-2.074-.781,3.335,3.335,0,0,1-.73-2.289V8.547h2.258v5.467q0,1.322,1.2,1.322a1.63,1.63,0,0,0,1.578-.8V8.547h2.266V17H402.7ZM408.6,8.547l.07.977a2.951,2.951,0,0,1,2.43-1.133,2.453,2.453,0,0,1,2,.789,3.681,3.681,0,0,1,.672,2.359V17h-2.258V11.594a1.465,1.465,0,0,0-.312-1.043,1.4,1.4,0,0,0-1.039-.324,1.553,1.553,0,0,0-1.43.813V17h-2.258V8.547Zm13.07.922a2.818,2.818,0,0,1,2.258-1.078q2.75,0,2.789,3.2V17h-2.258V11.648a1.57,1.57,0,0,0-.312-1.074,1.34,1.34,0,0,0-1.039-.348,1.537,1.537,0,0,0-1.437.766V17h-2.258V5h2.258Zm6.4,3.227a5.013,5.013,0,0,1,.484-2.242,3.546,3.546,0,0,1,1.395-1.523,4.069,4.069,0,0,1,2.113-.539,3.849,3.849,0,0,1,2.793,1.047,4.2,4.2,0,0,1,1.207,2.844l.016.578a4.418,4.418,0,0,1-1.086,3.121,4.209,4.209,0,0,1-5.832,0,4.5,4.5,0,0,1-1.09-3.187Zm2.258.16a3.16,3.16,0,0,0,.453,1.843,1.628,1.628,0,0,0,2.578.008,3.458,3.458,0,0,0,.461-2.015,3.128,3.128,0,0,0-.461-1.831,1.5,1.5,0,0,0-1.3-.649,1.474,1.474,0,0,0-1.281.646A3.516,3.516,0,0,0,430.328,12.856Zm11.891-2.192a6.134,6.134,0,0,0-.812-.062,1.654,1.654,0,0,0-1.68.867V17h-2.258V8.547H439.6l.063,1.008a2.092,2.092,0,0,1,1.883-1.164,2.366,2.366,0,0,1,.7.1Zm3.164-2.117.07.977a2.951,2.951,0,0,1,2.43-1.133,2.453,2.453,0,0,1,2,.789,3.681,3.681,0,0,1,.672,2.359V17H448.3V11.594a1.465,1.465,0,0,0-.312-1.043,1.4,1.4,0,0,0-1.039-.324,1.553,1.553,0,0,0-1.43.813V17h-2.258V8.547Zm6.531,4.148a5.013,5.013,0,0,1,.484-2.242,3.546,3.546,0,0,1,1.395-1.523,4.069,4.069,0,0,1,2.113-.539A3.849,3.849,0,0,1,458.7,9.438a4.2,4.2,0,0,1,1.207,2.844l.016.578a4.418,4.418,0,0,1-1.086,3.121,4.209,4.209,0,0,1-5.832,0,4.5,4.5,0,0,1-1.09-3.187Zm2.258.16a3.16,3.16,0,0,0,.453,1.843,1.628,1.628,0,0,0,2.578.008,3.458,3.458,0,0,0,.461-2.015,3.128,3.128,0,0,0-.461-1.831,1.5,1.5,0,0,0-1.3-.649,1.474,1.474,0,0,0-1.281.646A3.516,3.516,0,0,0,454.172,12.856Zm10.773-.145a5.094,5.094,0,0,1,.887-3.148,2.877,2.877,0,0,1,2.426-1.172,2.589,2.589,0,0,1,2.039.922V5h2.266V17h-2.039l-.109-.9a2.657,2.657,0,0,1-2.172,1.055,2.869,2.869,0,0,1-2.395-1.176A5.258,5.258,0,0,1,464.945,12.711Zm2.258.168a3.337,3.337,0,0,0,.414,1.823,1.349,1.349,0,0,0,1.2.634,1.511,1.511,0,0,0,1.477-.884V11.111a1.489,1.489,0,0,0-1.461-.884Q467.2,10.227,467.2,12.879Zm11,4.277a4.15,4.15,0,0,1-3.027-1.141,4.054,4.054,0,0,1-1.168-3.039v-.219a5.106,5.106,0,0,1,.492-2.277,3.612,3.612,0,0,1,1.395-1.547,3.914,3.914,0,0,1,2.059-.543,3.508,3.508,0,0,1,2.73,1.094,4.444,4.444,0,0,1,1,3.1v.922H476.3a2.1,2.1,0,0,0,.66,1.328,2,2,0,0,0,1.395.5,2.437,2.437,0,0,0,2.039-.945l1.109,1.242a3.389,3.389,0,0,1-1.375,1.121A4.511,4.511,0,0,1,478.2,17.156Zm-.258-6.945a1.411,1.411,0,0,0-1.09.455,2.357,2.357,0,0,0-.535,1.3h3.141v-.181a1.681,1.681,0,0,0-.406-1.165A1.456,1.456,0,0,0,477.945,10.211Zm13.75.453a6.134,6.134,0,0,0-.812-.062,1.654,1.654,0,0,0-1.68.867V17h-2.258V8.547h2.133l.063,1.008a2.092,2.092,0,0,1,1.883-1.164,2.366,2.366,0,0,1,.7.1Zm4.977,6.492a4.15,4.15,0,0,1-3.027-1.141,4.054,4.054,0,0,1-1.168-3.039v-.219a5.106,5.106,0,0,1,.492-2.277,3.612,3.612,0,0,1,1.395-1.547,3.914,3.914,0,0,1,2.059-.543,3.508,3.508,0,0,1,2.73,1.094,4.444,4.444,0,0,1,1,3.1v.922h-5.383a2.1,2.1,0,0,0,.66,1.328,2,2,0,0,0,1.395.5,2.437,2.437,0,0,0,2.039-.945l1.109,1.242a3.389,3.389,0,0,1-1.375,1.121A4.511,4.511,0,0,1,496.672,17.156Zm-.258-6.945a1.411,1.411,0,0,0-1.09.455,2.357,2.357,0,0,0-.535,1.3h3.141v-.181a1.681,1.681,0,0,0-.406-1.165A1.456,1.456,0,0,0,496.414,10.211Zm10.68-3.461a10.866,10.866,0,0,0-1.25-.078q-1.531,0-1.531,1.3v.57h1.68V10.2h-1.68V17h-2.266V10.2h-1.258V8.547h1.258V7.891a2.888,2.888,0,0,1,.922-2.262,3.769,3.769,0,0,1,2.563-.793q1.18,0,3.828.25V17h-2.266Zm9.2,9.391a2.831,2.831,0,0,1-2.312,1.016,2.67,2.67,0,0,1-2.074-.781,3.335,3.335,0,0,1-.73-2.289V8.547h2.258v5.467q0,1.322,1.2,1.322a1.63,1.63,0,0,0,1.578-.8V8.547h2.266V17h-2.125Zm6.281-7.594v8.914a3.024,3.024,0,0,1-.742,2.176,2.821,2.821,0,0,1-2.141.777,4.591,4.591,0,0,1-1.117-.133V18.492a4.238,4.238,0,0,0,.711.07q1.023,0,1.023-1.086V8.547Zm-2.445-2.187a1.112,1.112,0,0,1,.34-.836,1.47,1.47,0,0,1,1.852,0,1.112,1.112,0,0,1,.34.836,1.109,1.109,0,0,1-.348.844,1.448,1.448,0,0,1-1.836,0A1.109,1.109,0,0,1,520.133,6.359Zm3.859,6.336a5.013,5.013,0,0,1,.484-2.242,3.546,3.546,0,0,1,1.395-1.523,4.069,4.069,0,0,1,2.113-.539,3.849,3.849,0,0,1,2.793,1.047,4.2,4.2,0,0,1,1.207,2.844l.016.578a4.418,4.418,0,0,1-1.086,3.121,4.209,4.209,0,0,1-5.832,0,4.5,4.5,0,0,1-1.09-3.187Zm2.258.16A3.16,3.16,0,0,0,526.7,14.7a1.628,1.628,0,0,0,2.578.008,3.457,3.457,0,0,0,.461-2.015,3.128,3.128,0,0,0-.461-1.831,1.5,1.5,0,0,0-1.3-.649,1.474,1.474,0,0,0-1.281.646A3.516,3.516,0,0,0,526.25,12.856Z" transform="translate(533 5164.892)" fill="#12263f"/>
    <g id="Grupo_904512" data-name="Grupo 904512" transform="translate(158.863 13)">
      <circle id="Elipse_6886-3" data-name="Elipse 6886" cx="7" cy="7" r="7" transform="translate(638 5251)" fill="#00cca7"/>
      <g id="Grupo_904505-3" data-name="Grupo 904505" transform="translate(639.5 5334.645) rotate(-90)">
        <rect id="Rectángulo_6953-7" data-name="Rectángulo 6953" width="67.704" height="3" transform="translate(7.5 4)" fill="#00cca7"/>
        <path id="Polígono_1-7" data-name="Polígono 1" d="M5.5,0,11,12H0Z" transform="translate(0 11) rotate(-90)" fill="#00cca7"/>
      </g>
    </g>
    <path id="Trazado_647753" data-name="Trazado 647753" d="M183.346,15h-1.319l-5.011-7.67V15H175.7V5.047h1.319l5.024,7.7v-7.7h1.306Zm1.8-3.767a4.369,4.369,0,0,1,.427-1.955,3.187,3.187,0,0,1,1.189-1.34,3.238,3.238,0,0,1,1.74-.472,3.119,3.119,0,0,1,2.444,1.046,4.024,4.024,0,0,1,.933,2.782v.089a4.407,4.407,0,0,1-.414,1.938,3.14,3.14,0,0,1-1.183,1.336,3.275,3.275,0,0,1-1.767.479,3.111,3.111,0,0,1-2.437-1.046,4,4,0,0,1-.933-2.769Zm1.271.15a3.164,3.164,0,0,0,.571,1.976,1.934,1.934,0,0,0,3.059-.01,3.46,3.46,0,0,0,.567-2.116,3.159,3.159,0,0,0-.578-1.972,1.836,1.836,0,0,0-1.535-.755,1.816,1.816,0,0,0-1.511.745A3.435,3.435,0,0,0,186.416,11.384Zm8.764-5.571V7.6h1.381v.978h-1.381v4.593a1.027,1.027,0,0,0,.185.667.777.777,0,0,0,.629.222,3.062,3.062,0,0,0,.6-.082V15a3.688,3.688,0,0,1-.971.136,1.575,1.575,0,0,1-1.278-.513,2.2,2.2,0,0,1-.431-1.456V8.581h-1.347V7.6h1.347V5.813ZM202.6,15a2.657,2.657,0,0,1-.178-.779,2.822,2.822,0,0,1-2.105.916,2.611,2.611,0,0,1-1.794-.619,2,2,0,0,1-.7-1.569,2.091,2.091,0,0,1,.878-1.794,4.142,4.142,0,0,1,2.471-.639h1.23V9.935a1.42,1.42,0,0,0-.4-1.056,1.593,1.593,0,0,0-1.169-.393,1.844,1.844,0,0,0-1.135.342,1.007,1.007,0,0,0-.458.827h-1.271a1.745,1.745,0,0,1,.393-1.07,2.683,2.683,0,0,1,1.066-.817,3.588,3.588,0,0,1,1.48-.3,2.924,2.924,0,0,1,2,.639,2.306,2.306,0,0,1,.752,1.76v3.4a4.162,4.162,0,0,0,.26,1.62V15Zm-2.1-.964a2.223,2.223,0,0,0,1.128-.308,1.861,1.861,0,0,0,.772-.8V11.411h-.991q-2.324,0-2.324,1.36a1.151,1.151,0,0,0,.4.93A1.524,1.524,0,0,0,200.5,14.036Zm5.175.3a.792.792,0,0,1,.195-.547.742.742,0,0,1,.584-.219.765.765,0,0,1,.591.219.776.776,0,0,1,.2.547.734.734,0,0,1-.2.526.778.778,0,0,1-.591.212.7.7,0,0,1-.779-.738ZM219.6,6.12h-3.2V15H215.1V6.12h-3.192V5.047h7.7Zm.267,5.113a4.369,4.369,0,0,1,.427-1.955,3.187,3.187,0,0,1,1.189-1.34,3.238,3.238,0,0,1,1.74-.472,3.119,3.119,0,0,1,2.444,1.046,4.024,4.024,0,0,1,.933,2.782v.089a4.407,4.407,0,0,1-.414,1.938,3.14,3.14,0,0,1-1.183,1.336,3.275,3.275,0,0,1-1.767.479,3.111,3.111,0,0,1-2.437-1.046,4,4,0,0,1-.933-2.769Zm1.271.15a3.164,3.164,0,0,0,.571,1.976,1.934,1.934,0,0,0,3.059-.01,3.46,3.46,0,0,0,.567-2.116,3.159,3.159,0,0,0-.578-1.972,1.836,1.836,0,0,0-1.535-.755,1.816,1.816,0,0,0-1.511.745A3.435,3.435,0,0,0,221.142,11.384Zm8.237-3.78.034.82a2.732,2.732,0,0,1,2.194-.957,2.115,2.115,0,0,1,2.112,1.189,2.8,2.8,0,0,1,.96-.861,2.837,2.837,0,0,1,1.4-.328q2.434,0,2.475,2.577V15h-1.265V10.119a1.7,1.7,0,0,0-.362-1.186,1.6,1.6,0,0,0-1.217-.393,1.677,1.677,0,0,0-1.169.42,1.706,1.706,0,0,0-.54,1.131V15h-1.271V10.153A1.411,1.411,0,0,0,231.15,8.54a1.692,1.692,0,0,0-1.7,1.06V15h-1.265V7.6ZM245.027,15a2.657,2.657,0,0,1-.178-.779,2.822,2.822,0,0,1-2.105.916,2.611,2.611,0,0,1-1.794-.619,2,2,0,0,1-.7-1.569,2.091,2.091,0,0,1,.878-1.794,4.142,4.142,0,0,1,2.471-.639h1.23V9.935a1.42,1.42,0,0,0-.4-1.056,1.593,1.593,0,0,0-1.169-.393,1.844,1.844,0,0,0-1.135.342,1.007,1.007,0,0,0-.458.827H240.4a1.745,1.745,0,0,1,.393-1.07,2.683,2.683,0,0,1,1.066-.817,3.588,3.588,0,0,1,1.48-.3,2.924,2.924,0,0,1,2,.639,2.306,2.306,0,0,1,.752,1.76v3.4a4.162,4.162,0,0,0,.26,1.62V15Zm-2.1-.964a2.223,2.223,0,0,0,1.128-.308,1.861,1.861,0,0,0,.772-.8V11.411h-.991q-2.324,0-2.324,1.36a1.151,1.151,0,0,0,.4.93A1.524,1.524,0,0,0,242.928,14.036Zm4.84-2.8a4.333,4.333,0,0,1,.807-2.738,2.745,2.745,0,0,1,4.17-.147V4.5h1.265V15h-1.162l-.062-.793a2.575,2.575,0,0,1-2.112.93,2.526,2.526,0,0,1-2.1-1.053,4.382,4.382,0,0,1-.81-2.748Zm1.265.144a3.281,3.281,0,0,0,.52,1.969,1.68,1.68,0,0,0,1.436.711,1.845,1.845,0,0,0,1.757-1.08v-3.4A1.859,1.859,0,0,0,251,8.54a1.687,1.687,0,0,0-1.449.718A3.612,3.612,0,0,0,249.033,11.384ZM260.538,15a2.657,2.657,0,0,1-.178-.779,2.822,2.822,0,0,1-2.105.916,2.611,2.611,0,0,1-1.794-.619,2,2,0,0,1-.7-1.569,2.091,2.091,0,0,1,.878-1.794,4.141,4.141,0,0,1,2.471-.639h1.23V9.935a1.42,1.42,0,0,0-.4-1.056,1.593,1.593,0,0,0-1.169-.393,1.844,1.844,0,0,0-1.135.342,1.007,1.007,0,0,0-.458.827H255.91a1.745,1.745,0,0,1,.393-1.07,2.683,2.683,0,0,1,1.066-.817,3.588,3.588,0,0,1,1.48-.3,2.924,2.924,0,0,1,2,.639,2.306,2.306,0,0,1,.752,1.76v3.4a4.162,4.162,0,0,0,.26,1.62V15Zm-2.1-.964a2.223,2.223,0,0,0,1.128-.308,1.861,1.861,0,0,0,.772-.8V11.411h-.991q-2.324,0-2.324,1.36a1.151,1.151,0,0,0,.4.93A1.524,1.524,0,0,0,258.439,14.036Zm8.306-2.8a4.333,4.333,0,0,1,.807-2.738,2.745,2.745,0,0,1,4.17-.147V4.5h1.265V15h-1.162l-.062-.793a2.575,2.575,0,0,1-2.112.93,2.526,2.526,0,0,1-2.1-1.053,4.382,4.382,0,0,1-.81-2.748Zm1.265.144a3.281,3.281,0,0,0,.52,1.969,1.68,1.68,0,0,0,1.436.711,1.845,1.845,0,0,0,1.757-1.08v-3.4a1.859,1.859,0,0,0-1.743-1.046,1.687,1.687,0,0,0-1.449.718A3.612,3.612,0,0,0,268.009,11.384Zm10.008,3.753a3.232,3.232,0,0,1-2.447-.988,3.666,3.666,0,0,1-.943-2.642v-.232a4.438,4.438,0,0,1,.42-1.965,3.28,3.28,0,0,1,1.176-1.354,2.956,2.956,0,0,1,1.637-.489,2.77,2.77,0,0,1,2.242.95,4.114,4.114,0,0,1,.8,2.721v.526h-5.011a2.629,2.629,0,0,0,.639,1.767,2.009,2.009,0,0,0,1.555.673,2.2,2.2,0,0,0,1.135-.273,2.851,2.851,0,0,0,.813-.725l.772.6A3.106,3.106,0,0,1,278.017,15.137Zm-.157-6.631a1.687,1.687,0,0,0-1.285.557,2.708,2.708,0,0,0-.643,1.562h3.705v-.1a2.409,2.409,0,0,0-.52-1.494A1.588,1.588,0,0,0,277.86,8.506Zm11.464,4.751,2.844-8.21H293.6L289.912,15H288.75l-3.685-9.953h1.429Zm4.765-2.023a4.369,4.369,0,0,1,.427-1.955,3.187,3.187,0,0,1,1.189-1.34,3.238,3.238,0,0,1,1.74-.472,3.119,3.119,0,0,1,2.444,1.046,4.024,4.024,0,0,1,.933,2.782v.089a4.407,4.407,0,0,1-.414,1.938,3.14,3.14,0,0,1-1.183,1.336,3.275,3.275,0,0,1-1.767.479,3.111,3.111,0,0,1-2.437-1.046,4,4,0,0,1-.933-2.769Zm1.271.15a3.164,3.164,0,0,0,.571,1.976,1.934,1.934,0,0,0,3.059-.01,3.46,3.46,0,0,0,.567-2.116,3.159,3.159,0,0,0-.578-1.972,1.836,1.836,0,0,0-1.535-.755,1.816,1.816,0,0,0-1.511.745A3.435,3.435,0,0,0,295.36,11.384ZM303.782,15h-1.265V7.6h1.265Zm-1.367-9.358a.755.755,0,0,1,.188-.52.706.706,0,0,1,.557-.212.717.717,0,0,1,.561.212.747.747,0,0,1,.191.52.722.722,0,0,1-.191.513.73.73,0,0,1-.561.205.718.718,0,0,1-.557-.205A.73.73,0,0,1,302.415,5.642Zm3.09,5.6a4.347,4.347,0,0,1,.8-2.751,2.757,2.757,0,0,1,4.231-.065l.062-.82h1.155v7.219a3.009,3.009,0,0,1-.851,2.263,3.141,3.141,0,0,1-2.287.827,3.8,3.8,0,0,1-1.565-.342,2.7,2.7,0,0,1-1.169-.937l.656-.759a2.473,2.473,0,0,0,1.989,1,1.938,1.938,0,0,0,1.439-.52,1.986,1.986,0,0,0,.516-1.463v-.636a2.6,2.6,0,0,1-2.071.875,2.527,2.527,0,0,1-2.1-1.046A4.571,4.571,0,0,1,305.5,11.24Zm1.271.144a3.316,3.316,0,0,0,.513,1.965,1.666,1.666,0,0,0,1.436.714,1.852,1.852,0,0,0,1.757-1.087V9.6a1.874,1.874,0,0,0-1.743-1.06,1.681,1.681,0,0,0-1.442.718A3.612,3.612,0,0,0,306.776,11.384Zm8.6-5.571V7.6h1.381v.978h-1.381v4.593a1.027,1.027,0,0,0,.185.667.777.777,0,0,0,.629.222,3.062,3.062,0,0,0,.6-.082V15a3.688,3.688,0,0,1-.971.136,1.575,1.575,0,0,1-1.278-.513,2.2,2.2,0,0,1-.431-1.456V8.581h-1.347V7.6h1.347V5.813Zm6.275,5.147a10.568,10.568,0,0,1,.414-2.967A8.619,8.619,0,0,1,323.3,5.409,5.249,5.249,0,0,1,325,3.769l.26.834a5.444,5.444,0,0,0-1.637,2.338,10.135,10.135,0,0,0-.7,3.521l-.007.581a10.188,10.188,0,0,0,.964,4.58,5.47,5.47,0,0,0,1.381,1.818l-.26.772a5.418,5.418,0,0,1-1.736-1.7A9.5,9.5,0,0,1,321.651,10.96Zm12.605,2.078a.931.931,0,0,0-.386-.8,3.718,3.718,0,0,0-1.347-.489A6.367,6.367,0,0,1,331,11.261a2.169,2.169,0,0,1-.834-.684,1.635,1.635,0,0,1-.27-.943,1.919,1.919,0,0,1,.769-1.538,3,3,0,0,1,1.965-.629,3.091,3.091,0,0,1,2.041.649,2.063,2.063,0,0,1,.783,1.661h-1.271a1.142,1.142,0,0,0-.441-.9,1.652,1.652,0,0,0-1.111-.376,1.729,1.729,0,0,0-1.08.3.947.947,0,0,0-.39.786.767.767,0,0,0,.362.69,4.458,4.458,0,0,0,1.309.444,6.821,6.821,0,0,1,1.535.506,2.238,2.238,0,0,1,.872.708,1.74,1.74,0,0,1,.284,1.008,1.893,1.893,0,0,1-.793,1.589,3.326,3.326,0,0,1-2.058.6,3.725,3.725,0,0,1-1.572-.314,2.557,2.557,0,0,1-1.07-.878,2.117,2.117,0,0,1-.386-1.22h1.265a1.309,1.309,0,0,0,.509,1.008,1.976,1.976,0,0,0,1.254.373,2.039,2.039,0,0,0,1.152-.291A.893.893,0,0,0,334.256,13.038Zm2.939,1.3a.792.792,0,0,1,.195-.547.742.742,0,0,1,.584-.219.765.765,0,0,1,.591.219.776.776,0,0,1,.2.547.734.734,0,0,1-.2.526.778.778,0,0,1-.591.212.7.7,0,0,1-.779-.738Zm7.745.663V8.581h-1.169V7.6h1.169V6.845a2.519,2.519,0,0,1,.636-1.839,2.4,2.4,0,0,1,1.8-.649,3.339,3.339,0,0,1,.868.115l-.068,1.019a3.632,3.632,0,0,0-.684-.062,1.234,1.234,0,0,0-.95.36,1.46,1.46,0,0,0-.335,1.032V7.6h1.579v.978h-1.579V15Zm4.266-.663a.792.792,0,0,1,.195-.547.742.742,0,0,1,.584-.219.765.765,0,0,1,.591.219.776.776,0,0,1,.2.547.734.734,0,0,1-.2.526.778.778,0,0,1-.591.212.7.7,0,0,1-.779-.738Zm6.576-3.309a10.574,10.574,0,0,1-.4,2.922,8.641,8.641,0,0,1-1.224,2.581,5.361,5.361,0,0,1-1.726,1.682l-.267-.772a5.5,5.5,0,0,0,1.692-2.505,10.839,10.839,0,0,0,.653-3.77v-.219a11.253,11.253,0,0,0-.3-2.669,9.009,9.009,0,0,0-.837-2.211,5.108,5.108,0,0,0-1.207-1.524l.267-.772a5.34,5.34,0,0,1,1.719,1.668,8.66,8.66,0,0,1,1.224,2.577A10.818,10.818,0,0,1,355.783,11.028Zm1.976,3.309a.792.792,0,0,1,.195-.547.742.742,0,0,1,.584-.219.765.765,0,0,1,.591.219.776.776,0,0,1,.2.547.734.734,0,0,1-.2.526.778.778,0,0,1-.591.212.7.7,0,0,1-.779-.738Z" transform="translate(533 5580.892)" fill="#fff"/>
  </g>
</svg>
