<svg id="Grupo_904684" data-name="Grupo 904684" xmlns="http://www.w3.org/2000/svg" xmlns:xlink="http://www.w3.org/1999/xlink" width="589" height="163" viewBox="0 0 589 163">
  <defs>
    <clipPath id="clip-path">
      <path id="Trazado_632865" data-name="Trazado 632865" d="M31.582,0A31.578,31.578,0,1,0,63.157,31.575,31.573,31.573,0,0,0,31.582,0Z" fill="#a50491"/>
    </clipPath>
    <clipPath id="clip-path-2">
      <rect id="Rectángulo_337978" data-name="Rectángulo 337978" width="63.157" height="71.358" fill="none"/>
    </clipPath>
    <clipPath id="clip-path-3">
      <rect id="Rectángulo_337980" data-name="Rectángulo 337980" width="4.736" height="16.839" fill="none"/>
    </clipPath>
    <linearGradient id="linear-gradient" x1="-2.122" y1="1.167" x2="-1.689" y2="1.167" gradientUnits="objectBoundingBox">
      <stop offset="0" stop-color="#d9000f"/>
      <stop offset="0.255" stop-color="#d5000f"/>
      <stop offset="0.45" stop-color="#cc0210"/>
      <stop offset="0.625" stop-color="#bb0512"/>
      <stop offset="0.788" stop-color="#a40916"/>
      <stop offset="0.941" stop-color="#870f1a"/>
      <stop offset="1" stop-color="#7a121c"/>
    </linearGradient>
    <linearGradient id="linear-gradient-2" x1="-1.087" y1="1.167" x2="-0.654" y2="1.167" xlink:href="#linear-gradient"/>
    <clipPath id="clip-path-7">
      <rect id="Rectángulo_337967" data-name="Rectángulo 337967" width="162.259" height="47.662" fill="none"/>
    </clipPath>
    <clipPath id="clip-path-8">
      <rect id="Rectángulo_337966" data-name="Rectángulo 337966" width="162.258" height="47.663" fill="none"/>
    </clipPath>
    <clipPath id="clip-path-9">
      <path id="Trazado_632850" data-name="Trazado 632850" d="M0,0H22.3V5.184L0,5.646Z" fill="none"/>
    </clipPath>
    <clipPath id="clip-path-10">
      <rect id="Rectángulo_337960" data-name="Rectángulo 337960" width="29.479" height="9.276" fill="none"/>
    </clipPath>
    <clipPath id="clip-path-11">
      <path id="Trazado_632849" data-name="Trazado 632849" d="M0,0H10.659V5.578L0,6.456Z" fill="none"/>
    </clipPath>
    <clipPath id="clip-path-12">
      <path id="Trazado_632845" data-name="Trazado 632845" d="M0,0H25.833V9.276L0,6.817Z" fill="none"/>
    </clipPath>
    <clipPath id="clip-path-13">
      <path id="Trazado_632846" data-name="Trazado 632846" d="M0,0H25.479V6.9L0,5.141Z" fill="none"/>
    </clipPath>
    <clipPath id="clip-path-14">
      <rect id="Rectángulo_337974" data-name="Rectángulo 337974" width="71.29" height="111.934" fill="none"/>
    </clipPath>
    <clipPath id="clip-path-15">
      <rect id="Rectángulo_337973" data-name="Rectángulo 337973" width="71.289" height="111.934" fill="none"/>
    </clipPath>
  </defs>
  <g id="Grupo_904649" data-name="Grupo 904649">
    <rect id="Rectángulo_337968" data-name="Rectángulo 337968" width="589" height="163" rx="10" fill="#fff"/>
  </g>
  <g id="Grupo_904681" data-name="Grupo 904681" transform="translate(385.196 67.715)">
    <g id="Grupo_904670" data-name="Grupo 904670" transform="translate(0 0)">
      <g id="Grupo_904669" data-name="Grupo 904669" clip-path="url(#clip-path)">
        <rect id="Rectángulo_337976" data-name="Rectángulo 337976" width="89.317" height="89.317" transform="translate(-31.578 31.579) rotate(-45)" fill="#821b22"/>
      </g>
    </g>
    <g id="Grupo_904672" data-name="Grupo 904672" transform="translate(0 0.001)">
      <g id="Grupo_904671" data-name="Grupo 904671" clip-path="url(#clip-path-2)">
        <rect id="Rectángulo_337977" data-name="Rectángulo 337977" width="2.364" height="14.385" transform="translate(38.818 56.972)" fill="#96918d"/>
      </g>
    </g>
    <g id="Grupo_904674" data-name="Grupo 904674" transform="translate(37.633 52.76)">
      <g id="Grupo_904673" data-name="Grupo 904673" clip-path="url(#clip-path-3)">
        <rect id="Rectángulo_337979" data-name="Rectángulo 337979" width="15.256" height="15.256" transform="translate(-8.42 8.42) rotate(-45)" fill="url(#linear-gradient)"/>
      </g>
    </g>
    <g id="Grupo_904676" data-name="Grupo 904676" transform="translate(0 0.001)">
      <g id="Grupo_904675" data-name="Grupo 904675" clip-path="url(#clip-path-2)">
        <rect id="Rectángulo_337981" data-name="Rectángulo 337981" width="2.368" height="14.385" transform="translate(23.028 56.972)" fill="#96918d"/>
      </g>
    </g>
    <g id="Grupo_904678" data-name="Grupo 904678" transform="translate(21.846 52.76)">
      <g id="Grupo_904677" data-name="Grupo 904677" clip-path="url(#clip-path-3)">
        <rect id="Rectángulo_337983" data-name="Rectángulo 337983" width="15.256" height="15.256" transform="translate(-8.42 8.42) rotate(-45)" fill="url(#linear-gradient-2)"/>
      </g>
    </g>
    <g id="Grupo_904680" data-name="Grupo 904680" transform="translate(0 0.001)">
      <g id="Grupo_904679" data-name="Grupo 904679" clip-path="url(#clip-path-2)">
        <path id="Trazado_632866" data-name="Trazado 632866" d="M57.318,28.9A28.42,28.42,0,1,1,28.9.477,28.422,28.422,0,0,1,57.318,28.9" transform="translate(2.683 2.677)" fill="#d9000f"/>
        <path id="Trazado_632867" data-name="Trazado 632867" d="M2.782,29.457a1.813,1.813,0,0,1-1.8-1.594c-.8-6.369,2.209-14.286,7.474-19.7A22.863,22.863,0,0,1,27.372,1.13a1.818,1.818,0,0,1-.357,3.618A19.123,19.123,0,0,0,11.062,10.7C6.6,15.29,3.926,22.162,4.587,27.413a1.808,1.808,0,0,1-1.581,2.024,1.291,1.291,0,0,1-.225.02" transform="translate(4.798 5.702)" fill="#efdbc3"/>
      </g>
    </g>
  </g>
  <g id="Grupo_904682" data-name="Grupo 904682" transform="translate(203.001 91.273)">
    <g id="Grupo_904644" data-name="Grupo 904644" clip-path="url(#clip-path-7)">
      <g id="Grupo_904643" data-name="Grupo 904643" transform="translate(0 0)">
        <g id="Grupo_904642" data-name="Grupo 904642" clip-path="url(#clip-path-8)">
          <path id="Trazado_632839" data-name="Trazado 632839" d="M162.258,21.9V44.511h-4V21.9c0-4.03-5.678-7.308-12.657-7.308H16.654C9.677,14.592,4,17.87,4,21.9V44.511H0V21.9c0-5.3,7.469-9.613,16.654-9.613H145.6c9.185,0,16.654,4.311,16.654,9.613" transform="translate(0 3.152)" fill="#d6d9ed"/>
          <path id="Trazado_632840" data-name="Trazado 632840" d="M157.77,21.557V44.169h-1.084V21.557c0-4.03-5.678-7.308-12.657-7.308H15.079c-6.977,0-12.655,3.278-12.655,7.308V44.169H1.338V21.557c0-4.375,6.165-7.935,13.741-7.935h128.95c7.578,0,13.741,3.56,13.741,7.935" transform="translate(1.575 3.494)" fill="#9caed1"/>
          <path id="Trazado_632841" data-name="Trazado 632841" d="M125.539,4.174V29.006c0,2.3-3.235,4.173-7.228,4.173,0,0-25.527-4.173-50.351-4.173a327.553,327.553,0,0,0-48.944,4.173c-3.993,0-7.228-1.868-7.228-4.173V4.174C11.789,1.87,15.024,0,19.017,0c0,0,24.121,7.12,48.944,7.12S118.312,0,118.312,0c3.993,0,7.228,1.87,7.228,4.174" transform="translate(13.876 0)" fill="#267d20"/>
          <path id="Trazado_632848" data-name="Trazado 632848" d="M0,5.056l10.659,1.2V29.48L0,30.038Z" transform="translate(55.143 0.001)" fill="#27985f"/>
          <path id="Trazado_632847" data-name="Trazado 632847" d="M.727,7.211,25.48,4.178v26.46L0,29.122Z" transform="translate(88.103 0.001)" fill="#27985f"/>
          <g id="Grupo_904629" data-name="Grupo 904629" transform="translate(65.801 23.903)" opacity="0.5">
            <g id="Grupo_904628" data-name="Grupo 904628">
              <g id="Enmascarar_grupo_902219" data-name="Enmascarar grupo 902219" clip-path="url(#clip-path-9)">
                <path id="Trazado_632844" data-name="Trazado 632844" d="M0,0H22.3V5.14H0Z" transform="translate(-0.001 0)" fill="#404c63"/>
              </g>
            </g>
          </g>
          <g id="Grupo_904632" data-name="Grupo 904632" transform="translate(25.664 23.903)" opacity="0.5">
            <g id="Grupo_904631" data-name="Grupo 904631">
              <g id="Grupo_904630" data-name="Grupo 904630" clip-path="url(#clip-path-10)">
                <path id="Trazado_632842" data-name="Trazado 632842" d="M41.268,19.023l-.54,6.2L19.019,28.3c-3.993,0-7.23-1.87-7.23-4.174v-5.1Z" transform="translate(-11.788 -19.024)" fill="#404c63"/>
              </g>
            </g>
          </g>
          <g id="Grupo_904635" data-name="Grupo 904635" transform="translate(55.142 23.903)" opacity="0.5">
            <g id="Grupo_904634" data-name="Grupo 904634">
              <g id="Enmascarar_grupo_902218" data-name="Enmascarar grupo 902218" clip-path="url(#clip-path-11)">
                <rect id="Rectángulo_337961" data-name="Rectángulo 337961" width="10.659" height="9.277" transform="translate(0.001 0)" fill="#30394a"/>
              </g>
            </g>
          </g>
          <g id="Grupo_904638" data-name="Grupo 904638" transform="translate(113.582 23.903)" opacity="0.5">
            <g id="Grupo_904637" data-name="Grupo 904637">
              <g id="Enmascarar_grupo_902216" data-name="Enmascarar grupo 902216" clip-path="url(#clip-path-12)">
                <path id="Trazado_632843" data-name="Trazado 632843" d="M78.006,19.023v5.1c0,2.3-3.235,4.174-7.228,4.174h-18.6V19.023Z" transform="translate(-52.174 -19.024)" fill="#404c63"/>
              </g>
            </g>
          </g>
          <g id="Grupo_904641" data-name="Grupo 904641" transform="translate(88.103 23.903)" opacity="0.5">
            <g id="Grupo_904640" data-name="Grupo 904640">
              <g id="Enmascarar_grupo_902217" data-name="Enmascarar grupo 902217" clip-path="url(#clip-path-13)">
                <rect id="Rectángulo_337964" data-name="Rectángulo 337964" width="25.48" height="9.277" transform="translate(0 0)" fill="#30394a"/>
              </g>
            </g>
          </g>
        </g>
      </g>
    </g>
  </g>
  <rect id="Rectángulo_337986" data-name="Rectángulo 337986" width="399" height="6" transform="translate(95 138.662)" fill="#13693e"/>
  <g id="Grupo_904683" data-name="Grupo 904683" transform="translate(127 124.277)">
    <rect id="Rectángulo_337987" data-name="Rectángulo 337987" width="2.368" height="14.385" fill="#96918d"/>
    <rect id="Rectángulo_337988" data-name="Rectángulo 337988" width="2.368" height="14.385" transform="translate(40)" fill="#96918d"/>
  </g>
  <g id="Grupo_904667" data-name="Grupo 904667" transform="translate(112 26.729)">
    <g id="Enmascarar_grupo_904666" data-name="Enmascarar grupo 904666" clip-path="url(#clip-path-14)">
      <g id="Grupo_904665" data-name="Grupo 904665" transform="translate(0 0)">
        <g id="Enmascarar_grupo_904664" data-name="Enmascarar grupo 904664" clip-path="url(#clip-path-15)">
          <path id="Trazado_632854" data-name="Trazado 632854" d="M71.289,23.54c0-3.737-15.959-6.76-35.647-6.76S0,19.8,0,23.54,15.959,30.3,35.643,30.3s35.647-3.03,35.647-6.76" transform="translate(0 50.655)" fill="#404c63"/>
          <path id="Trazado_632855" data-name="Trazado 632855" d="M66.567,11.429V39.11c0,2.729-9.239,5.052-22.111,5.9-3.4.225-7.041.342-10.839.342C15.42,45.352.671,42.558.671,39.11V11.429c0,3.452,14.749,6.249,32.946,6.249,3.8,0,7.443-.125,10.839-.342,9.307-.619,16.71-2,20.1-3.754,1.3-.671,2.009-1.4,2.009-2.154" transform="translate(2.026 34.502)" fill="#ffd947"/>
          <path id="Trazado_632856" data-name="Trazado 632856" d="M71.289,18.462V48.406c0,3.392-13.2,6.2-30.4,6.683q-1.441.042-2.926.06c-.764.008-1.539.016-2.323.016-.88,0-1.752-.008-2.616-.016a155.215,155.215,0,0,1-17.94-1.222c-1.776-.237-3.432-.506-4.943-.8C3.87,51.906,0,50.243,0,48.406V18.462c0,3.733,15.959,6.76,35.643,6.76q2.677,0,5.249-.076c17.2-.478,30.4-3.287,30.4-6.683" transform="translate(0 55.733)" fill="#2d4673"/>
          <path id="Trazado_632860" data-name="Trazado 632860" d="M71.289,1.683V48.566c0,3.4-13.2,6.2-30.4,6.683q-2.568.078-5.249.076C15.959,55.326,0,52.3,0,48.566V1.683Z" transform="translate(0 5.081)" fill="#2d4673"/>
          <path id="Trazado_632861" data-name="Trazado 632861" d="M71.289,6.591v7.033c0,3.018-10.421,5.57-24.808,6.442-1.8.1-3.673.189-5.59.245q-2.568.072-5.249.072C15.959,20.383,0,17.357,0,13.624V6.591c0,3.733,15.959,6.76,35.643,6.76q2.677,0,5.249-.072c1.917-.056,3.786-.141,5.59-.245,14.387-.872,24.808-3.424,24.808-6.442" transform="translate(0 19.897)" fill="#ffd947"/>
          <path id="Trazado_632862" data-name="Trazado 632862" d="M71.289,6.764c0,3.4-13.2,6.205-30.4,6.687q-2.568.072-5.249.072C15.959,13.523,0,10.5,0,6.764S15.959,0,35.643,0,71.289,3.03,71.289,6.764" transform="translate(0 0)" fill="#687285"/>
          <path id="Trazado_632863" data-name="Trazado 632863" d="M66.567,5.046a11.873,11.873,0,0,1-2.572,1.141,46.36,46.36,0,0,1-7.186,1.676,146.582,146.582,0,0,1-23.192,1.66,146.582,146.582,0,0,1-23.192-1.66A46.478,46.478,0,0,1,3.239,6.187,11.908,11.908,0,0,1,.671,5.046c.936-.6,3.444-1.76,9.754-2.817A147.061,147.061,0,0,1,33.617.569a147.061,147.061,0,0,1,23.192,1.66c6.314,1.057,8.821,2.214,9.758,2.817" transform="translate(2.026 1.718)" fill="#566684"/>
          <path id="Trazado_632864" data-name="Trazado 632864" d="M62.067,4.472a46.478,46.478,0,0,1-7.186,1.676A146.58,146.58,0,0,1,31.689,7.811,146.543,146.543,0,0,1,8.5,6.147,46.478,46.478,0,0,1,1.311,4.472,47.454,47.454,0,0,1,8.5,2.8a147.061,147.061,0,0,1,23.192-1.66A147.1,147.1,0,0,1,54.881,2.8a47.454,47.454,0,0,1,7.186,1.676" transform="translate(3.958 3.429)" fill="#404c63"/>
        </g>
      </g>
    </g>
  </g>
  <text id="_3" data-name="3" transform="translate(193 46)" fill="#12263f" font-size="18" font-family="Roboto-Black, Roboto" font-weight="800"><tspan x="0" y="0">3</tspan></text>
  <text id="_1" data-name="1" transform="translate(279 87)" fill="#12263f" font-size="18" font-family="Roboto-Black, Roboto" font-weight="800"><tspan x="0" y="0">1</tspan></text>
  <text id="_2" data-name="2" transform="translate(403 58)" fill="#12263f" font-size="18" font-family="Roboto-Black, Roboto" font-weight="800"><tspan x="0" y="0">2</tspan></text>
</svg>
