<svg xmlns="http://www.w3.org/2000/svg" width="85" height="76.313" viewBox="0 0 85 76.313">
  <g id="Grupo_925045" data-name="Grupo 925045" transform="translate(-180 -7555.438)">
    <g id="Grupo_911246" data-name="Grupo 911246" transform="translate(180 7555.438)" opacity="0.91">
      <rect id="Rectángulo_6967" data-name="Rectángulo 6967" width="85" height="76.313" rx="10" fill="#fae69c"/>
    </g>
    <g id="exclamation-mark" transform="translate(154.387 7569.54)">
      <g id="Grupo_54835" data-name="Grupo 54835" transform="translate(47.809 0.756)">
        <path id="Trazado_103159" data-name="Trazado 103159" d="M85.724,7.5H63.992a9.438,9.438,0,0,0-9.438,9.438v23.08a9.438,9.438,0,0,0,9.438,9.438h5.582a1.284,1.284,0,0,1,1.174.763l2.937,6.611a1.284,1.284,0,0,0,2.347,0l2.937-6.611a1.284,1.284,0,0,1,1.174-.763h5.582a9.438,9.438,0,0,0,9.438-9.438V16.938A9.438,9.438,0,0,0,85.724,7.5Z" transform="translate(-54.554 -7.5)" fill="#f5f5f5"/>
      </g>
      <g id="Grupo_54836" data-name="Grupo 54836" transform="translate(65.003 7.694)">
        <path id="Trazado_103160" data-name="Trazado 103160" d="M229.459,93.8h-2.411a.933.933,0,0,1-.931-.875l-.972-15.6a.933.933,0,0,1,.931-.991h4.355a.933.933,0,0,1,.931.991l-.972,15.6A.933.933,0,0,1,229.459,93.8Zm-1.206,4.936A2.749,2.749,0,1,0,231,101.485,2.749,2.749,0,0,0,228.254,98.736Z" transform="translate(-225.144 -76.333)" fill="#b3009d"/>
      </g>
      <g id="Grupo_54837" data-name="Grupo 54837" transform="translate(75.955 0.756)">
        <path id="Trazado_103161" data-name="Trazado 103161" d="M336.83,7.5h-3.024a9.438,9.438,0,0,1,9.438,9.438v23.08a9.438,9.438,0,0,1-9.438,9.438h3.024a9.438,9.438,0,0,0,9.438-9.438V16.938A9.438,9.438,0,0,0,336.83,7.5Z" transform="translate(-333.806 -7.5)" fill="#ebe5ed"/>
      </g>
      <g id="Grupo_54838" data-name="Grupo 54838" transform="translate(66.601 30.097)">
        <path id="Trazado_103162" data-name="Trazado 103162" d="M242.512,298.607a2.735,2.735,0,0,0-1.512.453,2.748,2.748,0,0,1,0,4.59,2.748,2.748,0,1,0,1.512-5.044Z" transform="translate(-241 -298.607)" fill="#e600c9"/>
      </g>
      <g id="Grupo_54839" data-name="Grupo 54839" transform="translate(66.601 7.694)">
        <path id="Trazado_103163" data-name="Trazado 103163" d="M244.689,76.333h-3.024a.933.933,0,0,1,.931.991l-.972,15.6a.932.932,0,0,1-.625.822.927.927,0,0,0,.306.053h2.411a.933.933,0,0,0,.931-.875l.972-15.6A.933.933,0,0,0,244.689,76.333Z" transform="translate(-241 -76.333)" fill="#e600c9"/>
      </g>
      <g id="Grupo_54840" data-name="Grupo 54840" transform="translate(64.247 6.938)">
        <path id="Trazado_103164" data-name="Trazado 103164" d="M222.716,87.813h-2.411a1.691,1.691,0,0,1-1.685-1.584l-.972-15.6a1.689,1.689,0,0,1,1.685-1.794h4.355a1.689,1.689,0,0,1,1.685,1.794l-.972,15.6A1.692,1.692,0,0,1,222.716,87.813Zm-3.383-17.467a.177.177,0,0,0-.177.188l.972,15.6a.177.177,0,0,0,.176.166h2.411a.177.177,0,0,0,.176-.166l.972-15.6a.177.177,0,0,0-.177-.188Z" transform="translate(-217.645 -68.834)" fill="#3c0061"/>
      </g>
      <g id="Grupo_54841" data-name="Grupo 54841" transform="translate(64.609 29.341)">
        <path id="Trazado_103165" data-name="Trazado 103165" d="M224.735,298.115a3.5,3.5,0,1,1,3.5-3.5A3.509,3.509,0,0,1,224.735,298.115Zm0-5.5a1.993,1.993,0,1,0,1.993,1.993A1.995,1.995,0,0,0,224.735,292.618Z" transform="translate(-221.23 -291.106)" fill="#3c0061"/>
      </g>
      <g id="Grupo_54842" data-name="Grupo 54842" transform="translate(47.053)">
        <path id="Trazado_103166" data-name="Trazado 103166" d="M78.98,0H57.248A10.206,10.206,0,0,0,47.054,10.194v5.095a.756.756,0,1,0,1.512,0V10.194a8.692,8.692,0,0,1,8.682-8.682H78.98a8.692,8.692,0,0,1,8.682,8.682V24.013a.756.756,0,0,0,1.512,0V10.194A10.205,10.205,0,0,0,78.98,0Z" transform="translate(-47.054)" fill="#3c0061"/>
        <path id="Trazado_103167" data-name="Trazado 103167" d="M88.417,182.911a.756.756,0,0,0-.756.756V189.9a8.692,8.692,0,0,1-8.682,8.682H73.4a2.042,2.042,0,0,0-1.864,1.212L68.6,206.409a.528.528,0,0,1-.965,0L64.693,199.8a2.042,2.042,0,0,0-1.864-1.212H57.247a8.692,8.692,0,0,1-8.682-8.682V174.942a.756.756,0,1,0-1.512,0V189.9A10.206,10.206,0,0,0,57.247,200.1h5.582a.529.529,0,0,1,.483.314l2.937,6.611a2.04,2.04,0,0,0,3.729,0l2.937-6.611a.528.528,0,0,1,.483-.314h5.582A10.206,10.206,0,0,0,89.173,189.9v-6.237A.756.756,0,0,0,88.417,182.911Z" transform="translate(-47.053 -156.629)" fill="#3c0061"/>
      </g>
    </g>
  </g>
</svg>
